<svg width="126" height="125" viewBox="0 0 126 125" fill="none" xmlns="http://www.w3.org/2000/svg">
<path d="M109.995 97.5208V95.2291H94.9949V102.208L95.0886 103C95.0919 103.681 95.3375 104.338 95.7813 104.854C96.445 105.448 97.3078 105.769 98.198 105.755H106.5C106.927 105.8 107.141 106.148 107.141 106.797V110.573C107.165 110.85 107.103 111.129 106.964 111.37C106.829 111.535 106.647 111.655 106.443 111.714H94.9949V113.974H106.781C107.269 113.98 107.754 113.901 108.214 113.74C108.576 113.616 108.906 113.411 109.177 113.14C109.448 112.869 109.653 112.54 109.776 112.177C109.902 111.83 109.966 111.463 109.964 111.094L109.995 110.354V106.276C110.01 105.556 109.753 104.857 109.276 104.318C108.952 104.006 108.568 103.763 108.147 103.604C107.726 103.444 107.278 103.372 106.828 103.391H98.6251C98.4185 103.365 98.2244 103.278 98.0678 103.141C97.9143 102.913 97.8477 102.637 97.8803 102.365V97.5208H109.995ZM90.3647 97.0208C90.2252 96.6953 90.0315 96.3959 89.7917 96.1354C89.5226 95.8586 89.1952 95.6451 88.8334 95.5104C88.3656 95.338 87.8733 95.2413 87.3751 95.2239H75.6199V97.5208H87.047C87.2619 97.5687 87.4492 97.6998 87.5678 97.8854C87.7139 98.1448 87.8027 98.4325 87.8282 98.7291V102.375C87.8519 102.63 87.7935 102.885 87.6615 103.104C87.5169 103.241 87.3361 103.333 87.1407 103.37H78.8074C78.3673 103.353 77.9284 103.425 77.5168 103.582C77.1052 103.738 76.7293 103.976 76.4115 104.281C75.9452 104.818 75.6833 105.502 75.672 106.214L75.5834 106.995V113.974H90.6355V111.687H78.4688V106.818C78.456 106.551 78.5115 106.286 78.6303 106.047C78.7041 105.96 78.7949 105.89 78.897 105.84C78.9991 105.789 79.1104 105.761 79.224 105.755H87.4897C88.0006 105.725 88.5043 105.62 88.9845 105.443C89.336 105.314 89.6557 105.112 89.922 104.849C90.1463 104.613 90.3122 104.327 90.4063 104.016C90.5164 103.686 90.5932 103.345 90.6355 103L90.6928 102.203V98.7448L90.6407 98.0885C90.585 97.7236 90.496 97.3657 90.3647 97.0208ZM58.9792 96.1458C58.6871 95.8753 58.3459 95.6632 57.974 95.5208C57.4814 95.3455 56.9652 95.2455 56.4428 95.2239H34.6667C34.1504 95.239 33.64 95.3393 33.1563 95.5208C32.7864 95.6638 32.447 95.8759 32.1563 96.1458C31.9032 96.3876 31.7074 96.683 31.5834 97.0104C31.4634 97.3334 31.3897 97.6719 31.3647 98.0156L31.3126 98.8906V113.974H34.3334V98.6614C34.3087 98.3812 34.3685 98.1 34.5053 97.8541C34.6332 97.684 34.8181 97.5657 35.0261 97.5208H44.0209V113.979H47.0938V97.5208H56.073C56.2944 97.5608 56.4941 97.6791 56.6355 97.8541C56.7816 98.0949 56.8489 98.3753 56.8282 98.6562V113.974H59.849V98.0573C59.7916 97.7012 59.6973 97.3521 59.5678 97.0156C59.4343 96.6892 59.2358 96.3932 58.9845 96.1458M26.4324 95.2239H17.7605C17.2731 95.2372 16.7919 95.3359 16.3386 95.5156C15.9749 95.6496 15.6457 95.8631 15.3751 96.1406C15.1332 96.3955 14.9454 96.6966 14.823 97.026C14.696 97.3601 14.6187 97.7111 14.5938 98.0677L14.5417 98.9062V113.974H17.422V105.745H26.3803C26.8771 105.751 27.371 105.668 27.8386 105.5C28.223 105.363 28.5768 105.153 28.8803 104.88C29.1368 104.635 29.3329 104.334 29.4532 104C29.5709 103.665 29.6308 103.313 29.6303 102.958V98.0156C29.5989 97.3119 29.3225 96.6413 28.849 96.1198C28.1875 95.5165 27.3168 95.1951 26.422 95.2239M26.7553 102.391C26.7825 102.664 26.7223 102.94 26.5834 103.177C26.4573 103.317 26.2819 103.403 26.0938 103.417H17.4272V98.6823C17.412 98.4044 17.4713 98.1275 17.599 97.8802C17.7235 97.7064 17.9099 97.587 18.1199 97.5468H26.073C26.2829 97.587 26.4694 97.7064 26.5938 97.8802C26.7215 98.1275 26.7809 98.4044 26.7657 98.6823L26.7553 102.391ZM54.4636 66.776H54.4897V66.8073H54.4636V66.776ZM54.3334 77.7656V77.7396L54.3699 77.7448V77.7708L54.3334 77.7656ZM55.3647 70.75C55.45 70.7179 55.5254 70.6641 55.5834 70.5937C55.6459 70.5312 55.6615 70.4479 55.547 70.3646C55.2399 70.4106 54.9436 70.5111 54.672 70.6614C54.672 70.8229 54.7761 70.8489 54.8595 70.8385C55.0292 70.8173 55.1978 70.7878 55.3647 70.75ZM54.5782 54.2187L54.6199 54.2604L54.6667 54.2187L54.6407 54.1614L54.5782 54.2187ZM53.9792 79.8281L53.9845 79.7969L54.0209 79.8073L54.0157 79.8385L53.9792 79.8281ZM57.1251 69.026C57.1726 68.9577 57.203 68.8791 57.2139 68.7966C57.2248 68.7142 57.2158 68.6303 57.1876 68.5521C57.1462 68.5115 57.0925 68.4859 57.035 68.4793C56.9774 68.4727 56.9193 68.4855 56.8699 68.5156C56.7852 68.5513 56.7116 68.6089 56.6563 68.6823C56.6185 68.7314 56.6016 68.7934 56.6094 68.8549C56.6172 68.9164 56.6491 68.9723 56.698 69.0104C56.7556 69.0636 56.8303 69.0944 56.9086 69.0973C56.987 69.1001 57.0638 69.0749 57.1251 69.026ZM54.1355 52.3021C54.204 52.2955 54.2698 52.2721 54.3271 52.234C54.3843 52.1958 54.4312 52.144 54.4636 52.0833V51.7083C54.1355 51.5625 54.1355 51.5625 53.9063 51.6354C53.8295 51.7071 53.7789 51.8026 53.7629 51.9065C53.7468 52.0104 53.7662 52.1167 53.8178 52.2083C53.8615 52.2448 53.9123 52.272 53.9669 52.2881C54.0216 52.3042 54.0789 52.309 54.1355 52.3021ZM54.7292 85.7031L54.8074 85.7708C54.8074 85.7239 54.849 85.6927 54.8386 85.6718C54.8213 85.651 54.797 85.6337 54.7657 85.6198C54.7397 85.6041 54.724 85.7031 54.7292 85.7031ZM53.9063 74.7656C54.0169 74.7262 54.1141 74.6564 54.1869 74.5643C54.2597 74.4722 54.305 74.3615 54.3178 74.2448C54.209 74.2419 54.1034 74.2817 54.0236 74.3557C53.9438 74.4297 53.8961 74.5319 53.8907 74.6406L53.9063 74.7656ZM53.9792 80.1718L54.0209 80.1041L54.1251 80.1562L54.0782 80.2291L53.9792 80.1718ZM56.1772 59.4843H56.3126L56.3438 59.2083H56.172C56.139 59.247 56.1213 59.2965 56.1223 59.3473C56.1232 59.3982 56.1428 59.4469 56.1772 59.4843ZM54.547 41.9114L54.573 41.8854L54.5886 41.9062L54.5626 41.9323L54.547 41.9114ZM56.2449 47.7656L56.2709 47.7812L56.2657 47.75L56.2449 47.7656ZM56.2188 49.6718C56.1214 49.6319 56.0121 49.6319 55.9147 49.6719C55.8172 49.7118 55.7394 49.7885 55.698 49.8854C55.6493 49.9923 55.6347 50.1117 55.6561 50.2272C55.6776 50.3427 55.734 50.4488 55.8178 50.5312C56.0782 50.5937 56.1668 50.5937 56.2865 50.5312C56.3987 50.4473 56.4794 50.328 56.5157 50.1927C56.5318 50.1404 56.5374 50.0854 56.5323 50.0309C56.5271 49.9764 56.5112 49.9234 56.4856 49.8751C56.46 49.8267 56.4251 49.7839 56.3829 49.749C56.3407 49.7141 56.292 49.6879 56.2397 49.6718H56.2188ZM55.8386 69.0677C55.6667 69.1302 55.6668 69.1302 55.672 69.2812C55.8803 69.2708 55.8907 69.2343 55.8386 69.0677ZM55.6459 47.026L55.6511 47.0052H55.6824V47.0364L55.6459 47.026ZM56.5105 73.5521L56.5522 73.3489C56.5544 73.2734 56.5649 73.1983 56.5834 73.125C56.4063 72.901 56.2865 73.125 56.1459 73.125C55.9865 73.1102 55.8261 73.1102 55.6667 73.125C55.4011 73.125 55.2345 73.3854 55.0053 73.4531L54.8334 73.8073C54.903 74.1124 54.903 74.4292 54.8334 74.7344C54.9532 74.9166 55.0834 74.776 55.2188 74.8125L55.349 74.9844V75.3177C55.5417 75.3646 55.5678 75.1354 55.7084 75.1198H56.0522L56.323 75.3646L56.4792 75.2552L56.5157 74.875L56.7657 74.6562V74.3125C56.8699 74.1146 57.047 74.0937 57.2032 74.0469L57.2605 73.9583V73.8333C57.2274 73.7811 57.1795 73.7398 57.123 73.7148C57.0664 73.6897 57.0037 73.6821 56.9428 73.6927C56.8648 73.7034 56.7854 73.6964 56.7105 73.672C56.6356 73.6477 56.5672 73.6066 56.5105 73.5521ZM56.448 49.0156L56.6147 49.0625L56.7813 49.0312C56.8308 49.0262 56.8788 49.0111 56.9223 48.9868C56.9657 48.9625 57.0038 48.9296 57.034 48.8901C57.0643 48.8506 57.0861 48.8053 57.0982 48.757C57.1103 48.7087 57.1123 48.6585 57.1042 48.6094V48.5104L56.9949 48.2708C56.9158 48.2275 56.8283 48.2019 56.7384 48.1956C56.6485 48.1893 56.5583 48.2025 56.474 48.2343C56.4172 48.2553 56.3665 48.2901 56.3265 48.3356C56.2865 48.381 56.2584 48.4357 56.2449 48.4948C56.2639 48.6836 56.3341 48.8637 56.448 49.0156ZM56.2553 79.5416L56.4272 79.6198L56.4792 79.5104C56.4029 79.3923 56.3334 79.3732 56.2709 79.4531L56.2553 79.5416ZM56.1615 86.9427C56.1147 86.9427 56.0834 86.901 56.0626 86.9114C56.0452 86.9288 56.0261 86.9548 56.0053 86.9896C55.9845 87.0208 56.0678 87.0312 56.0886 87.026C56.106 87.0121 56.1303 86.9844 56.1615 86.9427ZM56.9063 82.4948C56.9549 82.5468 57.0001 82.533 57.0417 82.4531C56.9897 82.3802 56.9428 82.3802 56.9011 82.4531L56.9063 82.4948ZM56.0782 87.4114L56.1459 87.6458L56.3282 87.526C56.2935 87.3871 56.224 87.3368 56.1199 87.375L56.0782 87.4114ZM54.672 69.5104L54.724 69.5416L54.7449 69.4896L54.698 69.4583L54.672 69.5104ZM52.5209 81.5416L52.5417 81.5208L52.5626 81.5468L52.5365 81.5625L52.5209 81.5416ZM51.7293 70.6979C51.8699 70.6979 51.8699 70.6979 51.9584 70.5989C51.8386 70.4791 51.8178 70.4687 51.7449 70.5104C51.672 70.5521 51.6563 70.5989 51.7293 70.6979ZM52.2032 62.6614L52.2553 62.6979L52.2709 62.6406L52.2449 62.625L52.2032 62.6614ZM52.2084 58.9844C52.2003 58.9853 52.1925 58.9881 52.1857 58.9926C52.1788 58.9971 52.1732 59.0032 52.1691 59.0103C52.1651 59.0174 52.1627 59.0253 52.1623 59.0335C52.1619 59.0416 52.1634 59.0498 52.1667 59.0573L52.2449 59.1198L52.2813 59.026C52.2804 59.0179 52.2776 59.0101 52.2731 59.0033C52.2686 58.9964 52.2625 58.9908 52.2554 58.9867C52.2483 58.9827 52.2404 58.9803 52.2322 58.9799C52.224 58.9795 52.2159 58.981 52.2084 58.9844ZM51.2345 59.625C51.084 59.7508 50.9796 59.923 50.9376 60.1146L51.0209 60.526C51.0977 60.592 51.1837 60.6463 51.2761 60.6875C51.4448 60.7487 51.6193 60.7923 51.797 60.8177C51.8579 60.8246 51.9195 60.8135 51.9741 60.7858C52.0287 60.758 52.074 60.7147 52.1042 60.6614L52.172 60.2031C52.0631 59.958 51.8812 59.7524 51.6511 59.6146L51.2345 59.625ZM51.0678 66.2396C50.8334 66.4219 50.8282 66.4427 50.9011 66.6771C51.073 66.6771 51.1355 66.6771 51.1772 66.5573C51.1913 66.5293 51.1997 66.4988 51.2018 66.4675C51.2039 66.4363 51.1998 66.4049 51.1896 66.3753C51.1794 66.3457 51.1633 66.3184 51.1424 66.2951C51.1215 66.2718 51.0961 66.2529 51.0678 66.2396ZM53.9272 41.6979L53.9428 41.7187V41.6823L53.9272 41.6979ZM51.8126 86.7604L51.8334 86.7448L51.849 86.7656L51.8282 86.7812L51.8126 86.7604ZM51.198 75.5052L51.2084 75.4844L51.2397 75.5L51.2345 75.5208L51.198 75.5052ZM51.5313 76.6614C51.599 76.8177 51.7032 76.8437 51.9063 76.7812L51.6615 76.5729L51.5313 76.6614ZM50.9115 68.0312L50.922 68.0104H50.9428V68.0364L50.9115 68.0312ZM53.5834 84.9635C53.5217 84.9817 53.469 85.0222 53.4353 85.077C53.4017 85.1318 53.3895 85.1971 53.4011 85.2604C53.4034 85.4484 53.4654 85.6308 53.5782 85.7812L53.7813 85.8385L53.9792 85.5937C53.9906 85.4565 53.9747 85.3185 53.9324 85.1875C53.9244 85.1498 53.9089 85.114 53.887 85.0823C53.8651 85.0506 53.8371 85.0235 53.8046 85.0027C53.7722 84.9819 53.7359 84.9677 53.6979 84.961C53.66 84.9542 53.621 84.9551 53.5834 84.9635ZM53.349 68.7968L53.2865 68.8854C53.3213 69.0243 53.3959 69.0746 53.5105 69.0364C53.5105 68.8437 53.474 68.7812 53.349 68.7968ZM53.5938 72.3489L53.6095 72.3385L53.6303 72.3698L53.6147 72.3802L53.5938 72.3489ZM53.6095 63.2864L53.6251 63.3125L53.6303 63.2656L53.6095 63.2864ZM54.0522 43.5208C54.1954 43.5803 54.3235 43.6711 54.4272 43.7864L54.7345 43.8281L55.2032 43.5573C55.281 43.4121 55.3032 43.2436 55.2657 43.0833C55.2275 42.9648 55.1595 42.8581 55.0684 42.7733C54.9772 42.6885 54.8658 42.6285 54.7449 42.5989C54.6476 42.6299 54.5447 42.6385 54.4437 42.6241C54.3427 42.6096 54.2462 42.5725 54.1615 42.5156C53.9533 42.7305 53.8374 43.0184 53.8386 43.3177C53.9011 43.3802 53.9636 43.4896 54.0522 43.5208ZM52.2136 76.0416C52.2294 76.0926 52.2641 76.1357 52.3106 76.1618C52.3571 76.188 52.4119 76.1953 52.4636 76.1823C52.5937 76.1536 52.715 76.0942 52.8174 76.0091C52.9198 75.9239 53.0003 75.8154 53.0522 75.6927C53.1251 75.5364 53.0886 75.4375 52.9324 75.2864C52.767 75.356 52.6178 75.459 52.4941 75.589C52.3704 75.7189 52.2749 75.873 52.2136 76.0416ZM52.2084 80.8958V80.9323C52.2553 81.0521 52.2761 81.2083 52.4584 81.2604C52.5154 81.2475 52.5664 81.2159 52.6033 81.1706C52.6401 81.1252 52.6606 81.0688 52.6615 81.0104C52.6669 80.9573 52.6557 80.9038 52.6296 80.8572C52.6035 80.8106 52.5638 80.7732 52.5157 80.75C52.4861 80.7377 52.4542 80.7318 52.4222 80.7326C52.3901 80.7334 52.3586 80.7409 52.3297 80.7546C52.3007 80.7684 52.275 80.788 52.2541 80.8124C52.2332 80.8367 52.2176 80.8651 52.2084 80.8958ZM52.6667 84.9531L52.724 84.9635L52.7397 84.9062L52.6824 84.8958L52.6667 84.9531ZM53.2709 68.3281C53.198 68.3281 53.1459 68.3802 53.1615 68.4739C53.3282 68.5989 53.3282 68.5989 53.474 68.4062C53.4126 68.3662 53.3434 68.3396 53.2709 68.3281ZM52.5053 67.4271L52.5313 67.401L52.547 67.4218L52.5209 67.4427L52.5053 67.4271ZM52.6355 60.6771L52.6563 60.6666L52.672 60.6875L52.6459 60.6979L52.6355 60.6771ZM60.4636 54.776V54.7031L60.4376 54.7656V54.8281L60.4636 54.776ZM63.6772 80.2083L63.8126 80.375C63.8542 80.1354 63.8126 80.1198 63.6772 80.2083ZM64.0157 69.0469H64.073V69.1094H64.0157V69.0469ZM64.3334 79.6458H64.3647V79.6979H64.3334V79.6458ZM61.1251 84.0052C61.1645 84.0481 61.2152 84.0791 61.2713 84.0948C61.3274 84.1104 61.3868 84.1101 61.4428 84.0937L61.4792 84.0364C61.4011 83.8906 61.3178 83.875 61.224 83.8906C61.1303 83.9062 61.1147 83.9218 61.1251 84.0052ZM64.6251 84.8125C64.698 84.5833 64.6615 84.5364 64.4272 84.5468C64.3334 84.7552 64.3855 84.8073 64.6251 84.8125ZM60.0834 43.0833L60.1095 43.0521L60.1355 43.0729L60.1095 43.1041L60.0834 43.0833ZM62.8855 56.9948C62.9167 57.1198 62.9758 57.158 63.0626 57.1094C63.1199 56.9635 63.1147 56.9531 63.0105 56.901L62.8855 56.9948ZM62.3751 83.901H62.4792V83.8541H62.3959L62.3751 83.901ZM61.8334 79.7656C61.6511 79.9687 61.4063 80.1041 61.4532 80.4323C61.5004 80.5497 61.5708 80.6565 61.6603 80.746C61.7498 80.8355 61.8566 80.9059 61.974 80.9531L62.4167 80.9166L62.724 80.4427C62.6474 80.1791 62.4953 79.9438 62.2865 79.7656H61.8334ZM66.1667 70.9531L66.172 70.9271L66.198 70.9323L66.1928 70.9583L66.1667 70.9531ZM65.7813 77.7604V77.7344L65.823 77.7396L65.8178 77.7656L65.7813 77.7604ZM51.4428 76.75C51.3074 76.7083 51.2032 76.6614 51.0886 76.6354C50.9895 76.6184 50.8875 76.6306 50.7951 76.6703C50.7026 76.71 50.6237 76.7757 50.5678 76.8594C50.4452 77.0964 50.4053 77.3676 50.4544 77.6299C50.5034 77.8922 50.6387 78.1306 50.8386 78.3073C50.9914 78.4184 51.1442 78.5208 51.297 78.6146C51.3645 78.6249 51.4336 78.6184 51.4981 78.5957C51.5626 78.573 51.6205 78.5347 51.6668 78.4844L51.8178 77.7239L51.7761 77.1406L51.4428 76.75ZM65.7709 77.0833C65.9428 77.1354 65.9428 77.1354 66.0417 76.9687L65.948 76.875C65.8195 76.8507 65.7605 76.9201 65.7709 77.0833ZM65.698 44.6302C65.7312 44.708 65.7904 44.7718 65.8654 44.8108C65.9405 44.8497 66.0268 44.8614 66.1095 44.8437C66.2657 44.6875 66.2657 44.6875 66.2188 44.4531C65.8959 44.3125 65.8334 44.3437 65.698 44.6302ZM64.698 70.4635L64.7188 70.4479L64.7345 70.4687L64.7136 70.4844L64.698 70.4635ZM64.1199 61.3125C64.0724 61.2909 64.0209 61.2797 63.9688 61.2797C63.9167 61.2797 63.8652 61.2909 63.8178 61.3125C63.609 61.6 63.4683 61.9313 63.4063 62.2812C63.573 62.9479 63.8699 63.1614 64.6511 63.2083C64.8613 63.0456 65.0188 62.8246 65.1043 62.5729C65.1547 62.4718 65.1809 62.3604 65.1809 62.2474C65.1809 62.1344 65.1547 62.023 65.1043 61.9219C65.0557 61.8388 65.0189 61.7494 64.9949 61.6562C64.7332 61.4765 64.4339 61.3589 64.1199 61.3125ZM64.8803 59.1979L64.9063 59.1823L64.8855 59.1614L64.8803 59.1979ZM65.3178 45.7448H65.3751V45.8125H65.3178V45.7448ZM65.5522 84.1875L65.4376 84.2396V84.5208C65.7084 84.5208 65.7188 84.5208 65.8022 84.3229C65.7854 84.274 65.7511 84.233 65.7059 84.208C65.6606 84.183 65.6077 84.1756 65.5574 84.1875H65.5522ZM57.349 58.9479C57.4584 58.8437 57.4688 58.776 57.3803 58.6823L57.224 58.7187L57.349 58.9479ZM60.9532 43.0521C60.7742 43.0762 60.5992 43.1234 60.4324 43.1927C60.3583 43.209 60.2919 43.2497 60.2437 43.3082C60.1956 43.3668 60.1685 43.4398 60.1668 43.5156C60.1507 43.7564 60.1682 43.9983 60.2188 44.2344C60.2999 44.3333 60.3998 44.4152 60.5127 44.4754C60.6255 44.5356 60.7492 44.5728 60.8766 44.5849C61.004 44.597 61.1324 44.5838 61.2546 44.5459C61.3769 44.5081 61.4904 44.4465 61.5886 44.3646L61.7188 44.2344V43.8854C61.7237 43.7807 61.7079 43.6761 61.6724 43.5775C61.6368 43.479 61.5821 43.3884 61.5115 43.311C61.4408 43.2336 61.3556 43.1709 61.2607 43.1265C61.1658 43.082 61.0579 43.0567 60.9532 43.0521ZM60.0938 69.151V69.0573L60.0313 69.1302L60.0938 69.151ZM60.2553 73.0625L60.2813 73.0416L60.2397 73.0364L60.2553 73.0625ZM56.9532 63.4896C56.69 63.5411 56.4568 63.6922 56.3022 63.9114C56.2782 64.0486 56.289 64.1896 56.3336 64.3215C56.3782 64.4535 56.4551 64.5721 56.5574 64.6666H56.8022V64.7396C56.8334 64.7396 56.8647 64.6979 56.8751 64.6771C56.8855 64.6562 56.9897 64.7083 57.047 64.6771C57.1987 64.5707 57.3078 64.4138 57.3545 64.2344C57.4013 64.055 57.3827 63.8648 57.3022 63.6979L56.9532 63.4896ZM60.7292 68.4114C60.5399 68.5243 60.3391 68.6168 60.1303 68.6875C60.0525 68.7106 59.9811 68.7516 59.922 68.8073C59.8818 68.8534 59.85 68.9063 59.8282 68.9635L60.1095 69.0521L60.4272 68.9218L60.8803 68.75C60.9319 68.735 60.9776 68.7045 61.0112 68.6625C61.0448 68.6206 61.0645 68.5692 61.0678 68.5156C61.0365 68.5156 61.0053 68.4375 60.9584 68.4114C60.9244 68.389 60.8846 68.3771 60.8438 68.3771C60.8031 68.3771 60.7633 68.389 60.7292 68.4114ZM57.7136 82.1094L57.8074 82.1562L57.8438 82.1094L57.7917 82.0416L57.7136 82.1094ZM59.6095 84.8073C59.7865 84.9062 59.7865 84.9062 59.8803 84.6666C59.797 84.6666 59.7345 84.625 59.6772 84.6666C59.6199 84.7083 59.5834 84.7239 59.6095 84.8073ZM59.349 83.9479L59.3699 83.9427L59.3803 83.9791H59.3542L59.349 83.9479ZM58.4011 83.6875L58.4167 83.6354L58.448 83.6458L58.4324 83.6979L58.4011 83.6875ZM59.599 66.5729L59.6459 66.5312L59.6876 66.5781L59.6355 66.6198L59.599 66.5729ZM61.9167 63.4739L61.922 63.4427L61.9532 63.4479L61.948 63.4791L61.9167 63.4739ZM61.7084 66.2344L61.7188 66.1979H61.7449L61.7345 66.2396L61.7084 66.2344ZM61.9584 57.2239C61.8959 57.276 61.8959 57.3403 61.9584 57.4166C62.0261 57.4948 62.1772 57.4166 62.2449 57.2552C62.2311 57.2306 62.2116 57.2097 62.1881 57.1942C62.1646 57.1786 62.1377 57.1689 62.1097 57.1659C62.0817 57.1628 62.0533 57.1665 62.027 57.1766C62.0007 57.1867 61.9772 57.2029 61.9584 57.2239ZM62.0157 53.1771C62.1021 53.1114 62.1659 53.0203 62.198 52.9166L62.0157 52.276C61.8438 52.2291 61.7084 52.0469 61.4949 52.0885C61.4532 52.217 61.4081 52.3385 61.3595 52.4531C61.3095 52.56 61.2908 52.6788 61.3056 52.7959C61.3203 52.9129 61.3679 53.0234 61.4428 53.1146C61.4682 53.1576 61.5023 53.195 61.5428 53.2243C61.5833 53.2537 61.6294 53.2743 61.6783 53.2851C61.7271 53.2958 61.7777 53.2964 61.8268 53.2868C61.8759 53.2772 61.9224 53.2575 61.9636 53.2291L62.0157 53.1771ZM62.4011 70.9843C62.5331 71.0225 62.6042 70.9826 62.6147 70.8646C62.4376 70.7812 62.4376 70.7812 62.4011 70.9843ZM87.8595 71.4271L87.8647 71.3958L87.8959 71.401V71.4323L87.8595 71.4271ZM88.6199 81.2031C88.6824 81.2708 88.7345 81.3541 88.8438 81.3437C88.9532 81.3333 88.9428 81.2604 88.8751 81.1771H88.7813L88.6199 81.2031ZM84.5105 83.0364C84.5855 83.1988 84.703 83.3378 84.8507 83.4387C84.9983 83.5395 85.1705 83.5985 85.349 83.6093C85.4528 83.5216 85.535 83.4111 85.5892 83.2864C85.6433 83.1618 85.6681 83.0264 85.6615 82.8906C85.5678 82.7291 85.5209 82.5364 85.3074 82.4583C85.1284 82.4486 84.9515 82.5008 84.8064 82.6061C84.6613 82.7113 84.5568 82.8633 84.5105 83.0364ZM89.0678 68.4166C89.1146 68.3935 89.1549 68.3589 89.1849 68.3161C89.2149 68.2734 89.2338 68.2238 89.2397 68.1718C89.2508 68.1041 89.2485 68.0348 89.2327 67.968C89.217 67.9012 89.1882 67.8381 89.1481 67.7825C89.1079 67.7268 89.0571 67.6796 88.9986 67.6437C88.9402 67.6077 88.8752 67.5837 88.8074 67.5729H88.7136L88.4636 67.6094C88.3833 67.7364 88.3442 67.8851 88.3517 68.0352C88.3591 68.1853 88.4128 68.3295 88.5053 68.4479C88.6901 68.5078 88.8907 68.4967 89.0678 68.4166ZM88.5209 74.526C88.4723 74.5649 88.4365 74.6174 88.4179 74.6768C88.3994 74.7362 88.399 74.7997 88.4167 74.8594C88.4758 74.9635 88.5522 74.9913 88.6459 74.9427C88.672 74.6354 88.672 74.6354 88.5209 74.526ZM87.4949 86.3698L87.547 86.4375L87.5782 86.3906L87.5417 86.3437L87.4949 86.3698ZM84.9584 76.3281L84.9011 76.1875L84.797 76.1041C84.7648 76.0934 84.7301 76.0934 84.698 76.1041C84.669 76.1022 84.6399 76.1068 84.6129 76.1177C84.5859 76.1286 84.5618 76.1454 84.5422 76.1669C84.5227 76.1885 84.5083 76.2142 84.5001 76.2421C84.4919 76.27 84.4901 76.2994 84.4949 76.3281C84.6928 76.5312 84.7397 76.5625 84.9584 76.3281ZM88.1563 66.4896L88.0001 66.6666C88.2501 66.6666 88.2553 66.6354 88.1563 66.4896ZM88.4011 87.875C88.4011 87.875 88.4584 87.9166 88.4793 87.9114C88.5001 87.9062 88.5157 87.8646 88.547 87.8333L88.448 87.7864L88.4011 87.875ZM88.0001 80.3021L88.0522 80.5312C88.0964 80.5644 88.1486 80.5852 88.2035 80.5916C88.2584 80.5981 88.314 80.5898 88.3647 80.5677C88.4272 80.375 88.4115 80.3125 88.2865 80.2448C88.1615 80.1823 88.0661 80.2014 88.0001 80.3021ZM88.4272 81.1198L88.6147 81.2031C88.573 81.1458 88.5678 81.0156 88.4272 81.1198ZM89.198 81.0521L89.2032 81.0208L89.2345 81.026L89.2292 81.0573L89.198 81.0521ZM84.9688 62.6406C84.9835 62.6572 85.0015 62.6705 85.0217 62.6797C85.0419 62.6888 85.0638 62.6935 85.086 62.6935C85.1082 62.6935 85.1301 62.6888 85.1503 62.6797C85.1705 62.6705 85.1885 62.6572 85.2032 62.6406V62.5312L85.0938 62.4635C84.9949 62.4635 84.9324 62.5 84.9688 62.6406ZM85.1095 77.9219L85.3126 78.3906C85.493 78.4937 85.6879 78.5692 85.8907 78.6146C85.9941 78.656 86.1081 78.6632 86.2159 78.6351C86.3237 78.6069 86.4197 78.545 86.4897 78.4583L86.8595 78.1093C86.8773 77.9819 86.907 77.8563 86.948 77.7344C86.948 77.6771 87.0365 77.6458 87.0938 77.5989C87.2113 77.7602 87.28 77.9518 87.2917 78.151L87.1251 78.276C87.0383 78.3316 86.9532 78.3906 86.8699 78.4531C86.816 78.4996 86.7769 78.5609 86.7575 78.6294C86.7381 78.6979 86.7391 78.7706 86.7605 78.8385L86.9167 79.1198C86.8681 79.1719 86.8282 79.2205 86.797 79.2656C86.7513 79.3214 86.7263 79.3914 86.7263 79.4635C86.7263 79.5357 86.7513 79.6056 86.797 79.6614L86.8751 79.7187H87.1355C87.2449 79.8958 87.0574 80.0208 87.1043 80.1823C87.1162 80.2181 87.1407 80.2484 87.1733 80.2675C87.2058 80.2867 87.2442 80.2934 87.2813 80.2864H87.3126L87.4376 80.0208L87.5365 79.9844L88.1511 79.9375C88.3003 79.9044 88.4564 79.9227 88.5938 79.9896C88.6273 80.0109 88.6661 80.0222 88.7058 80.0222C88.7455 80.0222 88.7843 80.0109 88.8178 79.9896C88.9168 79.8854 88.8647 79.7396 88.8959 79.5989C89.0283 79.396 89.0989 79.159 89.099 78.9166C89.1277 78.8002 89.1309 78.679 89.1084 78.5613C89.0859 78.4435 89.0383 78.332 88.9688 78.2343L88.8386 78.0729L88.9688 77.7708C88.9519 77.7145 88.9195 77.6642 88.8753 77.6255C88.8311 77.5868 88.7769 77.5613 88.7188 77.5521C88.6627 77.535 88.6099 77.5086 88.5626 77.4739L88.6563 77.2239C88.6902 77.1549 88.7014 77.0769 88.6883 77.0012C88.6752 76.9254 88.6385 76.8557 88.5834 76.8021L88.323 76.5521L88.2292 76.1562H88.4376C88.6303 76.1562 88.6772 76.0677 88.6147 75.8281L88.3022 75.7396C88.1459 75.7396 88.0417 75.8333 87.9063 75.7396C87.9746 75.4668 88.0743 75.2029 88.2032 74.9531L88.0209 74.8594C87.9168 74.9531 87.8161 75.0364 87.7188 75.1093C87.6828 75.145 87.6341 75.1649 87.5834 75.1649C87.5327 75.1649 87.4841 75.145 87.448 75.1093V74.8229L87.2136 74.7604L87.0834 74.526C86.8959 74.5625 87.0261 74.7239 86.9011 74.8385L86.7501 74.9219C86.7501 74.8333 86.7084 74.7343 86.5782 74.7448C86.4254 74.8837 86.2761 75.0278 86.1303 75.1771C86.059 75.2319 86.0106 75.3112 85.9942 75.3997C85.9779 75.4881 85.9948 75.5795 86.0417 75.6562L86.3022 76.4166C86.5853 76.6342 86.8454 76.8803 87.0782 77.151L87.0261 77.3854C86.9706 77.3646 86.9341 77.3455 86.9167 77.3281C86.7767 77.1727 86.6608 76.9972 86.573 76.8073C86.573 76.7552 86.4949 76.7187 86.4584 76.6771L86.2032 76.7083L86.0209 76.6146L85.4376 76.7864C85.2985 76.9133 85.1899 77.07 85.1199 77.2448C85.0675 77.3496 85.0393 77.4649 85.0375 77.5821C85.0357 77.6993 85.0603 77.8154 85.1095 77.9219ZM84.7501 58.7239C84.7553 58.6557 84.7354 58.5879 84.6942 58.5332C84.6529 58.4785 84.5932 58.4408 84.5261 58.4271C84.4949 58.4844 84.4376 58.5312 84.4324 58.5885C84.4165 58.6564 84.4238 58.7275 84.4531 58.7908C84.4823 58.854 84.5319 58.9056 84.5938 58.9375C84.7292 58.8541 84.7553 58.8125 84.7501 58.7239ZM84.7084 62.2656C84.769 62.2902 84.8345 62.3002 84.8996 62.2947C84.9648 62.2893 85.0277 62.2686 85.0834 62.2344L85.172 62.0052C85.073 61.8021 84.9584 61.6666 84.7397 61.7396C84.5417 62.026 84.5417 62.026 84.7084 62.2656ZM86.3907 69.0052H86.7084L87.0834 68.9739C87.1463 68.9646 87.2063 68.9409 87.2586 68.9048C87.311 68.8687 87.3544 68.8211 87.3855 68.7656C87.4945 68.614 87.5607 68.4358 87.5771 68.2498C87.5936 68.0638 87.5598 67.8768 87.4793 67.7083L87.2605 67.3802L86.7918 67.2708L86.3542 67.375L85.8855 67.8489L85.9532 68.2083C85.9612 68.3656 86.0047 68.519 86.0804 68.657C86.1562 68.795 86.2623 68.9141 86.3907 69.0052ZM65.9115 41.2708L65.9168 41.2396L65.948 41.2448V41.276L65.9115 41.2708ZM86.3803 63.9687C86.3803 63.9687 86.3386 63.9166 86.3074 63.9114C86.2995 63.909 86.2912 63.9082 86.2831 63.909C86.2749 63.9098 86.2669 63.9122 86.2597 63.916C86.2524 63.9199 86.246 63.9252 86.2408 63.9315C86.2355 63.9379 86.2316 63.9452 86.2292 63.9531V63.9896C86.2292 64.026 86.2709 64.0521 86.323 64.1146C86.3493 64.0691 86.3687 64.0199 86.3803 63.9687ZM84.5261 74.7656L84.4167 74.6979C84.1824 74.8541 84.1772 74.8802 84.2917 75.0625C84.4324 75.0364 84.5209 74.9687 84.5261 74.7656ZM88.0626 65.1041C88.1511 65.0208 88.2032 64.9166 88.1095 64.8073C88.0157 64.6979 87.948 64.7396 87.8595 64.8489C87.8959 65.0625 87.8959 65.0625 88.0626 65.1041ZM86.9532 62.1458H86.8803V62.2448L86.9532 62.1979V62.1458ZM87.6095 74.4791L87.6615 74.3541C87.6615 74.3541 87.6147 74.3021 87.5886 74.3021C87.5693 74.3051 87.5512 74.3136 87.5365 74.3265C87.5217 74.3394 87.5109 74.3562 87.5053 74.375V74.4166C87.5053 74.4166 87.5626 74.4271 87.6095 74.4791ZM87.9376 73.625L88.1824 73.375L88.1147 73.2604L87.7449 73.401C87.7345 73.5833 87.7345 73.5833 87.9376 73.625ZM90.3803 77.3854H90.4115V77.4166H90.3803V77.3854ZM95.3386 85.2656C95.4085 85.1815 95.4468 85.0755 95.4468 84.9661C95.4468 84.8567 95.4085 84.7508 95.3386 84.6666C95.2181 84.604 95.078 84.591 94.948 84.6302C94.8916 84.6403 94.8401 84.6688 94.8014 84.7111C94.7628 84.7535 94.7393 84.8074 94.7345 84.8646V85.1614C94.9115 85.4427 95.1199 85.3646 95.3386 85.2656ZM96.5886 86.5364L96.474 86.7448C96.6876 86.7448 96.7188 86.7448 96.7032 86.6041L96.5886 86.5364ZM85.4949 47.526L85.4792 47.5312L85.4949 47.5468V47.526ZM94.2761 78.75C94.1511 78.75 94.0365 78.75 93.9949 78.9583C94.2501 78.9739 94.2501 78.9583 94.2761 78.75ZM84.7084 85.3646C84.6547 85.4016 84.6168 85.4575 84.6023 85.5212C84.5879 85.5849 84.5979 85.6516 84.6303 85.7083C84.6438 85.7612 84.6776 85.8067 84.7244 85.835C84.7711 85.8632 84.8271 85.872 84.8803 85.8594L84.9584 85.8229C85.0065 85.7902 85.0487 85.7497 85.0834 85.7031C85.0775 85.63 85.0562 85.559 85.0209 85.4948C84.9376 85.3489 84.8126 85.3021 84.7084 85.3646ZM30.7397 59.4062L30.7553 59.3854L30.7761 59.4062L30.7553 59.4219L30.7397 59.4062ZM24.9167 57.5781L24.8647 57.5469L24.823 57.5937L24.8959 57.6354L24.9167 57.5781ZM90.2188 79.5104C90.0886 79.5104 89.9793 79.5104 89.9272 79.6718C90.0782 79.8073 90.1355 79.8229 90.2188 79.7552C90.3022 79.6875 90.2761 79.651 90.2188 79.5104ZM90.6876 70.8906C90.6276 70.8286 90.5476 70.7899 90.4618 70.7813C90.376 70.7727 90.2899 70.7948 90.2188 70.8437C90.2715 70.8995 90.337 70.9414 90.4097 70.9659C90.4823 70.9904 90.5598 70.9968 90.6355 70.9843L90.6876 70.8906ZM90.6355 72.5208C90.6355 72.5208 90.5782 72.4739 90.5574 72.4791C90.5448 72.4872 90.5341 72.4979 90.526 72.5105C90.5179 72.5231 90.5126 72.5373 90.5105 72.5521L90.6147 72.6302L90.6355 72.5208ZM84.5313 86.3177H84.573V86.3489H84.5313V86.3177ZM83.4949 76.4271V76.4583C83.7375 76.5371 84.0007 76.5242 84.2345 76.4219C84.2657 76.4219 84.2761 76.3594 84.323 76.2864C84.0463 76.2685 83.7685 76.2949 83.5001 76.3646L83.4949 76.4271ZM91.5782 76.3177C91.5192 76.1649 91.4272 76.1041 91.3022 76.1354C91.2453 76.1479 91.1955 76.1821 91.1634 76.2307C91.1313 76.2794 91.1194 76.3386 91.1303 76.3958C91.3178 76.5625 91.4376 76.5625 91.5782 76.3177ZM92.1668 75.5833C92.1802 75.6026 92.1981 75.6184 92.2189 75.6294C92.2398 75.6403 92.263 75.646 92.2865 75.646C92.3101 75.646 92.3333 75.6403 92.3541 75.6294C92.375 75.6184 92.3929 75.6026 92.4063 75.5833C92.4949 75.4948 92.4063 75.4062 92.2813 75.4062C92.1563 75.4062 92.1668 75.4219 92.1668 75.5833ZM93.4376 87.2708C93.4128 87.207 93.3679 87.1531 93.3095 87.1174C93.2512 87.0816 93.1827 87.066 93.1147 87.0729C92.9792 87.0729 92.8438 87.0833 92.7084 87.1041C92.6615 87.1041 92.6147 87.1041 92.6303 87.2083C92.7899 87.2843 92.9533 87.3521 93.1199 87.4114C93.1499 87.4239 93.1821 87.4302 93.2146 87.4298C93.2471 87.4295 93.2792 87.4225 93.3089 87.4093C93.3386 87.3962 93.3654 87.3771 93.3875 87.3533C93.4096 87.3295 93.4267 87.3014 93.4376 87.2708ZM90.5209 77.0521C90.5516 77.0864 90.5927 77.1096 90.6379 77.1181C90.6832 77.1266 90.7299 77.1198 90.7709 77.0989C90.8108 77.0786 90.8459 77.05 90.8737 77.0149C90.9016 76.9799 90.9216 76.9393 90.9324 76.8958C90.9483 76.8556 90.9514 76.8115 90.9411 76.7695C90.9308 76.7275 90.9078 76.6897 90.8751 76.6614C90.8103 76.6365 90.7387 76.636 90.6735 76.66C90.6084 76.6839 90.5542 76.7307 90.5209 76.7916C90.4913 76.8286 90.4752 76.8745 90.4752 76.9219C90.4752 76.9692 90.4913 77.0151 90.5209 77.0521ZM92.3178 72.4271C92.2084 72.4271 92.1459 72.4271 92.1407 72.5989C92.2292 72.6614 92.3022 72.6979 92.3751 72.5573L92.3178 72.4271ZM92.6928 75.1771L92.698 75.1458H92.724L92.7188 75.1823L92.6928 75.1771ZM34.3907 82.0104C34.4903 81.9447 34.5643 81.8467 34.6003 81.7329C34.6364 81.6192 34.6322 81.4965 34.5886 81.3854C34.5266 81.3279 34.4485 81.2906 34.3648 81.2785C34.2811 81.2664 34.1956 81.28 34.1199 81.3177C34.0473 81.411 33.9829 81.5103 33.9272 81.6146C33.8999 81.6756 33.8971 81.7448 33.9194 81.8078C33.9417 81.8708 33.9874 81.9228 34.047 81.9531C34.0967 81.9869 34.1532 82.0095 34.2126 82.0194C34.2719 82.0293 34.3327 82.0262 34.3907 82.0104ZM44.8595 64.2604L44.8699 64.2344L44.922 64.2552L44.9063 64.2812L44.8595 64.2604ZM45.3438 86.0468L45.3959 86.1041L45.4532 86.0364L45.4167 85.9948L45.3438 86.0468ZM48.9949 59.8958C49.0643 59.8507 49.0643 59.7691 48.9949 59.651C48.915 59.6675 48.8408 59.7045 48.7796 59.7583C48.7184 59.8122 48.6723 59.8812 48.6459 59.9583C48.7046 59.9784 48.7674 59.9833 48.8285 59.9723C48.8896 59.9614 48.9468 59.9351 48.9949 59.8958ZM47.823 54.1198L47.573 54.3021C47.452 54.3907 47.3705 54.5233 47.3462 54.6713C47.3218 54.8193 47.3565 54.971 47.4428 55.0937V55.1198C47.4897 55.1875 47.5574 55.2396 47.599 55.3073C47.6789 55.4217 47.7808 55.5189 47.8989 55.5932C48.017 55.6674 48.1488 55.7172 48.2865 55.7396C48.4046 55.5903 48.5227 55.4271 48.6407 55.25C48.6042 54.9583 48.8595 54.7291 48.7918 54.4062C48.7397 54.371 48.6803 54.348 48.618 54.339C48.5558 54.33 48.4923 54.3351 48.4324 54.3541L47.823 54.1198ZM44.9532 60.3021C44.9248 60.2933 44.895 60.2902 44.8654 60.2931C44.8358 60.2959 44.8071 60.3046 44.7809 60.3187C44.7548 60.3327 44.7317 60.3519 44.7129 60.3749C44.6942 60.398 44.6803 60.4246 44.672 60.4531C44.6578 60.4874 44.6563 60.5256 44.6677 60.561C44.6792 60.5963 44.7028 60.6263 44.7345 60.6458C44.754 60.6671 44.7777 60.6841 44.8042 60.6958C44.8306 60.7074 44.8592 60.7134 44.8881 60.7134C44.917 60.7134 44.9456 60.7074 44.972 60.6958C44.9985 60.6841 45.0222 60.6671 45.0417 60.6458C45.0636 60.5863 45.0668 60.5215 45.051 60.4601C45.0352 60.3987 45.0011 60.3436 44.9532 60.3021ZM42.6251 77.7604L42.5678 77.6823L42.4897 77.75L42.5834 77.8021L42.6251 77.7604ZM42.7397 79.4531C42.6511 79.4531 42.5938 79.5208 42.6459 79.6406C42.6842 79.6616 42.7272 79.6726 42.7709 79.6726C42.8146 79.6726 42.8576 79.6616 42.8959 79.6406C42.9114 79.642 42.9269 79.6393 42.941 79.6328C42.9551 79.6263 42.9672 79.6163 42.9762 79.6036C42.9852 79.5909 42.9906 79.5762 42.9921 79.5607C42.9935 79.5453 42.9909 79.5297 42.9845 79.5156C42.9523 79.4853 42.913 79.4636 42.8701 79.4527C42.8273 79.4417 42.7824 79.4419 42.7397 79.4531ZM42.8959 82.4896L42.9115 82.4791L42.9324 82.5052L42.9063 82.5156L42.8959 82.4896ZM44.099 67.3385L44.1147 67.3229L44.1563 67.3541L44.1407 67.375L44.099 67.3385ZM43.4845 70.4219V70.3906H43.5209L43.5157 70.4271L43.4845 70.4219ZM49.4532 69.5833L49.4584 69.5573L49.4949 69.5625L49.4897 69.5885L49.4532 69.5833ZM50.0157 75.75V75.7291L49.9949 75.7396L50.0157 75.75ZM50.3178 68.5677L50.2605 68.5573L50.2449 68.6146L50.3022 68.625L50.3178 68.5677ZM50.2084 81.401C50.1646 81.4397 50.1276 81.4855 50.099 81.5364C50.1407 81.5833 50.1667 81.6406 50.2032 81.6458C50.4376 81.7065 50.6809 81.7259 50.922 81.7031C50.9425 81.7038 50.9629 81.7004 50.9822 81.6932C51.0014 81.686 51.019 81.6751 51.034 81.661C51.049 81.647 51.0611 81.6302 51.0696 81.6115C51.078 81.5928 51.0827 81.5726 51.0834 81.5521C50.9588 81.4277 50.7907 81.3567 50.6147 81.3541C50.4778 81.3238 50.3347 81.3403 50.2084 81.401ZM50.9428 80.1146L50.8334 79.9948C50.7377 80.0163 50.6473 80.0569 50.5677 80.1142C50.488 80.1715 50.4207 80.2442 50.3699 80.3281L50.4584 80.4739C50.6355 80.3698 50.8647 80.3698 50.9428 80.1146ZM50.1095 65.6094H50.1355L50.1251 65.5885L50.1095 65.6094ZM48.7918 68.4687L48.4428 68.0468C48.3622 68.0057 48.2729 67.9842 48.1824 67.9842C48.0918 67.9842 48.0026 68.0057 47.922 68.0468C47.6909 68.1457 47.4988 68.3177 47.3751 68.5364C47.4443 68.7574 47.5617 68.9602 47.7188 69.1302C47.7704 69.2095 47.8448 69.2713 47.9322 69.3076C48.0195 69.3438 48.1158 69.3528 48.2084 69.3333C48.3951 69.2864 48.5578 69.1722 48.6655 69.0126C48.7731 68.8531 48.8181 68.6594 48.7918 68.4687ZM49.2292 76.4219L49.1407 76.4687L49.0053 76.5312C48.9463 76.4132 48.8872 76.3073 48.8282 76.2135C48.7992 76.1666 48.7527 76.1331 48.699 76.1204C48.6453 76.1077 48.5887 76.1169 48.5417 76.1458C48.5142 76.1628 48.491 76.186 48.474 76.2135C48.4168 76.2969 48.3855 76.401 48.3282 76.4896C48.2733 76.574 48.2441 76.6726 48.2441 76.7734C48.2441 76.8742 48.2733 76.9728 48.3282 77.0573C48.3888 77.1476 48.4586 77.2314 48.5365 77.3073H48.7813C48.9504 77.5639 49.1913 77.765 49.474 77.8854C49.7136 77.8854 49.7449 77.6718 49.8386 77.5208V77.1562C49.8422 76.981 49.7827 76.8104 49.6707 76.6755C49.5588 76.5406 49.4021 76.4506 49.2292 76.4219ZM50.2761 72.1979C50.3257 72.1233 50.3437 72.032 50.3261 71.9441C50.3085 71.8563 50.2569 71.779 50.1824 71.7291L50.0522 71.6771C50.0054 71.6693 49.9575 71.6743 49.9134 71.6918C49.8694 71.7092 49.8309 71.7383 49.8022 71.776C49.7808 71.8359 49.7735 71.8999 49.7807 71.9631C49.7879 72.0263 49.8095 72.087 49.8438 72.1406C49.8584 72.1719 49.879 72.1999 49.9044 72.2232C49.9299 72.2464 49.9597 72.2644 49.9922 72.276C50.0246 72.2877 50.0591 72.2927 50.0935 72.2909C50.128 72.2892 50.1617 72.2805 50.1928 72.2656L50.2761 72.1979ZM49.547 80.4114V80.3698H49.573V80.4114H49.547ZM83.5365 59.7969L83.4584 59.7448C83.4272 59.7291 83.4167 59.8021 83.422 59.8281C83.4272 59.8541 83.4688 59.8646 83.5053 59.8958L83.5365 59.7969ZM42.7188 85.3177C42.6428 85.3819 42.5714 85.4516 42.5053 85.526C42.5044 85.6465 42.5383 85.7647 42.603 85.8663C42.6677 85.968 42.7603 86.0487 42.8699 86.0989L43.073 86.0416C43.1236 86.0146 43.1693 85.9794 43.2084 85.9375C43.2585 85.8919 43.2991 85.8371 43.3282 85.776C43.35 85.6908 43.3475 85.6012 43.3207 85.5174C43.294 85.4335 43.2443 85.3589 43.1772 85.3021C43.1105 85.2518 43.0287 85.2259 42.9452 85.2288C42.8618 85.2316 42.7819 85.263 42.7188 85.3177ZM49.5574 63.6146L49.4584 63.5416L49.4272 63.5885L49.4793 63.6614L49.5574 63.6146ZM30.7553 84.8958C30.7413 84.9628 30.7542 85.0325 30.7913 85.09C30.8283 85.1475 30.8865 85.1881 30.9532 85.2031C31.0019 85.1932 31.0454 85.1663 31.076 85.1271C31.1065 85.088 31.1221 85.0392 31.1199 84.9896C31.1184 84.9439 31.1019 84.9 31.073 84.8646C31.0036 84.7465 30.8977 84.7569 30.7553 84.8958ZM33.4688 82.1927C33.452 82.1881 33.4345 82.187 33.4173 82.1896C33.4 82.1922 33.3835 82.1983 33.3688 82.2076C33.3541 82.2169 33.3415 82.2292 33.3318 82.2437C33.3221 82.2582 33.3156 82.2745 33.3126 82.2916V82.3229C33.3126 82.401 33.2761 82.4896 33.3751 82.5364C33.5365 82.4271 33.5365 82.4271 33.4688 82.1927ZM51.3126 81.6875L51.4636 81.6562L51.4272 81.4844C51.2362 81.533 51.198 81.6007 51.3126 81.6875ZM34.3542 82.6927V82.6614C34.3678 82.6539 34.3795 82.6435 34.3885 82.6309C34.3975 82.6182 34.4036 82.6038 34.4063 82.5885L34.3542 82.5312L34.297 82.5833C34.286 82.4925 34.2514 82.4062 34.1965 82.3331C34.1417 82.26 34.0685 82.2026 33.9845 82.1666C33.9354 82.1518 33.883 82.1518 33.8338 82.1666C33.7847 82.1814 33.7411 82.2104 33.7084 82.25C33.6279 82.3641 33.5631 82.4884 33.5157 82.6198C33.4928 82.6945 33.4914 82.7742 33.5117 82.8498C33.5319 82.9253 33.573 82.9936 33.6303 83.0468L33.9584 83.3333C34.0166 83.3422 34.0762 83.331 34.1272 83.3017C34.1783 83.2724 34.218 83.2266 34.2397 83.1718C34.3224 83.0262 34.3622 82.86 34.3542 82.6927ZM27.7657 86.0885L27.797 86.0625L27.8178 86.0833L27.7865 86.1094L27.7657 86.0885ZM83.2917 76.4479L83.2709 76.4635L83.2917 76.4948V76.4479ZM27.5313 81.8594C27.53 81.8681 27.5309 81.8771 27.5341 81.8855C27.5372 81.8938 27.5424 81.9012 27.5492 81.9069C27.556 81.9126 27.5641 81.9166 27.5728 81.9183C27.5816 81.92 27.5906 81.9194 27.599 81.9166H27.6303L27.672 81.8281C27.6303 81.8281 27.599 81.7916 27.573 81.7968C27.5518 81.8118 27.537 81.8341 27.5313 81.8594ZM28.8334 86.5416L28.849 86.5104L28.8751 86.526L28.8595 86.5573L28.8334 86.5416ZM28.948 85.375L28.9688 85.3593L28.9845 85.3802L28.9636 85.3958L28.948 85.375ZM41.8595 84.4844L41.9167 84.5468L41.9636 84.4896L41.8959 84.4375L41.8595 84.4844ZM34.1251 84.5677L34.2813 84.7396C34.5022 84.5462 34.6797 84.3084 34.8022 84.0416C34.5522 84.0989 34.4428 84.3541 34.2345 84.4635C34.1931 84.4927 34.1563 84.5278 34.1251 84.5677ZM39.099 83.6198V83.7812L39.2761 83.75C39.2761 83.6146 39.2761 83.5573 39.1667 83.5573L39.099 83.6198ZM41.0678 87.7187L41.1199 87.7552L41.1615 87.7135L41.1303 87.6562L41.0678 87.7187ZM41.724 72.3958C41.6251 72.2031 41.599 72.1771 41.5157 72.1614C41.4706 72.1555 41.4248 72.1645 41.3853 72.1871C41.3458 72.2097 41.3148 72.2446 41.297 72.2864C41.2839 72.332 41.2891 72.3809 41.3114 72.4227C41.3338 72.4645 41.3716 72.496 41.4167 72.5104C41.4443 72.5242 41.4743 72.5322 41.505 72.5338C41.5358 72.5355 41.5665 72.5308 41.5953 72.52C41.6242 72.5093 41.6505 72.4927 41.6726 72.4713C41.6948 72.45 41.7123 72.4242 41.724 72.3958ZM41.3178 85.9896C41.2204 85.8941 41.0895 85.8407 40.9532 85.8407C40.8169 85.8407 40.686 85.8941 40.5886 85.9896L40.3751 86.1562C40.2657 86.4479 40.1615 86.7187 40.3751 86.9896L40.6459 87.1875C40.724 87.3646 40.7761 87.5833 41.0938 87.5677L41.6824 86.9479C41.7189 86.9078 41.7444 86.8588 41.7563 86.8058C41.7681 86.7529 41.766 86.6977 41.7501 86.6458L41.6459 86.2239C41.5209 86.1475 41.4115 86.0694 41.3178 85.9896ZM38.4272 87.5885L38.4584 87.5781L38.474 87.6146L38.4428 87.625L38.4272 87.5885ZM36.7657 86.8073C36.7657 86.8437 36.823 86.8437 36.849 86.8698L36.8959 86.9271C36.9324 86.9271 36.9584 86.9896 37.0001 87.0052C37.0588 87.0318 37.1257 87.0341 37.1862 87.0117C37.2466 86.9892 37.2958 86.9439 37.323 86.8854C37.3433 86.8431 37.3539 86.7969 37.3539 86.75C37.3539 86.7031 37.3433 86.6568 37.323 86.6146C37.2624 86.5731 37.192 86.5484 37.1189 86.5429C37.0457 86.5374 36.9724 86.5514 36.9063 86.5833C36.865 86.6047 36.8302 86.6367 36.8055 86.6761C36.7807 86.7155 36.767 86.7608 36.7657 86.8073ZM36.3334 86.2552H36.4324V86.2031L36.3907 86.1614L36.3334 86.2552ZM37.7501 84.8958H37.8959V84.7239C37.8959 84.6771 37.797 84.6562 37.7449 84.625C37.6824 84.7396 37.6824 84.7396 37.7501 84.8958ZM36.3959 83.6198C36.4203 83.6487 36.4543 83.6677 36.4916 83.6735C36.529 83.6792 36.5671 83.6713 36.599 83.651L36.6303 83.6198C36.6554 83.5963 36.6721 83.5652 36.6777 83.5313C36.6834 83.4974 36.6777 83.4626 36.6615 83.4323C36.649 83.3994 36.6257 83.3718 36.5954 83.3538C36.5652 83.3359 36.5297 83.3286 36.4949 83.3333C36.469 83.345 36.4458 83.3618 36.4267 83.3828C36.4075 83.4037 36.3929 83.4284 36.3836 83.4552C36.3743 83.482 36.3707 83.5105 36.3728 83.5388C36.3749 83.5671 36.3828 83.5946 36.3959 83.6198ZM35.8334 82.2916C35.6772 82.6302 35.6876 82.6979 35.922 82.875C35.9859 82.8847 36.0513 82.8736 36.1085 82.8434C36.1656 82.8131 36.2116 82.7653 36.2396 82.707C36.2676 82.6487 36.2761 82.583 36.264 82.5194C36.2518 82.4559 36.2195 82.398 36.172 82.3541C36.125 82.3166 36.0696 82.2913 36.0105 82.2804C35.9515 82.2695 35.8906 82.2734 35.8334 82.2916ZM37.7084 86.1146H37.7501V86.1458H37.7084V86.1146ZM36.3126 87.2135L36.3647 87.2396L36.3803 87.1875L36.3282 87.1614L36.3126 87.2135ZM50.2709 55.4948C50.3909 55.7483 50.5694 55.9696 50.7917 56.1406C50.9375 56.2215 51.0694 56.3253 51.1824 56.4479C51.3317 56.6076 51.481 56.7812 51.6303 56.9687C51.8647 57.0625 52.0365 56.8489 52.2709 56.8437C52.3536 56.9663 52.4716 57.0608 52.6093 57.1148C52.747 57.1687 52.8978 57.1796 53.0418 57.1458C53.1158 57.0997 53.1755 57.0338 53.2141 56.9556C53.2528 56.8774 53.2688 56.7899 53.2605 56.7031C53.2558 56.5954 53.2288 56.4898 53.1813 56.393C53.1338 56.2962 53.0668 56.2102 52.9845 56.1406H52.4636C52.2553 56.0521 52.3386 55.8333 52.2188 55.6875C52.099 55.5416 51.948 55.6875 51.797 55.6146L51.7657 55.5208C51.7753 55.396 51.7471 55.2711 51.6849 55.1625C51.6227 55.0538 51.5293 54.9664 51.4167 54.9114C51.2476 54.8238 51.0737 54.7456 50.8959 54.6771L50.8126 54.6406V54.375C50.6042 54.3177 50.6042 54.3177 50.5053 54.4896L50.672 54.7708L50.4272 55.0416L50.2709 55.4948ZM51.9115 52.2344L51.9272 52.2135L51.974 52.2396L51.9584 52.2604L51.9115 52.2344ZM52.797 42.7083C52.9275 42.7513 53.0697 42.7409 53.1927 42.6794C53.3156 42.618 53.4092 42.5104 53.4532 42.3802V42.3073C53.4532 42.1927 53.4845 42.0729 53.4897 41.9583C53.4011 41.6614 53.1355 41.6302 52.9688 41.4375L52.3386 41.9583L52.4272 42.2656C52.4487 42.3637 52.4936 42.4551 52.5579 42.5322C52.6223 42.6092 52.7043 42.6696 52.797 42.7083ZM56.1251 42.9323L55.9584 42.8646H55.7813C55.6303 42.9687 55.5105 43.0573 55.4897 43.2343C55.547 43.4218 55.6251 43.6041 55.8438 43.6146C56.0626 43.625 56.1772 43.4948 56.2345 43.2812C56.2299 43.2237 56.2158 43.1674 56.1928 43.1146L56.1251 42.9323ZM53.4636 50.9114C53.5321 50.9167 53.601 50.9084 53.6662 50.8869C53.7315 50.8655 53.7918 50.8313 53.8438 50.7864C53.9061 50.7191 53.9406 50.6307 53.9406 50.539C53.9406 50.4473 53.9061 50.359 53.8438 50.2916V50.2656C53.8091 50.2216 53.7658 50.1851 53.7165 50.1583C53.6673 50.1314 53.6132 50.1148 53.5574 50.1094L53.2501 50.2396C53.195 50.3579 53.1863 50.4927 53.2259 50.6171C53.2654 50.7416 53.3503 50.8466 53.4636 50.9114ZM45.3022 51.6979L45.3178 51.6771L45.3438 51.6927L45.3282 51.7135L45.3022 51.6979ZM45.9115 59.9166L45.8334 59.875L45.8022 59.9271L45.8699 59.9844L45.9115 59.9166ZM48.4167 52.0104L48.1824 52.1458L48.0053 52.5625C48.0463 52.7305 48.1486 52.8771 48.2922 52.9735C48.4358 53.0699 48.6103 53.109 48.7813 53.0833L49.0938 53.4948C49.2917 53.5521 49.448 53.7083 49.6667 53.651L49.7761 53.5312H49.9949L50.1615 53.3177L50.2657 52.8594C50.1511 52.7656 50.2657 52.6198 50.2032 52.5208C50.1407 52.4218 50.047 52.4531 49.7813 52.4844C49.6827 52.3532 49.6054 52.2073 49.5522 52.0521L49.6147 51.7187L49.323 51.5989C49.2336 51.5568 49.1322 51.5478 49.0368 51.5736C48.9413 51.5993 48.8582 51.6582 48.8022 51.7396C48.6961 51.8581 48.5642 51.9507 48.4167 52.0104ZM44.9688 61.3281C44.9811 61.3862 45.0097 61.4395 45.0512 61.482C45.0927 61.5244 45.1454 61.5541 45.2032 61.5677C45.3017 61.566 45.3999 61.5783 45.4949 61.6041C45.5433 61.4623 45.5433 61.3085 45.4949 61.1666C45.4605 61.1173 45.4145 61.0772 45.3609 61.0499C45.3072 61.0226 45.2477 61.0091 45.1876 61.0104C45.1254 61.0104 45.0658 61.0351 45.0219 61.079C44.9779 61.123 44.9532 61.1826 44.9532 61.2448L44.9688 61.3281ZM46.5261 54.9427C46.5175 54.9023 46.497 54.8654 46.4674 54.8366C46.4377 54.8079 46.4001 54.7886 46.3595 54.7812C46.3035 54.7885 46.2513 54.8137 46.2109 54.8532C46.1705 54.8926 46.1441 54.9442 46.1355 55C46.1355 55.1406 46.2345 55.2187 46.3647 55.2239C46.4194 55.2022 46.4652 55.1626 46.4945 55.1115C46.5238 55.0604 46.535 55.0009 46.5261 54.9427ZM45.3178 57.7448L45.2709 57.7083L45.2345 57.7448L45.2813 57.7812L45.3178 57.7448ZM48.8178 46.5364V46.5104C48.8813 46.4365 48.9228 46.3463 48.9376 46.25C48.9489 46.1252 48.9489 45.9997 48.9376 45.875L48.7813 45.5989C48.8474 45.3495 48.8347 45.0857 48.7449 44.8437C48.4863 44.8 48.2212 44.8142 47.9688 44.8854C47.8679 45.1107 47.7995 45.3492 47.7657 45.5937C47.6851 45.8296 47.5876 46.0593 47.474 46.2812C47.5106 46.4124 47.5832 46.5307 47.6835 46.6227C47.7838 46.7148 47.9079 46.7769 48.0417 46.8021C48.1802 46.8675 48.3388 46.8763 48.4837 46.8267C48.6286 46.7771 48.7484 46.673 48.8178 46.5364ZM48.0938 49.5468C47.9897 49.6666 47.9897 49.6666 48.0938 49.7864C48.1256 49.7864 48.1561 49.7738 48.1785 49.7513C48.201 49.7289 48.2136 49.6984 48.2136 49.6666C48.2136 49.6349 48.201 49.6044 48.1785 49.5819C48.1561 49.5595 48.1256 49.5468 48.0938 49.5468ZM46.7397 68.5885L46.7605 68.5677L46.7917 68.5937L46.7709 68.6198L46.7397 68.5885ZM46.5834 61.2031L46.6042 61.1875L46.6251 61.2187L46.6042 61.2344L46.5834 61.2031ZM47.3751 51.0677C47.3751 51.0677 47.323 51.0416 47.3022 51.0416L47.2449 51.125L47.3334 51.1614C47.3334 51.1614 47.3751 51.0885 47.3751 51.0677ZM58.6772 47.9635L58.7084 47.9479L58.724 47.9687L58.6928 47.9844L58.6772 47.9635ZM58.8334 42.0416C59.0517 42.1118 59.2744 42.1675 59.5001 42.2083L59.5365 42.1354C59.489 42.0867 59.4324 42.0477 59.3699 42.0208C59.1876 41.9531 59.0313 41.8021 58.823 41.8073L58.7605 41.8437C58.7382 41.8678 58.7258 41.8994 58.7258 41.9323C58.7258 41.9651 58.7382 41.9967 58.7605 42.0208L58.8334 42.0416ZM44.8959 51.5677L44.9011 51.5416L44.9376 51.5469V51.5729L44.8959 51.5677ZM64.9636 42.8281H65.5209L65.6407 42.5677C65.6858 42.4844 65.731 42.4097 65.7761 42.3437C65.7136 41.8229 65.698 41.8229 65.4949 41.5989L64.9167 41.5573L64.6407 41.776C64.6293 41.8797 64.6102 41.9825 64.5834 42.0833C64.5371 42.2325 64.551 42.3939 64.622 42.533C64.6931 42.6722 64.8156 42.7781 64.9636 42.8281ZM64.297 40.5104L64.0522 40.5677C64.0128 40.6317 63.9878 40.7035 63.9788 40.7781C63.9698 40.8527 63.9771 40.9284 64.0001 41C64.0338 41.0563 64.082 41.1025 64.1398 41.1336C64.1975 41.1648 64.2626 41.1798 64.3282 41.1771C64.3916 41.1663 64.451 41.1389 64.5004 41.0977C64.5498 41.0566 64.5874 41.0031 64.6095 40.9427C64.6336 40.8935 64.6439 40.8386 64.6392 40.784C64.6346 40.7294 64.6152 40.6771 64.5831 40.6327C64.551 40.5882 64.5074 40.5534 64.457 40.5319C64.4066 40.5103 64.3513 40.5029 64.297 40.5104ZM57.4011 41.3958L57.3543 41.3593L57.3178 41.401L57.3647 41.4375L57.4011 41.3958ZM56.2709 44.2708L56.1511 44.6771L56.2084 45.0052C56.5522 45.2916 56.6355 45.2916 57.0834 45.0052L57.1459 44.7812C57.1845 44.7011 57.2298 44.6245 57.2813 44.5521C57.1596 44.3924 57.0198 44.2473 56.8647 44.1198C56.6757 44.1119 56.4869 44.1383 56.3074 44.1979L56.2709 44.2708ZM57.2032 47.8541L57.3022 48.1927L57.5157 48.2916C57.6221 48.3414 57.7438 48.3468 57.8542 48.3068C57.9646 48.2667 58.0545 48.1845 58.1043 48.0781C58.157 48.0205 58.1862 47.9452 58.1862 47.8672C58.1862 47.7891 58.157 47.7138 58.1043 47.6562C58.0403 47.5559 57.9439 47.4806 57.8311 47.4427C57.7184 47.4048 57.596 47.4066 57.4845 47.4479C57.3959 47.5781 57.2188 47.6458 57.2032 47.8541ZM57.2136 46.5364H57.5001C57.5584 46.5365 57.6162 46.5248 57.6699 46.5022C57.7237 46.4795 57.7724 46.4464 57.8132 46.4046C57.8539 46.3629 57.886 46.3134 57.9073 46.2591C57.9287 46.2049 57.939 46.1468 57.9376 46.0885V45.9375C57.9376 45.8333 58.1095 45.8073 58.0261 45.6666H57.7605C57.704 45.6164 57.6371 45.579 57.5647 45.5572C57.4923 45.5353 57.4159 45.5296 57.341 45.5402C57.2661 45.5509 57.1945 45.5777 57.131 45.6189C57.0675 45.6601 57.0138 45.7146 56.9735 45.7786C56.9332 45.8427 56.9074 45.9147 56.8978 45.9898C56.8882 46.0648 56.8951 46.1411 56.9179 46.2132C56.9408 46.2853 56.9791 46.3516 57.0301 46.4074C57.0812 46.4632 57.1438 46.5073 57.2136 46.5364ZM58.5678 48.7448L58.573 48.7187L58.6095 48.7239L58.6042 48.75L58.5678 48.7448ZM58.5522 40.3281L58.573 40.276L58.599 40.2864L58.5782 40.3385L58.5522 40.3281ZM57.8907 71.6979C57.8699 71.7419 57.8581 71.7896 57.856 71.8383C57.8539 71.8869 57.8616 71.9355 57.8785 71.9812C57.8955 72.0268 57.9215 72.0686 57.9549 72.104C57.9883 72.1394 58.0284 72.1678 58.073 72.1875L58.1876 72.2187C58.2572 72.2387 58.3302 72.2439 58.402 72.234C58.4737 72.2241 58.5426 72.1994 58.6042 72.1614C58.6386 72.0633 58.6457 71.9576 58.6246 71.8558C58.6035 71.7539 58.555 71.6597 58.4845 71.5833C58.4019 71.5489 58.3134 71.5312 58.224 71.5312C58.1346 71.5312 58.0461 71.5489 57.9636 71.5833L57.8907 71.6979ZM58.2657 43.1458H58.2084L58.1772 43.1979L58.2501 43.2396L58.2657 43.1458ZM57.7917 68.8698L57.724 69.1406C57.7573 69.2521 57.827 69.3493 57.922 69.4166C57.9785 69.4574 58.0482 69.4757 58.1175 69.468C58.1868 69.4603 58.2507 69.4272 58.297 69.375C58.3509 69.3297 58.388 69.2675 58.4022 69.1985C58.4164 69.1295 58.4068 69.0577 58.3751 68.9948C58.3095 68.8959 58.2121 68.8224 58.099 68.7864C58.0458 68.7644 57.9868 68.7606 57.9312 68.7757C57.8756 68.7907 57.8265 68.8238 57.7917 68.8698ZM31.2553 84.0104C31.2916 83.9318 31.3078 83.8454 31.3023 83.759C31.2969 83.6726 31.27 83.589 31.224 83.5156C31.197 83.4556 31.1517 83.4058 31.0947 83.373C31.0376 83.3403 30.9717 83.3264 30.9063 83.3333L30.6772 83.4687C30.598 83.5192 30.5414 83.5983 30.519 83.6895C30.4967 83.7807 30.5105 83.877 30.5574 83.9583C30.7032 84.2031 30.9063 84.2552 31.0782 84.1354L31.2553 84.0104ZM44.5053 55.6666L44.948 55.6302C44.9784 55.5967 44.9952 55.553 44.9952 55.5078C44.9952 55.4625 44.9784 55.4189 44.948 55.3854L44.922 55.3021L45.1563 55.1354L44.8438 54.7916C44.6303 54.7916 44.422 54.7031 44.224 54.875L44.1303 55.1719L44.2449 55.5573L44.5053 55.6666ZM33.5417 78.6458C33.67 78.6969 33.7869 78.7731 33.8855 78.8698C33.9284 78.9139 33.9805 78.948 34.0381 78.9697C34.0958 78.9913 34.1575 78.9998 34.2188 78.9948C34.3647 78.9323 34.5157 78.8541 34.5365 78.6562C34.5574 78.4583 34.349 78.401 34.2657 78.276C34.2785 78.2043 34.2722 78.1305 34.2475 78.0619C34.2228 77.9934 34.1806 77.9325 34.1251 77.8854L33.8334 77.8021L33.6355 77.9219H33.4115L33.1147 78.1666C33.1213 78.2283 33.139 78.2883 33.1667 78.3437C33.2505 78.487 33.384 78.5945 33.5417 78.6458ZM33.0105 84.3333L33.0313 84.3177L33.0574 84.3489L33.0313 84.3646L33.0105 84.3333ZM33.0105 83.0937L32.8855 82.9166C32.7848 82.9722 32.7605 83.0416 32.8126 83.125H32.8699L33.0105 83.0937ZM37.0938 70.9479L37.099 70.9218L37.1251 70.9271L37.1199 70.9531L37.0938 70.9479ZM32.7188 85.8854V85.8541L32.6303 85.8073C32.6303 85.8437 32.573 85.875 32.599 85.8958C32.6071 85.9084 32.6178 85.9191 32.6304 85.9272C32.643 85.9353 32.6571 85.9406 32.672 85.9427C32.6788 85.942 32.6855 85.94 32.6915 85.9368C32.6976 85.9336 32.703 85.9291 32.7073 85.9238C32.7117 85.9185 32.715 85.9124 32.7169 85.9058C32.7189 85.8992 32.7195 85.8922 32.7188 85.8854ZM34.4376 76.9531C34.349 76.8021 34.3282 76.7812 34.2449 76.7864C34.2052 76.7877 34.1676 76.8041 34.1395 76.8321C34.1115 76.8602 34.0951 76.8978 34.0938 76.9375C34.0931 76.958 34.0965 76.9785 34.1037 76.9977C34.1109 77.0169 34.1219 77.0345 34.1359 77.0495C34.1499 77.0645 34.1668 77.0766 34.1855 77.0851C34.2042 77.0935 34.2244 77.0983 34.2449 77.0989C34.289 77.1013 34.3326 77.0879 34.3679 77.0612C34.4031 77.0345 34.4278 76.9962 34.4376 76.9531ZM37.6095 77.0364L37.9167 77.0729V76.8646C37.7188 76.8229 37.7188 76.8229 37.6355 76.9166L37.6095 77.0364ZM35.2084 78.5625C35.1365 78.8944 34.9845 79.2037 34.7657 79.4635L34.5678 79.8594L34.4272 80.0052C34.3831 80.176 34.3831 80.3552 34.4272 80.526C34.4404 80.5969 34.4777 80.661 34.5327 80.7075C34.5878 80.754 34.6572 80.78 34.7292 80.7812C34.7932 80.7762 34.8537 80.7499 34.9009 80.7065C34.9481 80.663 34.9794 80.605 34.9897 80.5416V80.4948C35.0045 80.2632 35.0961 80.0433 35.2501 79.8698C35.2952 79.6475 35.3438 79.4496 35.3959 79.276C35.4374 79.0971 35.5407 78.9385 35.6876 78.8281C35.9792 78.625 35.9688 78.6093 36.2084 78.625C36.1349 78.6771 36.0791 78.7504 36.0484 78.8351C36.0177 78.9198 36.0136 79.0118 36.0365 79.0989C36.1876 79.2604 36.1876 79.2656 36.2917 79.276C36.5131 79.334 36.7474 79.3176 36.9584 79.2291H37.0886L37.4376 79.4791L37.5938 79.7187C37.8052 79.8118 38.0416 79.8319 38.2657 79.776C38.3919 79.7717 38.5122 79.7217 38.6042 79.6354C38.6827 79.5513 38.7813 79.4885 38.8907 79.4531C39.1398 79.3636 39.3696 79.2275 39.5678 79.0521C39.8438 78.8281 39.8647 78.6302 39.6928 78.2604C39.6113 78.2032 39.5181 78.1646 39.42 78.1475C39.3219 78.1304 39.2212 78.1352 39.1251 78.1614C39.0001 78.2291 38.9011 78.3958 38.6667 78.3229L38.4584 78.125C38.3928 78.0544 38.3037 78.0101 38.2078 78.0006C38.1119 77.991 38.0159 78.0167 37.9376 78.0729C37.9742 77.9367 37.9969 77.797 38.0053 77.6562C38.0113 77.5531 37.9893 77.4502 37.9417 77.3585C37.894 77.2668 37.8224 77.1897 37.7345 77.1354C37.6928 77.2135 37.6407 77.2656 37.6355 77.3281V77.6094L37.599 77.7291L37.3282 77.8177L37.1459 77.7552L37.0053 77.6979C36.9636 77.5972 36.9237 77.5121 36.8855 77.4427C36.8711 77.4032 36.8489 77.3671 36.8202 77.3364C36.7915 77.3057 36.7569 77.2811 36.7185 77.2641C36.6801 77.2471 36.6387 77.238 36.5967 77.2373C36.5546 77.2367 36.5129 77.2445 36.474 77.2604L36.3907 77.3073L36.2084 77.4531L35.8542 77.401L35.5261 77.651C35.5213 77.8716 35.4465 78.085 35.3126 78.2604C35.2471 78.3477 35.2106 78.4534 35.2084 78.5625ZM34.9688 73.0729L35.3803 72.8177C35.4509 72.6648 35.4661 72.492 35.4231 72.3292C35.38 72.1663 35.2816 72.0235 35.1446 71.9254C35.0077 71.8274 34.8408 71.7801 34.6728 71.7918C34.5048 71.8035 34.3461 71.8734 34.224 71.9896C34.2121 72.0532 34.2121 72.1186 34.224 72.1823C34.2692 72.3559 34.3213 72.5295 34.3803 72.7031C34.4432 72.806 34.5291 72.8929 34.6312 72.9571C34.7333 73.0212 34.8488 73.0609 34.9688 73.0729ZM29.3178 77.2291C29.4188 77.1978 29.5051 77.131 29.5606 77.041C29.6162 76.951 29.6372 76.8439 29.6199 76.7396C29.6111 76.5902 29.5702 76.4446 29.5001 76.3125C29.2687 76.1733 28.997 76.1164 28.7292 76.151C28.5522 76.3281 28.3126 76.4375 28.2813 76.7708L28.474 77.0156C28.5671 77.1447 28.7028 77.2369 28.8571 77.2759C29.0114 77.315 29.1745 77.2984 29.3178 77.2291ZM37.6667 76.6771L37.6772 76.6562L37.7188 76.6771L37.7084 76.6979L37.6667 76.6771ZM26.9532 81.0573C27.1776 81.1731 27.4211 81.2473 27.672 81.276L28.1928 81.0208C28.3055 80.8212 28.3913 80.6075 28.448 80.3854V80.25C28.438 80.0405 28.4154 79.8318 28.3803 79.625L27.9376 79.2656L27.6459 79.1666C27.5781 79.1357 27.5043 79.1197 27.4298 79.1197C27.3552 79.1197 27.2815 79.1357 27.2136 79.1666C27.0498 79.2587 26.9125 79.3914 26.8149 79.552C26.7173 79.7125 26.6627 79.8955 26.6563 80.0833V80.2239C26.7119 80.4427 26.7727 80.6597 26.8386 80.875C26.8704 80.9395 26.9088 81.0006 26.9532 81.0573ZM16.5417 92.0312C16.969 92.2843 17.4566 92.4175 17.9532 92.4166H106.13C106.617 92.4144 107.095 92.2848 107.516 92.0408C107.938 91.7968 108.288 91.4468 108.532 91.0256C108.777 90.6044 108.906 90.1267 108.909 89.6398C108.912 89.1528 108.787 88.6737 108.547 88.25L65.3178 12.0312C65.0767 11.6063 64.7281 11.2522 64.3069 11.0045C63.8858 10.7568 63.4069 10.6242 62.9183 10.62C62.4298 10.6158 61.9487 10.7401 61.5233 10.9805C61.098 11.2208 60.7433 11.5688 60.4949 11.9896L32.9428 58.7135H32.9115V58.7656L15.5522 88.2187C15.3663 88.5339 15.2444 88.8826 15.1936 89.245C15.1427 89.6073 15.1639 89.9762 15.2558 90.3303C15.3477 90.6845 15.5086 91.017 15.7293 91.3089C15.95 91.6008 16.2261 91.8462 16.5417 92.0312ZM23.974 83.401L37.5574 60.3541L39.672 56.7656L39.8022 56.5573H39.9845C40.0498 56.5007 40.096 56.4252 40.1165 56.3412C40.137 56.2572 40.1309 56.1689 40.099 56.0885L50.6563 38.151V38.2239C50.698 38.276 50.7709 38.2239 50.823 38.2864C50.9636 38.4187 51.1509 38.4899 51.3438 38.4843C51.4328 38.5912 51.5323 38.6889 51.6407 38.776C51.6923 38.8221 51.759 38.8476 51.8282 38.8476C51.8974 38.8476 51.9641 38.8221 52.0157 38.776C52.0711 38.7149 52.1071 38.6387 52.1191 38.5571C52.1312 38.4755 52.1188 38.3922 52.0834 38.3177C52.0651 38.2549 52.0239 38.2014 51.9679 38.1676C51.912 38.1338 51.8454 38.1223 51.7813 38.1354C51.6821 38.1577 51.5846 38.1873 51.4897 38.2239L51.5417 37.9271C51.5075 37.8139 51.439 37.7141 51.3458 37.6413C51.2525 37.5686 51.139 37.5265 51.0209 37.5208L60.4272 21.5677C60.6756 21.147 61.0303 20.799 61.4556 20.5586C61.881 20.3182 62.3621 20.1939 62.8506 20.1981C63.3392 20.2023 63.8181 20.3349 64.2392 20.5826C64.6604 20.8303 65.009 21.1844 65.2501 21.6094L82.9168 52.7969L82.3959 52.8541C82.2635 53.0898 82.1687 53.3445 82.1147 53.6094C82.3328 53.8961 82.638 54.1044 82.9845 54.2031L83.1615 54.0521C83.2188 54.0156 83.3074 53.9896 83.3803 53.9531L83.5261 53.8646L84.9949 56.4687V56.4427L89.7449 64.8177C89.6909 64.8028 89.6339 64.8026 89.5798 64.8173C89.5258 64.8319 89.4766 64.8609 89.4376 64.901C89.3595 65.0104 89.3855 65.1146 89.5157 65.2708C89.5897 65.2819 89.6652 65.277 89.7371 65.2563C89.809 65.2357 89.8756 65.1997 89.9324 65.151L90.9324 66.9219C90.9113 66.9186 90.8898 66.9197 90.8692 66.9251C90.8486 66.9305 90.8294 66.94 90.8126 66.9531C90.8647 66.9982 90.9011 67.0243 90.922 67.0312H90.9897L100.297 83.4479C100.66 84.0884 100.754 84.8466 100.559 85.5564C100.363 86.2661 99.8947 86.8695 99.2553 87.2344C98.8472 87.4765 98.3808 87.6026 97.9063 87.5989H84.5365L84.5678 87.5573C84.4636 87.3854 84.4636 87.3698 84.3699 87.3698C84.2761 87.3698 84.2553 87.4062 84.1928 87.4271C84.1928 87.5416 84.3074 87.5625 84.3855 87.5937H37.7188C37.8861 87.5505 38.0401 87.4664 38.1667 87.3489C37.9167 87.1823 37.7188 87.0052 37.4532 87.0885L37.4011 87.1406C37.3568 87.191 37.3324 87.2558 37.3324 87.3229C37.3324 87.39 37.3568 87.4548 37.4011 87.5052C37.4401 87.5472 37.4899 87.5776 37.545 87.5932C37.6001 87.6089 37.6636 87.609 37.7188 87.5937H26.3751C26.0087 87.5937 25.646 87.5215 25.3075 87.3811C24.9691 87.2408 24.6617 87.035 24.4029 86.7757C24.1441 86.5164 23.939 86.2087 23.7992 85.87C23.6595 85.5313 23.5879 85.1684 23.5886 84.8021C23.5887 84.3072 23.7218 83.8215 23.974 83.3958M29.2605 74.9687L29.2813 74.9531L29.3022 74.9791L29.2813 74.9948L29.2605 74.9687ZM25.3542 85.3177L25.3334 85.3333L25.3542 85.3646V85.3177ZM65.9636 42.6771V42.6302L65.9376 42.6458L65.9636 42.6771ZM29.8542 81.901L29.8126 81.8698L29.797 81.9166L29.849 81.9271L29.8542 81.901ZM32.5678 87.401C32.4957 87.3726 32.4165 87.3679 32.3416 87.3876C32.2667 87.4073 32.2 87.4503 32.1511 87.5104C32.0909 87.5903 32.0549 87.6858 32.0476 87.7855C32.0402 87.8853 32.0617 87.985 32.1095 88.0729L32.4584 88.0208C32.5418 87.9436 32.5976 87.8412 32.6173 87.7293C32.6371 87.6174 32.6197 87.5021 32.5678 87.401ZM30.6303 79.8489L30.8647 79.9427C30.891 79.9525 30.919 79.9569 30.947 79.9556C30.975 79.9544 31.0025 79.9474 31.0278 79.9353C31.0531 79.9231 31.0757 79.906 31.0942 79.8849C31.1127 79.8638 31.1267 79.8391 31.1355 79.8125C31.1573 79.7524 31.1679 79.6889 31.1667 79.625L31.0313 79.4583L31.1876 79.2552C31.1907 79.1933 31.1779 79.1317 31.1506 79.0761C31.1233 79.0205 31.0822 78.9728 31.0313 78.9375C31.0049 78.9176 30.9748 78.9033 30.9427 78.8954C30.9106 78.8876 30.8772 78.8863 30.8446 78.8916C30.812 78.897 30.7808 78.9089 30.7529 78.9266C30.7251 78.9443 30.7011 78.9675 30.6824 78.9948C30.6606 79.0263 30.646 79.0623 30.6397 79.1001C30.6334 79.1379 30.6355 79.1766 30.6459 79.2135C30.6459 79.2864 30.7136 79.3594 30.7449 79.4271C30.6667 79.5573 30.4792 79.6354 30.6303 79.8489ZM29.9584 77.0469L29.9324 77.0625L29.948 77.0885L29.9584 77.0469ZM33.1407 74.9114L33.1563 74.875L33.1824 74.8854L33.1667 74.9166L33.1407 74.9114ZM41.2605 56.5312C41.1921 56.3787 41.082 56.2487 40.9428 56.1562C40.8126 56.0729 40.7084 56.1562 40.6563 56.3333C40.7906 56.5088 40.9857 56.6277 41.2032 56.6666L41.2605 56.5312ZM42.5678 57.8594C42.7383 57.6869 42.8433 57.4603 42.8647 57.2187C42.8334 57.0156 42.6876 56.9219 42.5886 56.7969L42.2136 56.7656C42.0557 56.8619 41.9263 56.9985 41.8386 57.1614L42.0417 57.8854C42.2153 57.9338 42.3999 57.9247 42.5678 57.8594ZM40.8647 57.6146C40.8524 57.6237 40.8423 57.6355 40.8351 57.649C40.8279 57.6625 40.8238 57.6774 40.823 57.6927C40.8217 57.7015 40.8226 57.7105 40.8257 57.7188C40.8289 57.7271 40.8341 57.7345 40.8409 57.7402C40.8476 57.746 40.8558 57.7499 40.8645 57.7516C40.8732 57.7533 40.8823 57.7527 40.8907 57.75H40.9272L40.9636 57.6562C40.9254 57.6215 40.8924 57.6076 40.8647 57.6146ZM42.8282 54.401C42.7657 54.0104 42.7084 53.9218 42.3074 53.625L42.1095 53.8385L42.0313 53.9531C42.0009 54.0034 41.9814 54.0596 41.9743 54.1179C41.9671 54.1763 41.9723 54.2355 41.9897 54.2916C42.0239 54.3996 42.0945 54.4924 42.1895 54.5541C42.2845 54.6158 42.3979 54.6427 42.5105 54.6302C42.5464 54.6361 42.5832 54.6349 42.6186 54.6266C42.6541 54.6183 42.6875 54.603 42.717 54.5817C42.7466 54.5604 42.7716 54.5335 42.7907 54.5025C42.8098 54.4715 42.8225 54.437 42.8282 54.401ZM40.4688 67.8437H40.4949V67.8698H40.4688V67.8437ZM41.0678 60.5885C40.9532 60.6545 40.9254 60.7326 40.9845 60.8229C41.1251 60.8021 41.1251 60.8021 41.0678 60.5885ZM44.1772 57.0052L44.3438 57.1302L44.7136 57.026C44.8722 56.882 44.9692 56.6824 44.9845 56.4687C44.9324 56.3778 44.8713 56.2923 44.8022 56.2135C44.763 56.1692 44.7154 56.133 44.6622 56.1071C44.609 56.0813 44.5511 56.0662 44.4921 56.0628C44.433 56.0594 44.3738 56.0678 44.318 56.0874C44.2621 56.107 44.2107 56.1375 44.1667 56.1771L44.0886 56.2708C44.0094 56.426 43.9499 56.5904 43.9115 56.7604C43.922 56.8297 43.9395 56.8977 43.9636 56.9635C44.0361 56.9699 44.1076 56.9839 44.1772 57.0052ZM43.7084 57.3281L43.6928 57.3489L43.7188 57.3541L43.7084 57.3281ZM42.7292 53.2604V53.2344L42.7709 53.2396L42.7657 53.2656L42.7292 53.2604ZM43.0105 56.4635C43.0411 56.5296 43.0966 56.581 43.1649 56.6063C43.2332 56.6317 43.3087 56.629 43.3751 56.5989L43.422 56.5729C43.422 56.2656 43.349 56.2239 43.0782 56.2552L43.0105 56.4635ZM42.5938 55.7239L42.7188 55.75L42.7917 55.5781L43.2084 55.401C43.2724 55.3123 43.3068 55.2057 43.3068 55.0963C43.3068 54.987 43.2724 54.8804 43.2084 54.7916L42.9792 54.651C42.9107 54.6462 42.842 54.6584 42.7793 54.6866C42.7166 54.7148 42.6618 54.758 42.6199 54.8125C42.5846 55.115 42.5758 55.4199 42.5938 55.7239ZM39.823 81.7343L39.9011 81.4687L39.5626 80.9843C39.5089 80.9203 39.4714 80.8443 39.4533 80.7627C39.4351 80.6811 39.4369 80.5964 39.4584 80.5156C39.4606 80.4511 39.4747 80.3875 39.5001 80.3281C39.1615 80.0937 38.8595 79.8541 38.4584 80.0156C38.2865 80.2656 38.4584 80.5833 38.2709 80.8177L38.0209 80.9896L38.0574 81.125C38.1615 81.1771 38.2188 81.125 38.2813 81.0625C38.3217 81.0156 38.3774 80.9847 38.4384 80.9752C38.4995 80.9656 38.562 80.9781 38.6147 81.0104C38.7597 81.2237 38.8639 81.4621 38.922 81.7135C38.9374 81.7693 38.9621 81.8221 38.9949 81.8698C39.0692 81.9786 39.1222 82.1005 39.1511 82.2291C39.1883 82.3532 39.2408 82.4722 39.3074 82.5833C39.3595 82.6666 39.4115 82.7413 39.4636 82.8073C39.4212 83.1632 39.4789 83.524 39.6303 83.8489L39.8542 84.0364C39.8299 84.092 39.8056 84.1354 39.7813 84.1666C39.7017 84.2367 39.6454 84.3294 39.6199 84.4323C39.5913 84.4894 39.5747 84.5518 39.571 84.6155C39.5674 84.6793 39.5769 84.7432 39.5988 84.8032C39.6208 84.8632 39.6547 84.918 39.6987 84.9644C39.7426 85.0108 39.7955 85.0477 39.8542 85.0729C39.9133 85.1001 39.9769 85.116 40.0417 85.1198C40.1457 85.1302 40.2503 85.1302 40.3542 85.1198L40.4636 84.8906L40.5365 84.6354C40.4949 84.4722 40.4497 84.3177 40.4011 84.1718C40.3456 84.0295 40.2848 83.8871 40.2188 83.7448L40.3074 83.4166L40.2292 83.0104L39.9011 82.625L39.9897 82.2552L39.823 81.7343ZM40.8334 70.6198C40.9591 70.646 41.0747 70.7074 41.1667 70.7969L41.2292 70.8229L41.5313 70.8698L41.8022 70.7916L42.323 70.3177C42.3887 70.2658 42.4373 70.1953 42.4624 70.1154C42.4875 70.0355 42.4879 69.9499 42.4636 69.8698C42.4392 69.7673 42.4253 69.6626 42.422 69.5573C42.402 69.4661 42.4132 69.3708 42.4538 69.2868C42.4944 69.2027 42.5621 69.1347 42.6459 69.0937C42.7296 69.0557 42.8098 69.0104 42.8855 68.9583C42.9307 68.9216 42.9694 68.8776 43.0001 68.8281L42.8595 68.6458L42.9845 68.3646C42.9089 68.2958 42.8149 68.2507 42.7139 68.2349C42.613 68.2192 42.5096 68.2335 42.4168 68.276L42.099 68.2239C42.0126 68.2706 41.9219 68.3089 41.8282 68.3385L41.5417 68.3802V68.5989C41.5306 68.652 41.5113 68.7029 41.4845 68.75C41.4011 68.75 41.3126 68.7812 41.2188 68.7864C41.0852 68.7864 40.9545 68.826 40.8433 68.9001C40.732 68.9743 40.6452 69.0797 40.5938 69.2031L40.4376 69.4479V69.6146C40.4376 69.7552 40.3074 69.875 40.3647 70.026C40.422 70.1771 40.4949 70.276 40.547 70.4062C40.5724 70.4634 40.6121 70.5131 40.6622 70.5505C40.7124 70.5879 40.7714 70.6117 40.8334 70.6198ZM38.9167 71.375C38.9717 71.3295 39.0166 71.2732 39.0489 71.2095C39.0811 71.1459 39.1 71.0764 39.1042 71.0052C38.9897 70.4531 38.7501 70.3958 38.3334 70.4062C38.2345 70.5833 38.0782 70.7448 38.1042 70.9583L38.448 71.4375L38.9167 71.375ZM37.5522 61.2187L37.4428 61.4166C37.5834 61.4791 37.6459 61.4583 37.6772 61.3385L37.5522 61.2187ZM36.797 65.9791C37.0449 66.0442 37.3012 66.0723 37.5574 66.0625L37.9428 65.7187C38.0726 65.3753 38.089 64.9993 37.9897 64.6458C37.9115 64.5104 37.8178 64.3437 37.7136 64.1875C37.6095 64.0312 37.5157 64 37.297 64.0729C37.2801 64.1225 37.2742 64.1752 37.2796 64.2273C37.285 64.2795 37.3016 64.3298 37.3282 64.375H37.0886L36.698 64.5937C36.6351 64.6231 36.5838 64.6726 36.5522 64.7344C36.4452 64.9708 36.3834 65.2252 36.3699 65.4844C36.3659 65.544 36.3767 65.6037 36.4012 65.6582C36.4257 65.7126 36.4632 65.7603 36.5105 65.7969L36.797 65.9791ZM38.672 63.2187L38.698 63.1979L38.7084 63.2239L38.6824 63.2396L38.672 63.2187ZM38.4532 75.2812C38.478 75.3765 38.5294 75.4628 38.6013 75.5301C38.6732 75.5974 38.7627 75.643 38.8595 75.6614C38.9571 75.6141 39.0392 75.54 39.0964 75.4478C39.1536 75.3556 39.1834 75.2491 39.1824 75.1406C39.1396 75.0207 39.0543 74.9207 38.9428 74.8594C38.7397 74.9271 38.5209 74.9375 38.4532 75.2812ZM40.2449 64.0729L40.1928 64.0364L40.1824 64.0937L40.2345 64.0989L40.2449 64.0729ZM37.6511 76.1562L37.672 76.1146L37.6928 76.1198L37.672 76.1719L37.6511 76.1562ZM38.7501 65.1614L38.8074 65.0937L38.7657 65.0521L38.698 65.1041L38.7501 65.1614ZM39.9115 65.3958L39.8803 65.3541L39.823 65.4062L39.8699 65.4375L39.9115 65.3958ZM39.7397 67.4843L39.7032 67.4739L39.7188 67.5L39.7397 67.4843ZM31.7084 81.9791C31.8334 82.0312 31.922 82.0989 32.047 82.0521C31.9428 81.9271 31.9428 81.9271 31.7084 81.9791ZM73.5626 57.25C73.3959 57.2812 73.3438 57.3125 73.3386 57.4062C73.3334 57.5 73.3907 57.5625 73.5886 57.5989C73.6824 57.46 73.6737 57.3437 73.5626 57.25ZM74.1355 86.4583C73.9584 86.1094 74.1667 85.7864 74.1355 85.4739C73.974 85.1771 73.6459 85.1979 73.4272 85.0052L72.6095 85.4062C72.5807 85.6007 72.5246 85.79 72.4428 85.9687C72.1876 85.9687 72.073 86.2708 71.8334 86.3229L71.6876 86.6302L71.8803 87.151L72.2397 87.4844C72.3519 87.4727 72.4604 87.4369 72.5575 87.3794C72.6546 87.3218 72.7381 87.2439 72.8022 87.151C72.849 86.9739 72.7136 86.7604 72.9636 86.6562L73.1772 86.8021L73.0626 87.0729L73.3647 87.7656C73.6407 87.7656 73.8855 87.9635 74.1667 87.8385L74.573 87.3646C74.6459 87.0416 74.3803 86.8437 74.3282 86.6302L74.1355 86.4583ZM74.7501 80.4114C74.6556 80.5319 74.5961 80.6761 74.5782 80.8281L74.8595 81.1979C75.0834 81.3229 75.2657 81.1979 75.4688 81.1979C75.5354 81.1244 75.5796 81.0333 75.5962 80.9355C75.6128 80.8377 75.6012 80.7372 75.5626 80.6458C75.5414 80.5443 75.4905 80.4514 75.4163 80.3791C75.3421 80.3067 75.2479 80.2581 75.1459 80.2396L74.7501 80.4114ZM74.3699 78.5989C74.2553 78.6718 74.2553 78.7291 74.3178 78.7968C74.3803 78.8646 74.4688 78.7969 74.4949 78.6927L74.3699 78.5989ZM74.4584 81.8281V81.9271C74.4756 81.9908 74.5164 82.0456 74.5725 82.0804C74.6286 82.1152 74.6958 82.1274 74.7605 82.1146C74.81 82.0923 74.8557 82.0624 74.8959 82.026C74.9565 81.9546 75.0105 81.8779 75.0574 81.7968C74.9115 81.6093 74.9115 81.6093 74.7397 81.5364C74.6718 81.5571 74.6104 81.5947 74.5612 81.6458C74.512 81.6968 74.4766 81.7596 74.4584 81.8281ZM71.4584 53.5312L71.4845 53.5156L71.5001 53.5416L71.474 53.5573L71.4584 53.5312ZM71.8542 56.0833V56.1719H71.9324V56.0833H71.8542ZM72.1459 70.7708C72.3907 70.8021 72.3907 70.8021 72.4845 70.5885L72.5261 70.5416L72.6876 70.625L72.8282 70.3698C72.9272 70.3698 73.0157 70.4791 73.1407 70.3958L73.2449 70.151C73.3238 70.1105 73.3911 70.0504 73.4403 69.9766C73.4895 69.9028 73.5191 69.8176 73.5261 69.7291C73.6042 69.5989 73.7449 69.5468 73.7501 69.375L73.6147 69.1198L73.5782 68.8073L73.3855 68.625L73.5365 67.9219L73.3334 67.8541C73.2873 67.9463 73.2075 68.0173 73.1105 68.0522C73.0136 68.0871 72.9069 68.0833 72.8126 68.0416L72.3438 67.776L72.198 67.2552C72.1186 67.1837 72.0255 67.1293 71.9242 67.0952C71.823 67.0612 71.7159 67.0483 71.6095 67.0573L71.2501 67.2812C71.1475 67.4516 71.1053 67.6516 71.1303 67.8489L70.922 68.0208C70.922 68.2135 71.1042 68.3073 71.1824 68.4791L70.823 69.0312L71.1303 69.2187L71.2813 69.5989C71.2422 69.7089 71.2323 69.8271 71.2523 69.9421C71.2724 70.0571 71.3219 70.165 71.3959 70.2552L71.7709 70.1927L72.1459 70.7708ZM71.9376 61.2448L71.974 61.2031L72.0001 61.2187L71.9636 61.2708L71.9376 61.2448ZM72.9584 47.8594L73.1407 47.6823C72.8959 47.6823 72.8959 47.6823 72.9584 47.8594ZM72.9063 50.026H72.9272L72.9324 50.0573L72.9168 50.0625L72.9063 50.026ZM76.3126 77.7448L76.3595 77.8177C76.4636 77.8177 76.5018 77.7708 76.474 77.6771C76.448 77.5885 76.3647 77.6041 76.3126 77.6771C76.2605 77.75 76.3126 77.7239 76.3126 77.7448ZM76.7605 57.9166C76.7104 57.9093 76.6595 57.9093 76.6095 57.9166L76.573 57.9948C76.6077 58.0295 76.6407 58.0469 76.672 58.0469C76.7188 58.0469 76.7188 57.9791 76.7605 57.9166ZM77.9376 60.9375L77.7501 61.0989C77.2657 60.8489 77.1824 60.8541 76.7084 61.1823C76.6685 61.2549 76.6511 61.3378 76.6585 61.4204C76.6659 61.503 76.6978 61.5815 76.7501 61.6458L76.9532 61.9687L77.4063 62.0521C77.4467 62.0638 77.489 62.0673 77.5308 62.0624C77.5725 62.0574 77.6128 62.0441 77.6493 62.0232C77.6858 62.0023 77.7176 61.9742 77.743 61.9407C77.7684 61.9072 77.7867 61.8689 77.797 61.8281V61.8021C77.8421 61.6597 77.8838 61.5139 77.922 61.3646C78.0157 61.3021 78.1928 61.3646 78.1928 61.1354C78.1511 61.0677 78.1042 60.9375 77.9376 60.9375ZM76.948 60.7031C76.8282 60.625 76.7397 60.6666 76.6095 60.75C76.7345 60.8437 76.8282 60.8854 76.9584 60.8229L76.948 60.7031ZM74.9793 78.4114V78.1979C74.8543 78.0989 74.7501 78.0729 74.6459 78.1666L74.5834 78.2708L74.7397 78.5L74.9793 78.4114ZM76.2032 61.2864L76.224 61.2552L76.2449 61.2708L76.224 61.3021L76.2032 61.2864ZM75.8803 84.4375H75.9011L75.9115 84.4687H75.8907L75.8803 84.4375ZM77.5209 58.1354L77.474 58.1666L77.5053 58.2187L77.5522 58.1875L77.5209 58.1354ZM75.6928 61.1354L75.698 61.1094L75.672 61.1146L75.6928 61.1354ZM75.7449 53.6146H75.8022L75.8334 53.5573H75.7501L75.7449 53.6146ZM75.7293 55.7291L75.5417 55.9635C75.5417 56.25 75.7345 56.2864 75.9376 56.3073L76.1928 56.1198C76.2121 56.0673 76.2169 56.0107 76.2068 55.9557C76.1967 55.9007 76.1721 55.8495 76.1355 55.8073C76.0837 55.7546 76.0171 55.719 75.9445 55.705C75.872 55.6911 75.7969 55.6995 75.7293 55.7291ZM75.8126 53.9166L75.823 53.8906L75.8543 53.9062L75.8438 53.9323L75.8126 53.9166ZM67.9793 58.5312C67.9793 58.5625 68.0365 58.5833 68.0782 58.625L68.1095 58.5104C68.0839 58.4833 68.0515 58.4635 68.0157 58.4531L67.9793 58.5312ZM67.948 57.7239L68.0157 57.7604V57.6771L67.9793 57.6458L67.948 57.7239ZM68.3334 53.4635L68.3595 53.4427L68.3803 53.4635L68.349 53.4896L68.3334 53.4635ZM68.6772 71.6406H68.9272L68.8959 71.4375C68.7292 71.4635 68.7292 71.4635 68.6772 71.6406ZM68.7918 63.7708L68.8126 63.776L68.8074 63.7552L68.7918 63.7708ZM66.5574 64.2239L66.5834 64.2031L66.5418 64.1979L66.5574 64.2239ZM68.6303 67.276C68.4562 67.2283 68.2706 67.2469 68.1095 67.3281C68.0381 67.3509 67.9785 67.4007 67.9435 67.4669C67.9084 67.5331 67.9007 67.6104 67.922 67.6823V67.7135L68.172 67.9323L68.573 67.9791C68.6469 67.9305 68.7072 67.8639 68.7482 67.7855C68.7892 67.7072 68.8096 67.6196 68.8074 67.5312L68.6303 67.276ZM67.198 77.6771H67.3751V77.4843C67.2553 77.4375 67.1928 77.4843 67.172 77.5677C67.1704 77.6058 67.1795 77.6437 67.198 77.6771ZM69.2761 65.9114H69.3855L69.4168 65.8594C69.4168 65.8594 69.3647 65.8177 69.3386 65.8229L69.2761 65.9114ZM67.8126 77.6771C67.8317 77.7394 67.8653 77.7964 67.9105 77.8435C67.9558 77.8905 68.0114 77.9263 68.073 77.9479C68.1532 77.9471 68.2303 77.917 68.2898 77.8633C68.3492 77.8096 68.387 77.7359 68.3959 77.6562C68.4098 77.569 68.3956 77.4796 68.3553 77.4009C68.3151 77.3223 68.2508 77.2585 68.172 77.2187C67.9063 77.2552 67.8595 77.3177 67.8126 77.6771ZM68.5001 69.9114C68.4476 69.911 68.3964 69.9282 68.3549 69.9603C68.3133 69.9925 68.2838 70.0376 68.2709 70.0885C68.5001 70.0781 68.5001 70.0781 68.5001 69.9114ZM69.6355 54.3489C69.6783 54.3309 69.7139 54.2991 69.7365 54.2585C69.7592 54.2179 69.7676 54.1709 69.7605 54.125C69.7496 54.0846 69.7248 54.0495 69.6905 54.0256C69.6562 54.0018 69.6146 53.9909 69.573 53.9948C69.5213 53.9969 69.4714 54.0144 69.4296 54.045C69.3879 54.0756 69.3562 54.1179 69.3386 54.1666C69.4428 54.3385 69.5105 54.3802 69.6355 54.3489ZM70.1043 51.8073H70.1303L70.1407 51.8385L70.1147 51.8437L70.1043 51.8073ZM69.4584 51.8698L69.4897 51.8489L69.5053 51.8698L69.474 51.8906L69.4584 51.8698ZM70.7605 71.1094C70.8699 71.1406 70.9376 71.1093 70.9584 70.9583C70.8022 70.8229 70.7605 70.8125 70.6928 70.8802C70.6803 70.8992 70.672 70.9207 70.6687 70.9432C70.6653 70.9657 70.6669 70.9887 70.6734 71.0105C70.6798 71.0323 70.691 71.0525 70.706 71.0696C70.7211 71.0866 70.7397 71.1002 70.7605 71.1094ZM70.3803 54.5L70.3855 54.4739H70.4167L70.4115 54.5104L70.3803 54.5ZM70.2136 59.6562L70.2345 59.6406L70.2188 59.6146L70.2136 59.6562ZM69.974 75.7291L70.073 75.7708L70.1095 75.7239L70.0522 75.6562L69.974 75.7291ZM68.5417 53.8646L68.5522 53.8281L68.5782 53.8333L68.5678 53.8698L68.5417 53.8646ZM69.6147 75.9062L69.6355 75.8906L69.6563 75.9166L69.6355 75.9323L69.6147 75.9062ZM70.0626 60.1823C69.9636 60.1823 69.9115 60.1823 69.9272 60.2968C70.0626 60.3281 70.0626 60.3281 70.0886 60.2031L70.0626 60.1823ZM71.1824 56.6094C71.2221 56.3237 71.173 56.0328 71.0417 55.776C70.9426 55.5633 70.7856 55.3828 70.5886 55.2552C70.422 55.1406 70.2397 55.0625 70.0678 54.9635C69.7501 54.9635 69.6876 55.0312 69.599 55.3125C69.4927 55.5991 69.4728 55.9105 69.5417 56.2083L69.4636 56.8541C69.4636 56.9219 69.4324 56.9896 69.4115 57.0573C69.3442 57.2531 69.2018 57.4143 69.0157 57.5052C68.922 57.9531 69.073 58.1458 69.5365 58.1406C69.5846 58.0844 69.6265 58.0233 69.6615 57.9583L69.8386 57.5364C69.8616 57.4673 69.9004 57.4044 69.952 57.3529C70.0035 57.3014 70.0663 57.2626 70.1355 57.2396C70.3319 57.2953 70.5413 57.2835 70.7302 57.2061C70.919 57.1286 71.0764 56.99 71.1772 56.8125L71.1824 56.6094ZM68.4897 58.7812C68.8074 59.1146 69.0105 59.1354 69.448 58.8854V58.4479C69.3707 58.3613 69.2668 58.303 69.1526 58.2823C69.0384 58.2615 68.9206 58.2795 68.8178 58.3333C68.6303 58.4219 68.4688 58.5156 68.4897 58.7812ZM79.2136 56.6718L79.224 56.6406L79.2553 56.651L79.2449 56.6823L79.2136 56.6718ZM71.474 41.6666C71.698 41.7031 71.7449 41.6666 71.7397 41.401C71.5574 41.3489 71.5522 41.3541 71.474 41.6666ZM71.7553 43.7396H71.7813V43.7656H71.7553V43.7396ZM70.9324 40.4166V40.3906L70.9584 40.3958V40.4219L70.9324 40.4166ZM69.3334 44.4166L69.3595 44.401L69.3803 44.4375L69.3543 44.4531L69.3334 44.4166ZM77.297 45.5521L77.2136 45.4739L77.099 45.6823H77.1772C77.1946 45.6856 77.2125 45.6844 77.2293 45.6788C77.2461 45.6732 77.2613 45.6635 77.2732 45.6505C77.2852 45.6374 77.2937 45.6215 77.2979 45.6043C77.302 45.5871 77.3017 45.5691 77.297 45.5521ZM78.1303 50.7083L78.224 50.3385C78.073 50.2291 77.9792 50.3385 77.8855 50.4062C77.8382 50.4308 77.8021 50.4726 77.7847 50.523C77.7672 50.5733 77.7698 50.6285 77.7918 50.6771V50.7083C77.8373 50.7519 77.898 50.7763 77.961 50.7763C78.0241 50.7763 78.0847 50.7519 78.1303 50.7083ZM73.2553 50.3437L73.4167 50.7448L73.8699 51.2291H74.2657L74.4845 51.3125C74.5167 51.6122 74.4719 51.9151 74.3543 52.1927L74.4324 52.375C74.5216 52.3224 74.6158 52.2787 74.7136 52.2448C74.7903 52.2175 74.8724 52.2086 74.9532 52.2187C74.9741 52.265 74.9882 52.3142 74.9949 52.3646L74.9272 52.4844C74.8927 52.5164 74.8493 52.5371 74.8027 52.5436C74.7561 52.5502 74.7086 52.5422 74.6667 52.5208C74.5869 52.4757 74.5088 52.4271 74.4324 52.375L73.9688 52.4271L73.6928 52.7135C73.7345 53 73.6147 53.276 73.7605 53.5573L74.1147 53.8489L74.5782 53.9062C74.6485 53.9203 74.7216 53.9064 74.7819 53.8675C74.8421 53.8286 74.8849 53.7678 74.9011 53.6979C74.9915 53.4934 75.131 53.3145 75.3074 53.1771C75.5443 53.2868 75.8139 53.3035 76.0626 53.2239L76.4793 53.9323L76.8074 53.9791L76.8959 54.2031L77.099 53.9896L77.3699 54.0989C77.4319 54.1308 77.5033 54.1395 77.5712 54.1232C77.639 54.107 77.6988 54.0669 77.7397 54.0104L78.0522 53.6302L78.099 53.5312V53.2604L78.2345 53.0364L77.9688 52.6406C77.7813 52.3802 77.5105 52.4583 77.2918 52.3333L76.9272 51.7552C76.8178 51.6666 76.6615 51.7552 76.4793 51.6979L76.198 51.4427L76.2813 51.151C76.0175 51.0943 75.786 50.9375 75.6355 50.7135C75.4584 50.6614 75.4063 50.8385 75.2761 50.8594C75.0574 50.8594 74.9272 50.7135 74.7553 50.6093L74.6928 50.2396H74.4584L74.2865 50.0833C74.0209 50.0833 73.7657 49.8646 73.4792 50.0052L73.2553 50.3437ZM72.8647 41.6927L72.7657 41.7916V41.8281C73.0217 42.0664 73.3278 42.2443 73.6615 42.3489C73.4118 42.1116 73.1455 41.8923 72.8647 41.6927ZM78.1042 46.9843C78.0522 47.0295 78.0192 47.0677 78.0053 47.0989C77.9951 47.1154 77.9898 47.1343 77.9898 47.1536C77.9898 47.1729 77.9951 47.1919 78.0053 47.2083C78.1355 47.1614 78.1667 47.125 78.1042 46.9843ZM76.099 46.1198C76.0522 46.1198 76.0157 46.0781 75.9949 46.0833C75.974 46.0885 75.9636 46.1354 75.948 46.1614C75.9324 46.1875 76.0053 46.2083 76.0313 46.2031C76.0522 46.1927 76.0747 46.1649 76.099 46.1198ZM67.2032 55.9375L67.1095 55.7812C66.8334 55.8437 66.823 55.8541 66.8699 56.0729C66.9326 56.0874 66.9983 56.0822 67.058 56.058C67.1177 56.0337 67.1684 55.9916 67.2032 55.9375ZM67.1147 60.026L67.1355 59.9739L67.1615 59.9844L67.1407 60.0364L67.1147 60.026ZM78.7345 84.4323L78.8699 84.1875H78.6824L78.7345 84.4323ZM67.6303 72.0833C67.7536 72.1554 67.8995 72.1788 68.0392 72.1489C68.1789 72.1191 68.3024 72.0381 68.3855 71.9219C68.4096 71.8358 68.4054 71.7443 68.3735 71.6608C68.3416 71.5774 68.2837 71.5064 68.2084 71.4583C67.9272 71.4583 67.922 71.4583 67.7292 71.7083C67.698 71.3437 67.4584 71.2396 67.1407 71.1875C66.9869 71.2138 66.8409 71.2743 66.7136 71.3646C66.663 71.5469 66.663 71.7395 66.7136 71.9219C66.7396 72.0264 66.8052 72.1169 66.8965 72.1742C66.9878 72.2315 67.0977 72.2512 67.2032 72.2291L67.6303 72.0833ZM67.5574 51.5312L67.5782 51.5156L67.5938 51.5364L67.573 51.5521L67.5574 51.5312ZM67.7553 49.8906C67.7927 49.7693 67.805 49.6416 67.7916 49.5154C67.7782 49.3892 67.7392 49.267 67.6772 49.1562H67.547C67.5371 49.3979 67.5834 49.6386 67.6824 49.8593L67.7553 49.8906ZM68.2501 44.4791L68.2032 44.4531L68.1667 44.5052L68.2188 44.5312L68.2501 44.4791ZM68.5001 47.8698L68.8178 47.9583L68.9011 48.3385C69.0603 48.4681 69.2541 48.5479 69.4584 48.5677C69.4584 48.6146 69.5001 48.6354 69.5001 48.6562C69.5897 48.9253 69.7012 49.1866 69.8334 49.4375C69.8334 49.5052 69.948 49.5521 70.0105 49.6093L70.349 49.4844L70.4845 49.6718L70.7345 49.7343C70.9021 49.7985 71.0876 49.7985 71.2553 49.7343C71.324 49.7203 71.3949 49.7203 71.4636 49.7343L71.7501 49.8802C71.9168 49.7916 71.8178 49.6198 71.9063 49.5208C71.9949 49.4219 72.2865 49.3593 72.3907 49.1666L72.9115 49.2187C72.8803 49.0625 72.7553 49.0573 72.6772 49C72.6301 48.9698 72.5906 48.9292 72.5617 48.8814C72.5328 48.8335 72.5153 48.7796 72.5105 48.7239L72.8074 47.8698L72.5261 47.1614H72.3074L72.1511 46.9271V46.6094L71.948 46.3541C71.9115 46.1198 72.0418 45.8802 71.849 45.6927C71.6147 45.6302 71.5261 45.8437 71.3751 45.9114L71.2709 46.1823C71.2268 46.2089 71.1776 46.226 71.1265 46.2322C71.0753 46.2385 71.0234 46.2338 70.9742 46.2186C70.925 46.2033 70.8796 46.1778 70.8409 46.1437C70.8023 46.1096 70.7713 46.0677 70.7501 46.0208V45.9896C70.6887 45.8737 70.5991 45.7752 70.4897 45.7031C70.433 45.6616 70.3806 45.6145 70.3334 45.5625C70.1042 45.3489 69.9845 45.3385 69.6824 45.5625L69.6042 45.9479C69.5488 45.9712 69.4865 45.9723 69.4303 45.951C69.3741 45.9296 69.3282 45.8875 69.3022 45.8333L69.1459 45.6406C68.9805 45.4446 68.7916 45.2696 68.5834 45.1198C68.4011 45.2031 68.3543 45.2812 68.422 45.4062C68.4626 45.4777 68.5115 45.5442 68.5678 45.6041L68.8751 46C68.8797 46.07 68.87 46.1403 68.8467 46.2065C68.8235 46.2727 68.787 46.3336 68.7397 46.3854C68.6651 46.4482 68.6078 46.529 68.5731 46.6201C68.5385 46.7113 68.5277 46.8097 68.5417 46.9062V47.0156C68.5447 47.0623 68.5296 47.1084 68.4996 47.1442C68.4695 47.1801 68.4268 47.2031 68.3803 47.2083C68.1824 47.2083 68.0522 46.9583 67.8282 47.0521L67.797 47.1666C67.9428 47.247 68.0806 47.3412 68.2084 47.4479C68.3125 47.5836 68.4098 47.7244 68.5001 47.8698ZM69.2397 43.1458L69.1928 43.1094L69.1615 43.1875H69.2188L69.2397 43.1458ZM66.8022 68.0156L66.8178 67.9687L66.8751 67.9896L66.8595 68.0364L66.8022 68.0156ZM80.073 61.2083L80.099 61.1927L80.1147 61.2135L80.0886 61.2344L80.073 61.2083ZM82.0418 78.0468L82.1563 78.1354C82.2813 78.1041 82.349 78.0573 82.3178 77.9271C82.2865 77.7968 82.2032 77.8281 82.1407 77.8802C82.0976 77.9291 82.064 77.9856 82.0418 78.0468ZM81.5209 76.5625C81.6199 76.651 81.6876 76.5625 81.724 76.5625C81.6511 76.5208 81.5782 76.4791 81.5209 76.5625ZM81.2292 63.4375C81.3126 63.4844 81.3699 63.5625 81.4428 63.4375C81.5157 63.3125 81.4063 63.3073 81.2813 63.3073L81.2292 63.4375ZM81.8074 62.2291L81.5834 61.6718C81.172 61.4635 80.8699 61.6302 80.599 62.1927L80.7918 62.4843H80.6459C80.533 62.4574 80.418 62.44 80.3022 62.4323C80.1042 62.4288 80.0053 62.5295 80.0053 62.7344V63.2552C80.1824 63.4114 80.2657 63.6562 80.5261 63.6666L81.0001 63.2604L81.1147 62.7864C81.2957 62.7529 81.4646 62.6721 81.6042 62.5521C81.6876 62.4479 81.8022 62.3958 81.8074 62.2291ZM80.047 67.1146C79.8699 67.1562 79.8074 67.3073 79.724 67.5156C79.9845 67.4739 80.0678 67.4323 80.1251 67.3021C80.1404 67.2714 80.1435 67.2361 80.1339 67.2033C80.1242 67.1704 80.1025 67.1424 80.073 67.125L80.047 67.1146ZM81.0365 76.5677L81.0626 76.5521L81.0834 76.5781L81.0626 76.5937L81.0365 76.5677ZM80.2501 68.9427C80.2374 69.0081 80.2374 69.0752 80.2501 69.1406C80.6095 69.0364 80.6667 68.901 80.4792 68.6198C80.3074 68.7864 80.2761 68.8229 80.2501 68.9427ZM80.5834 77.8229L80.599 77.8073L80.5782 77.8021L80.5834 77.8229ZM80.7553 85.0573L80.8282 85.1093C80.8595 85.1093 80.8803 85.0573 80.9272 85.0052C80.8647 85.0052 80.8282 84.9687 80.8074 85.0052C80.7842 85.0156 80.7657 85.0341 80.7553 85.0573ZM80.9636 69.0156H80.8595L80.9011 69.2187H81.0782C81.0782 69.0989 81.0782 69.0312 80.9636 69.0156ZM80.198 56.6094L80.2032 56.5781L80.2292 56.5833V56.6146L80.198 56.6094ZM79.7761 55.9062V55.8646C79.8104 55.8099 79.8315 55.7481 79.8379 55.684C79.8442 55.6198 79.8355 55.555 79.8126 55.4948L79.4688 55.276C79.2032 55.3489 79.1355 55.5625 79.0105 55.7969L79.3334 56.0104C79.369 56.0339 79.4089 56.0498 79.4508 56.0573C79.4928 56.0648 79.5358 56.0636 79.5773 56.0538C79.6187 56.0441 79.6577 56.026 79.6919 56.0006C79.7261 55.9752 79.7548 55.9431 79.7761 55.9062ZM79.5313 60.9739C79.7963 61.0267 80.0712 60.9958 80.3178 60.8854L81.047 61.2656C81.3595 61.0989 81.7032 61.2656 82.0418 61.2344C82.1517 61.1405 82.2481 61.0318 82.3282 60.9114C82.4232 60.6994 82.5864 60.5253 82.7918 60.4166C82.7642 60.3133 82.7597 60.2051 82.7786 60.0998C82.7975 59.9945 82.8393 59.8946 82.9011 59.8073L83.2084 59.7187V59.5312C83.1095 59.4114 83.0053 59.4479 82.9011 59.4583C82.8503 59.4665 82.7982 59.4557 82.7549 59.4278C82.7117 59.3999 82.6802 59.357 82.6667 59.3073C82.7133 59.0719 82.7922 58.844 82.9011 58.6302L82.797 58.5521L82.6303 58.651L82.2709 58.4427V58.2291C82.2709 58.1458 82.2188 58.1059 82.1147 58.1093C82.0157 58.1146 81.849 58.4166 81.5938 58.2916L81.3543 57.9844L81.1355 58.1562L80.8647 58.0104C80.6378 58.1218 80.433 58.2736 80.2605 58.4583L79.8803 58.3646C79.8042 58.425 79.7489 58.5076 79.7218 58.6009C79.6947 58.6942 79.6973 58.7936 79.7292 58.8854C79.7849 59.0545 79.7849 59.2371 79.7292 59.4062C79.573 59.5833 79.448 59.7187 79.3282 59.8646C79.2797 59.9292 79.2168 59.9817 79.1445 60.0179C79.0721 60.0541 78.9924 60.0729 78.9115 60.0729H78.7188L78.3803 60.4323V60.5885L78.4272 60.9271C78.4966 61.0027 78.5802 61.0639 78.6733 61.1071C78.7663 61.1504 78.867 61.1749 78.9695 61.1793C79.0721 61.1836 79.1745 61.1677 79.2709 61.1325C79.3673 61.0973 79.4558 61.0434 79.5313 60.9739ZM80.3647 53.6458C80.1199 53.6458 80.0782 53.6771 80.0938 53.8698C80.297 53.8906 80.3074 53.8854 80.3647 53.6458ZM66.4845 56.375C66.5075 56.3731 66.5306 56.3763 66.5522 56.3844C66.5738 56.3925 66.5934 56.4053 66.6095 56.4219C66.647 56.3579 66.6668 56.2851 66.6668 56.2109C66.6668 56.1367 66.647 56.0639 66.6095 56C66.5477 55.9895 66.4842 56.0016 66.4306 56.0341C66.377 56.0666 66.337 56.1174 66.3178 56.1771L66.4845 56.375ZM82.823 56.7239L82.849 56.7083L82.8647 56.7448L82.8438 56.7552L82.823 56.7239ZM82.172 76.4479C82.1327 76.4416 82.0926 76.4505 82.0597 76.4728C82.0268 76.495 82.0036 76.529 81.9949 76.5677C82.1251 76.6927 82.2657 76.625 82.3959 76.6146C82.5902 76.624 82.7832 76.5789 82.9532 76.4844C82.9185 76.4357 82.8907 76.4045 82.8699 76.3906C82.6251 76.2552 82.4115 76.4739 82.172 76.4479ZM78.1824 85.0573C78.1824 85.0573 78.2397 85.1041 78.2605 85.0989C78.2813 85.0937 78.3022 85.0521 78.3282 85.0156C78.3542 84.9791 78.2501 84.9739 78.2292 84.9791C78.2084 84.9843 78.198 85.0312 78.1824 85.0573ZM82.4845 63.4166L82.4532 63.4635L82.5001 63.5L82.5417 63.4635L82.4845 63.4166ZM82.9376 73.7604L82.8386 73.7239C82.8264 73.7331 82.8163 73.7448 82.8091 73.7583C82.8019 73.7719 82.7977 73.7868 82.797 73.8021C82.805 73.8146 82.8157 73.8254 82.8283 73.8334C82.8409 73.8415 82.8551 73.8468 82.8699 73.8489C82.8959 73.8489 82.9063 73.8021 82.9376 73.7604ZM82.9428 63.3021L82.948 63.276L82.9688 63.2812V63.3073L82.9428 63.3021ZM47.297 72.0989C47.2657 72.0989 47.2188 72.0989 47.2188 72.1614ZM49.7761 82.0573C49.6563 81.9531 49.6563 81.9531 49.4793 82.0573ZM90.797 70.2343C90.849 70.1041 90.9115 70.1198 90.9897 70.1614ZM90.4532 86.3958C90.3751 86.4635 90.3751 86.4635 90.2761 86.3958ZM84.8855 57.0833V57.1302ZM73.1511 60.651C73.1511 60.8021 73.1511 60.8021 72.9949 60.7864ZM73.5678 47.7239C73.5157 47.8316 73.448 47.8593 73.3647 47.8073ZM72.4428 49.5885L72.3803 49.6614V49.7656M73.8022 55.7291C73.6668 55.8125 73.6667 55.8125 73.7605 55.9323ZM71.6303 54.1666C71.4532 54.1354 71.4532 54.1354 71.4793 53.9739ZM71.4063 56.8646C71.2987 56.8298 71.2796 56.7673 71.349 56.6771ZM81.8542 76.5625C81.8126 76.4948 81.7865 76.5625 81.724 76.5625ZM80.073 74.8698C79.9897 74.9896 79.9897 74.9896 79.8751 74.9062ZM24.4584 62.5833C24.5261 62.4948 24.5678 62.5573 24.6303 62.5833ZM27.3542 85.9375C27.448 86.0364 27.448 86.0364 27.3542 86.1302ZM43.2449 68.776C43.296 68.8062 43.3559 68.8179 43.4146 68.8094C43.4733 68.8009 43.5274 68.7726 43.5678 68.7291M41.0574 66.7031C41.0574 66.8385 41.0574 66.8385 40.9272 66.8229ZM58.1928 72.5885C58.1407 72.6771 58.0834 72.6302 58.0209 72.5885ZM52.422 65.6719L52.474 65.4583ZM51.8907 73.0156C51.7397 72.9531 51.7397 72.9531 51.6772 73.0833ZM55.5157 80.3125C55.4272 80.3594 55.3647 80.3854 55.3074 80.3125ZM70.8022 79.6718L70.6251 79.7031ZM76.8699 50.6198C76.9897 50.5104 76.9897 50.5104 77.0626 50.6198ZM64.4115 83.125C64.3768 83.2291 64.323 83.2604 64.2501 83.2187ZM74.9272 52.4844L74.9949 52.3646C74.9882 52.3142 74.9741 52.265 74.9532 52.2187C74.8724 52.2086 74.7903 52.2175 74.7136 52.2448C74.6158 52.2787 74.5216 52.3224 74.4324 52.375C74.5088 52.4271 74.5869 52.4757 74.6667 52.5208C74.7086 52.5422 74.7561 52.5502 74.8027 52.5436C74.8493 52.5371 74.8927 52.5164 74.9272 52.4844ZM92.0938 112.594H93.849V113.974H92.0938V112.594ZM63.1667 33.3333L63.2292 33.4114L63.2709 33.3125L63.2292 33.276C63.2035 33.289 63.1819 33.3088 63.1667 33.3333ZM65.8543 33.0573L65.8751 33.0416L65.8907 33.0625L65.8699 33.0781L65.8543 33.0573ZM63.7813 37.4218C63.8193 37.3937 63.8449 37.3519 63.8527 37.3053C63.8605 37.2586 63.8498 37.2108 63.823 37.1719C63.6667 37.1719 63.6563 37.1719 63.6199 37.2396L63.3699 37.6458V37.7083H63.4324L63.7813 37.4218ZM61.7084 39.0781L61.7605 39.1041L61.7709 39.0521L61.724 39.026L61.7084 39.0781ZM61.6876 31.25C61.6053 31.2806 61.532 31.3314 61.4747 31.3979C61.4173 31.4644 61.3777 31.5443 61.3595 31.6302C61.3595 31.9271 61.4115 32.2135 61.7761 32.2812C62.0313 32.2448 62.1563 32.0468 62.297 31.8437V31.6302C62.3005 31.5887 62.2957 31.5469 62.2829 31.5073C62.2701 31.4677 62.2495 31.4311 62.2224 31.3995C62.1952 31.368 62.162 31.3422 62.1247 31.3237C62.0874 31.3052 62.0468 31.2943 62.0053 31.2916C61.9006 31.2696 61.7944 31.2557 61.6876 31.25ZM60.3647 32.6458C60.3126 32.8229 60.3178 32.8281 60.547 32.8021L60.3647 32.6458ZM63.0574 38.7552L62.7709 38.4062L62.3647 38.4948L62.2813 38.6614C62.3595 39.0312 62.3595 39.0312 62.5938 39.1823C62.9532 39.1458 63.0001 39.1041 63.0574 38.7552ZM59.948 35.276C59.948 35.3489 59.948 35.4166 60.0417 35.4479C60.1741 35.3859 60.2902 35.2938 60.3806 35.1789C60.471 35.0641 60.5333 34.9297 60.5626 34.7864L60.448 34.6875C60.2763 34.8322 60.124 34.9985 59.9949 35.1823L59.948 35.276ZM62.047 33.401L61.823 33.7239C61.8295 33.8954 61.9009 34.058 62.0227 34.1789C62.1446 34.2997 62.3077 34.3698 62.4792 34.375H62.6199C62.7727 34.2284 62.8639 34.0291 62.8751 33.8177C62.8394 33.702 62.7791 33.5955 62.6981 33.5056C62.6172 33.4157 62.5176 33.3444 62.4063 33.2969C62.3439 33.2682 62.2733 33.263 62.2073 33.2822C62.1413 33.3013 62.0844 33.3435 62.047 33.401ZM22.4792 22.4062L22.5053 22.3906L22.5313 22.4219L22.5001 22.4375L22.4792 22.4062ZM76.1095 22.9896L76.1407 22.9479L76.1615 22.9687L76.1303 23.0052L76.1095 22.9896ZM74.5105 23.1406H74.5365V23.1719H74.5105V23.1406ZM52.4532 39.3854C52.3942 39.4236 52.3942 39.4722 52.4532 39.5312C52.5157 39.5885 52.5574 39.4843 52.5417 39.4166L52.4532 39.3854ZM52.0365 36.3489L52.0574 36.3333L52.0782 36.3646L52.0522 36.3802L52.0365 36.3489ZM56.7501 37.8229L56.672 37.7396C56.6206 37.7614 56.5732 37.7913 56.5313 37.8281C56.4071 37.9826 56.3134 38.1594 56.2553 38.3489C56.6667 38.0937 56.6824 38.0781 56.7501 37.8229ZM56.047 38.5364L56.099 38.4687L56.1303 38.4896L56.0782 38.5625L56.047 38.5364ZM53.7605 34.7291C53.9146 34.8764 54.0369 35.0537 54.1199 35.25C54.2177 35.3443 54.3486 35.3966 54.4845 35.3958C54.6126 35.3891 54.7387 35.4299 54.8386 35.5104C54.9515 35.5927 55.0856 35.6409 55.225 35.6492C55.3644 35.6575 55.5033 35.6256 55.6251 35.5573L56.0001 35.4114L56.198 35.0677L56.0626 34.8958L56.0001 34.7239C55.7813 34.5104 55.5209 34.5729 55.3542 34.5364C55.0592 34.3986 54.8005 34.1934 54.599 33.9375C54.3233 33.9124 54.0453 33.9425 53.7813 34.026L53.599 34.4531L53.6563 34.5989C53.6838 34.6476 53.719 34.6916 53.7605 34.7291ZM53.2292 37.7396C53.2373 37.7156 53.2404 37.6903 53.2384 37.6652C53.2364 37.64 53.2294 37.6155 53.2177 37.5932C53.2061 37.5708 53.19 37.551 53.1705 37.535C53.151 37.519 53.1285 37.5071 53.1043 37.5H53.073L52.9167 37.6146C53.0522 37.8541 53.0522 37.8541 53.2292 37.7396ZM65.797 36.4948C65.7952 36.4878 65.792 36.4812 65.7875 36.4755C65.7831 36.4698 65.7775 36.465 65.7711 36.4616C65.7648 36.4582 65.7578 36.4561 65.7505 36.4555C65.7433 36.455 65.7361 36.4559 65.7292 36.4583L65.6407 36.5312C65.7188 36.5625 65.7501 36.5885 65.7761 36.5833C65.7861 36.5711 65.7931 36.5568 65.7967 36.5414C65.8003 36.5261 65.8004 36.5101 65.797 36.4948ZM59.0938 33.7135C59.0574 33.7135 59.0261 33.7656 59.0001 33.7916C59.0626 33.9166 59.1407 33.9166 59.2501 33.8437C59.1876 33.6979 59.1824 33.6875 59.0938 33.7135ZM59.6876 27.3594C59.74 27.4571 59.7819 27.5601 59.8126 27.6666C59.8951 27.9875 60.0775 28.2739 60.3334 28.4844C60.48 28.4323 60.64 28.4323 60.7865 28.4844C60.8751 28.5066 60.9661 28.5171 61.0574 28.5156H61.3542C61.6412 28.3833 61.8889 28.1787 62.073 27.9219C62.1051 27.8729 62.1528 27.8362 62.2084 27.8177C62.5115 27.6688 62.7582 27.4258 62.9115 27.125L63.3022 26.9062L63.448 27.0469C63.6251 27.0833 63.7032 26.9844 63.7293 26.8021L63.4897 26.4896C63.5834 26.3437 63.6043 26.3229 63.6668 26.3229C63.7355 26.3089 63.8063 26.3089 63.8751 26.3229C63.9428 26.3346 64.0122 26.3329 64.0792 26.3177C64.1463 26.3025 64.2097 26.2742 64.2657 26.2344C64.3955 26.0811 64.4945 25.9043 64.5574 25.7135L64.4845 25.4531L64.198 25.1354L63.922 25C63.797 24.7448 64.0001 24.6041 64.0417 24.4323C64.0445 24.24 63.9941 24.0507 63.8959 23.8854L64.0157 23.1406C63.9716 23.0641 63.9088 23.0001 63.8332 22.9545C63.7576 22.909 63.6716 22.8834 63.5834 22.8802L63.2657 23.125C63.1833 22.989 63.0946 22.857 63.0001 22.7291C62.8276 22.5638 62.6849 22.37 62.5782 22.1562C62.5565 22.1072 62.5242 22.0636 62.4837 22.0285C62.4432 21.9934 62.3954 21.9676 62.3438 21.9531C62.1506 21.9033 61.9456 21.9294 61.7709 22.026L61.6668 22.3177L61.5938 22.4062L61.3126 22.3594L60.8959 22.5885L60.9428 23.026L60.7188 23.2708C60.6722 23.5434 60.6883 23.823 60.7657 24.0885L60.6667 24.3125L60.7084 25.151L60.6042 25.3698L60.0834 25.4896L59.7865 25.8594C59.7148 25.9479 59.6686 26.0544 59.653 26.1673C59.6374 26.2802 59.6529 26.3953 59.698 26.5C59.7757 26.6991 59.7902 26.9173 59.7397 27.125L59.6876 27.3594ZM63.2709 25.7969L63.2449 25.6094H63.2709V25.7969ZM60.349 30.5364L60.4167 30.4375C60.4645 30.171 60.4066 29.8964 60.2553 29.6719C60.1692 29.6074 60.0712 29.5606 59.9669 29.5341C59.8627 29.5076 59.7542 29.502 59.6478 29.5174C59.5414 29.5329 59.439 29.5693 59.3466 29.6244C59.2543 29.6794 59.1737 29.7522 59.1095 29.8385C59.0745 29.8807 59.0463 29.9282 59.0261 29.9791V30.3802L59.1615 30.6927C59.2491 30.7622 59.3497 30.8133 59.4573 30.8432C59.565 30.873 59.6776 30.8808 59.7884 30.8662C59.8992 30.8517 60.0059 30.815 60.1022 30.7583C60.1985 30.7016 60.2825 30.6262 60.349 30.5364ZM56.547 30.2083C56.5761 30.1445 56.5921 30.0754 56.5938 30.0052C56.5384 29.9774 56.4784 29.9598 56.4167 29.9531C56.3831 29.9572 56.3517 29.9721 56.3273 29.9956C56.3029 30.0191 56.2867 30.0499 56.2813 30.0833C56.2743 30.1171 56.2786 30.1524 56.2937 30.1835C56.3088 30.2146 56.3337 30.2398 56.3647 30.2552C56.3794 30.2653 56.3961 30.2721 56.4136 30.2752C56.4312 30.2783 56.4492 30.2776 56.4665 30.2731C56.4837 30.2687 56.4998 30.2606 56.5137 30.2494C56.5276 30.2383 56.5389 30.2242 56.547 30.2083ZM65.2709 39.1041L65.3022 39.0937L65.3126 39.1146L65.2813 39.1302L65.2709 39.1041ZM64.9324 37.7135L64.9584 37.6927L64.9792 37.7187L64.9532 37.7396L64.9324 37.7135ZM58.6824 35.5312C58.6732 35.519 58.6615 35.5089 58.648 35.5017C58.6345 35.4945 58.6195 35.4903 58.6042 35.4896C58.5926 35.4982 58.5829 35.5091 58.5757 35.5216C58.5686 35.5342 58.5641 35.5481 58.5626 35.5625L58.6459 35.625L58.6824 35.5312ZM57.0157 34.4739L57.047 34.4375L57.0678 34.4531L57.0365 34.4896L57.0157 34.4739ZM66.2865 26.3333C66.3409 26.3103 66.384 26.2668 66.4065 26.2121C66.4289 26.1575 66.4289 26.0962 66.4063 26.0416C66.073 25.7604 66.0209 25.75 65.7188 25.9479C65.6718 26.0935 65.6718 26.2502 65.7188 26.3958L65.9428 26.5156C66.0539 26.4462 66.1685 26.3854 66.2865 26.3333ZM71.5834 37.9739C71.5122 37.902 71.4216 37.8523 71.3226 37.831C71.2236 37.8098 71.1206 37.8178 71.0261 37.8541L70.9272 38.0781C71.0365 38.25 71.1251 38.3906 71.323 38.401C71.4845 38.3073 71.6251 38.2031 71.5834 37.9739ZM70.6615 35.9218L70.6042 35.9114L70.5886 35.9687L70.6459 35.9791L70.6615 35.9218ZM68.2657 32.2656L68.2865 32.25L68.3074 32.276L68.2865 32.2916L68.2657 32.2656ZM68.8282 32.3333L68.8699 32.7083H69.0053C69.0374 32.6963 69.066 32.6767 69.0886 32.651C69.172 32.5208 69.1251 32.4114 69.0105 32.3073H68.8438C68.8861 32.134 68.9828 31.9788 69.1199 31.8646C69.1199 31.6979 69.1199 31.5937 68.9115 31.5729C68.8751 31.6302 68.8178 31.6771 68.8022 31.7396C68.7569 31.9112 68.7204 32.085 68.6928 32.2604C68.6795 32.3274 68.6795 32.3965 68.6928 32.4635L68.797 32.375L68.8282 32.3333ZM50.698 38.901L50.6772 38.9479ZM67.5105 31.375C67.4011 31.2344 67.4011 31.2344 67.5105 31.1458ZM68.7293 32.4531C68.599 32.5625 68.599 32.5625 68.6407 32.6875ZM72.9584 38.9479C73.0834 38.9166 73.0834 38.9166 73.0678 38.7916ZM64.922 27.2708C64.9162 27.3384 64.9327 27.4061 64.9688 27.4635ZM63.2449 25.7812L63.2709 25.7969L63.2449 25.5729L63.2188 25.5937L63.2449 25.7812Z" fill="white"/>
</svg>
