<svg width="25" height="25" viewBox="0 0 25 25" fill="none" xmlns="http://www.w3.org/2000/svg">
<path d="M21.4288 19.5937V19.1537H18.5488V20.4937L18.5668 20.6457C18.5674 20.7764 18.6146 20.9026 18.6998 21.0017C18.8272 21.1156 18.9929 21.1774 19.1638 21.1747H20.7578C20.8398 21.1833 20.8808 21.25 20.8808 21.3747V22.0997C20.8855 22.153 20.8736 22.2064 20.8468 22.2527C20.821 22.2844 20.7861 22.3074 20.7468 22.3187H18.5488V22.7527H20.8118C20.9054 22.7539 20.9985 22.7386 21.0868 22.7077C21.1565 22.684 21.2197 22.6446 21.2718 22.5926C21.3238 22.5406 21.3631 22.4773 21.3868 22.4077C21.411 22.341 21.4232 22.2706 21.4228 22.1997L21.4288 22.0577V21.2747C21.4317 21.1364 21.3824 21.0022 21.2908 20.8987C21.2285 20.8388 21.1548 20.7922 21.074 20.7616C20.9932 20.731 20.9071 20.7171 20.8208 20.7207H19.2458C19.2061 20.7157 19.1689 20.699 19.1388 20.6727C19.1093 20.6289 19.0966 20.576 19.1028 20.5237V19.5937H21.4288ZM17.6598 19.4977C17.633 19.4352 17.5958 19.3777 17.5498 19.3277C17.4981 19.2745 17.4353 19.2335 17.3658 19.2077C17.276 19.1746 17.1815 19.156 17.0858 19.1527H14.8288V19.5937H17.0228C17.0641 19.6029 17.1 19.628 17.1228 19.6637C17.1509 19.7135 17.1679 19.7687 17.1728 19.8257V20.5257C17.1774 20.5746 17.1661 20.6236 17.1408 20.6657C17.113 20.6919 17.0783 20.7096 17.0408 20.7167H15.4408C15.3563 20.7135 15.272 20.7273 15.193 20.7574C15.114 20.7875 15.0418 20.8331 14.9808 20.8917C14.8913 20.9948 14.841 21.1261 14.8388 21.2627L14.8218 21.4127V22.7527H17.7118V22.3137H15.3758V21.3787C15.3733 21.3275 15.384 21.2765 15.4068 21.2307C15.421 21.214 15.4384 21.2005 15.458 21.1909C15.4776 21.1812 15.499 21.1757 15.5208 21.1747H17.1078C17.2059 21.1689 17.3026 21.1487 17.3948 21.1147C17.4623 21.09 17.5237 21.0512 17.5748 21.0007C17.6179 20.9553 17.6497 20.9005 17.6678 20.8407C17.6889 20.7773 17.7037 20.712 17.7118 20.6457L17.7228 20.4927V19.8287L17.7128 19.7027C17.7021 19.6326 17.685 19.5639 17.6598 19.4977ZM11.6338 19.3297C11.5777 19.2777 11.5122 19.237 11.4408 19.2097C11.3462 19.176 11.2471 19.1568 11.1468 19.1527H6.96581C6.86666 19.1556 6.76867 19.1748 6.67581 19.2097C6.60477 19.2371 6.53961 19.2778 6.48381 19.3297C6.4352 19.3761 6.39762 19.4328 6.37381 19.4957C6.35075 19.5577 6.33661 19.6227 6.33181 19.6887L6.32181 19.8567V22.7527H6.90181V19.8127C6.89705 19.7589 6.90855 19.7049 6.93481 19.6577C6.95936 19.625 6.99487 19.6023 7.03481 19.5937H8.76181V22.7537H9.35181V19.5937H11.0758C11.1183 19.6014 11.1567 19.6241 11.1838 19.6577C11.2119 19.7039 11.2248 19.7577 11.2208 19.8117V22.7527H11.8008V19.6967C11.7898 19.6283 11.7717 19.5613 11.7468 19.4967C11.7212 19.434 11.6831 19.3772 11.6348 19.3297M5.38481 19.1527H3.71981C3.62623 19.1552 3.53383 19.1742 3.44681 19.2087C3.37698 19.2344 3.31377 19.2754 3.26181 19.3287C3.21537 19.3776 3.17931 19.4354 3.15581 19.4987C3.13141 19.5628 3.11659 19.6302 3.11181 19.6987L3.10181 19.8597V22.7527H3.65481V21.1727H5.37481C5.4702 21.1738 5.56502 21.1579 5.65481 21.1257C5.7286 21.0994 5.79655 21.059 5.85481 21.0067C5.90406 20.9596 5.94172 20.9018 5.96481 20.8377C5.98741 20.7734 5.99891 20.7058 5.99881 20.6377V19.6887C5.99277 19.5536 5.93972 19.4248 5.84881 19.3247C5.7218 19.2088 5.55461 19.1471 5.38281 19.1527M5.44681 20.5287C5.45203 20.5812 5.44048 20.6341 5.41381 20.6797C5.3896 20.7066 5.35591 20.7231 5.31981 20.7257H3.65581V19.8167C3.6529 19.7633 3.66429 19.7101 3.68881 19.6627C3.7127 19.6293 3.7485 19.6064 3.78881 19.5987H5.31581C5.35611 19.6064 5.39192 19.6293 5.41581 19.6627C5.44033 19.7101 5.45172 19.7633 5.44881 19.8167L5.44681 20.5287ZM10.7668 13.6907H10.7718V13.6967H10.7668V13.6907ZM10.7418 15.8007V15.7957L10.7488 15.7967V15.8017L10.7418 15.8007ZM10.9398 14.4537C10.9562 14.4475 10.9707 14.4372 10.9818 14.4237C10.9938 14.4117 10.9968 14.3957 10.9748 14.3797C10.9159 14.3885 10.859 14.4078 10.8068 14.4367C10.8068 14.4677 10.8268 14.4727 10.8428 14.4707C10.8754 14.4666 10.9078 14.4609 10.9398 14.4537ZM10.7888 11.2797L10.7968 11.2877L10.8058 11.2797L10.8008 11.2687L10.7888 11.2797ZM10.6738 16.1967L10.6748 16.1907L10.6818 16.1927L10.6808 16.1987L10.6738 16.1967ZM11.2778 14.1227C11.2869 14.1096 11.2928 14.0945 11.2949 14.0786C11.297 14.0628 11.2952 14.0467 11.2898 14.0317C11.2819 14.0239 11.2716 14.019 11.2605 14.0177C11.2495 14.0164 11.2383 14.0189 11.2288 14.0247C11.2126 14.0315 11.1984 14.0426 11.1878 14.0567C11.1805 14.0661 11.1773 14.078 11.1788 14.0898C11.1803 14.1016 11.1864 14.1124 11.1958 14.1197C11.2069 14.1299 11.2212 14.1358 11.2363 14.1364C11.2513 14.1369 11.266 14.132 11.2778 14.1227ZM10.7038 10.9117C10.717 10.9104 10.7296 10.9059 10.7406 10.8986C10.7516 10.8913 10.7606 10.8813 10.7668 10.8697V10.7977C10.7038 10.7697 10.7038 10.7697 10.6598 10.7837C10.645 10.7974 10.6353 10.8158 10.6323 10.8357C10.6292 10.8557 10.6329 10.8761 10.6428 10.8937C10.6512 10.9007 10.6609 10.9059 10.6714 10.909C10.6819 10.9121 10.6929 10.913 10.7038 10.9117ZM10.8178 17.3247L10.8328 17.3377C10.8328 17.3287 10.8408 17.3227 10.8388 17.3187C10.8355 17.3147 10.8308 17.3113 10.8248 17.3087C10.8198 17.3057 10.8168 17.3247 10.8178 17.3247ZM10.6598 15.2247C10.681 15.2171 10.6997 15.2037 10.7137 15.186C10.7276 15.1683 10.7364 15.1471 10.7388 15.1247C10.7179 15.1241 10.6976 15.1318 10.6823 15.146C10.667 15.1602 10.6578 15.1798 10.6568 15.2007L10.6598 15.2247ZM10.6738 16.2627L10.6818 16.2497L10.7018 16.2597L10.6928 16.2737L10.6738 16.2627ZM11.0958 12.2907H11.1218L11.1278 12.2377H11.0948C11.0885 12.2451 11.0851 12.2546 11.0853 12.2644C11.0855 12.2741 11.0892 12.2835 11.0958 12.2907ZM10.7828 8.91667L10.7878 8.91167L10.7908 8.91567L10.7858 8.92067L10.7828 8.91667ZM11.1088 10.0407L11.1138 10.0437L11.1128 10.0377L11.1088 10.0407ZM11.1038 10.4067C11.0851 10.399 11.0641 10.399 11.0454 10.4067C11.0267 10.4144 11.0118 10.4291 11.0038 10.4477C10.9945 10.4682 10.9917 10.4911 10.9958 10.5133C10.9999 10.5355 11.0107 10.5559 11.0268 10.5717C11.0768 10.5837 11.0938 10.5837 11.1168 10.5717C11.1383 10.5555 11.1538 10.5327 11.1608 10.5067C11.1639 10.4966 11.165 10.4861 11.164 10.4756C11.163 10.4651 11.1599 10.455 11.155 10.4457C11.1501 10.4364 11.1434 10.4282 11.1353 10.4215C11.1272 10.4148 11.1179 10.4098 11.1078 10.4067H11.1038ZM11.0308 14.1307C10.9978 14.1427 10.9978 14.1427 10.9988 14.1717C11.0388 14.1697 11.0408 14.1627 11.0308 14.1307ZM10.9938 9.89867L10.9948 9.89467H11.0008V9.90067L10.9938 9.89867ZM11.1598 14.9917L11.1678 14.9527C11.1682 14.9382 11.1703 14.9237 11.1738 14.9097C11.1398 14.8667 11.1168 14.9097 11.0898 14.9097C11.0592 14.9068 11.0284 14.9068 10.9978 14.9097C10.9468 14.9097 10.9148 14.9597 10.8708 14.9727L10.8378 15.0407C10.8512 15.0993 10.8512 15.1601 10.8378 15.2187C10.8608 15.2537 10.8858 15.2267 10.9118 15.2337L10.9368 15.2667V15.3307C10.9738 15.3397 10.9788 15.2957 11.0058 15.2927H11.0718L11.1238 15.3397L11.1538 15.3187L11.1608 15.2457L11.2088 15.2037V15.1377C11.2288 15.0997 11.2628 15.0957 11.2928 15.0867L11.3038 15.0697V15.0457C11.2975 15.0356 11.2883 15.0277 11.2774 15.0229C11.2665 15.0181 11.2545 15.0166 11.2428 15.0187C11.2278 15.0207 11.2126 15.0194 11.1982 15.0147C11.1838 15.01 11.1707 15.0022 11.1598 14.9917ZM11.1478 10.2807L11.1798 10.2897L11.2118 10.2837C11.2213 10.2827 11.2305 10.2798 11.2389 10.2751C11.2472 10.2705 11.2545 10.2642 11.2603 10.2566C11.2661 10.249 11.2703 10.2403 11.2726 10.231C11.275 10.2217 11.2754 10.2121 11.2738 10.2027V10.1837L11.2528 10.1377C11.2376 10.1294 11.2208 10.1244 11.2036 10.1232C11.1863 10.122 11.169 10.1246 11.1528 10.1307C11.1419 10.1347 11.1322 10.1414 11.1245 10.1501C11.1168 10.1588 11.1114 10.1693 11.1088 10.1807C11.1125 10.2169 11.1259 10.2515 11.1478 10.2807ZM11.1108 16.1417L11.1438 16.1567L11.1538 16.1357C11.1391 16.113 11.1258 16.1093 11.1138 16.1247L11.1108 16.1417ZM11.0928 17.5627C11.0838 17.5627 11.0778 17.5547 11.0738 17.5567C11.0705 17.56 11.0668 17.565 11.0628 17.5717C11.0588 17.5777 11.0748 17.5797 11.0788 17.5787C11.0821 17.576 11.0868 17.5707 11.0928 17.5627ZM11.2358 16.7087C11.2451 16.7187 11.2538 16.716 11.2618 16.7007C11.2518 16.6867 11.2428 16.6867 11.2348 16.7007L11.2358 16.7087ZM11.0768 17.6527L11.0898 17.6977L11.1248 17.6747C11.1181 17.648 11.1048 17.6383 11.0848 17.6457L11.0768 17.6527ZM10.8068 14.2157L10.8168 14.2217L10.8208 14.2117L10.8118 14.2057L10.8068 14.2157ZM10.3938 16.5257L10.3978 16.5217L10.4018 16.5267L10.3968 16.5297L10.3938 16.5257ZM10.2418 14.4437C10.2688 14.4437 10.2688 14.4437 10.2858 14.4247C10.2628 14.4017 10.2588 14.3997 10.2448 14.4077C10.2308 14.4157 10.2278 14.4247 10.2418 14.4437ZM10.3328 12.9007L10.3428 12.9077L10.3458 12.8967L10.3408 12.8937L10.3328 12.9007ZM10.3338 12.1947C10.3322 12.1949 10.3308 12.1954 10.3294 12.1963C10.3281 12.1971 10.327 12.1983 10.3263 12.1996C10.3255 12.201 10.325 12.2025 10.325 12.2041C10.3249 12.2057 10.3252 12.2072 10.3258 12.2087L10.3408 12.2207L10.3478 12.2027C10.3476 12.2011 10.3471 12.1996 10.3462 12.1983C10.3454 12.197 10.3442 12.1959 10.3428 12.1951C10.3415 12.1943 10.3399 12.1939 10.3384 12.1938C10.3368 12.1937 10.3352 12.194 10.3338 12.1947ZM10.1468 12.3177C10.1179 12.3418 10.0979 12.3749 10.0898 12.4117L10.1058 12.4907C10.1205 12.5033 10.1371 12.5138 10.1548 12.5217C10.1872 12.5334 10.2207 12.5418 10.2548 12.5467C10.2665 12.548 10.2783 12.5459 10.2888 12.5405C10.2993 12.5352 10.308 12.5269 10.3138 12.5167L10.3268 12.4287C10.3059 12.3816 10.271 12.3421 10.2268 12.3157L10.1468 12.3177ZM10.1148 13.5877C10.0698 13.6227 10.0688 13.6267 10.0828 13.6717C10.1158 13.6717 10.1278 13.6717 10.1358 13.6487C10.1385 13.6433 10.1401 13.6374 10.1405 13.6314C10.1409 13.6254 10.1401 13.6194 10.1382 13.6137C10.1362 13.6081 10.1332 13.6028 10.1291 13.5983C10.1251 13.5939 10.1202 13.5902 10.1148 13.5877ZM10.6638 8.87567L10.6668 8.87967V8.87267L10.6638 8.87567ZM10.2578 17.5277L10.2618 17.5247L10.2648 17.5287L10.2608 17.5317L10.2578 17.5277ZM10.1398 15.3667L10.1418 15.3627L10.1478 15.3657L10.1468 15.3697L10.1398 15.3667ZM10.2038 15.5887C10.2168 15.6187 10.2368 15.6237 10.2758 15.6117L10.2288 15.5717L10.2038 15.5887ZM10.0848 13.9317L10.0868 13.9277H10.0908V13.9327L10.0848 13.9317ZM10.5978 17.1827C10.586 17.1862 10.5758 17.1939 10.5694 17.2045C10.5629 17.215 10.5606 17.2275 10.5628 17.2397C10.5632 17.2758 10.5751 17.3108 10.5968 17.3397L10.6358 17.3507L10.6738 17.3037C10.676 17.2773 10.6729 17.2508 10.6648 17.2257C10.6633 17.2184 10.6603 17.2116 10.6561 17.2055C10.6519 17.1994 10.6465 17.1942 10.6403 17.1902C10.634 17.1862 10.6271 17.1835 10.6198 17.1822C10.6125 17.1809 10.605 17.1811 10.5978 17.1827ZM10.5528 14.0787L10.5408 14.0957C10.5475 14.1223 10.5618 14.132 10.5838 14.1247C10.5838 14.0877 10.5768 14.0757 10.5528 14.0787ZM10.5998 14.7607L10.6028 14.7587L10.6068 14.7647L10.6038 14.7667L10.5998 14.7607ZM10.6028 13.0207L10.6058 13.0257L10.6068 13.0167L10.6028 13.0207ZM10.6878 9.22567C10.7153 9.2371 10.7399 9.25452 10.7598 9.27667L10.8188 9.28467L10.9088 9.23267C10.9237 9.20481 10.928 9.17246 10.9208 9.14167C10.9135 9.11892 10.9004 9.09843 10.8829 9.08215C10.8654 9.06587 10.844 9.05435 10.8208 9.04867C10.8021 9.05462 10.7824 9.05626 10.763 9.05349C10.7436 9.05072 10.7251 9.04361 10.7088 9.03267C10.6688 9.07394 10.6466 9.12921 10.6468 9.18667C10.6588 9.19867 10.6708 9.21967 10.6878 9.22567ZM10.3348 15.4697C10.3378 15.4795 10.3445 15.4877 10.3534 15.4927C10.3624 15.4978 10.3729 15.4992 10.3828 15.4967C10.4078 15.4912 10.4311 15.4798 10.4507 15.4634C10.4704 15.4471 10.4859 15.4262 10.4958 15.4027C10.5098 15.3727 10.5028 15.3537 10.4728 15.3247C10.4411 15.338 10.4124 15.3578 10.3887 15.3828C10.3649 15.4077 10.3466 15.4373 10.3348 15.4697ZM10.3338 16.4017V16.4087C10.3428 16.4317 10.3468 16.4617 10.3818 16.4717C10.3927 16.4692 10.4025 16.4631 10.4096 16.4544C10.4167 16.4457 10.4206 16.4349 10.4208 16.4237C10.4218 16.4135 10.4197 16.4032 10.4147 16.3943C10.4097 16.3853 10.402 16.3781 10.3928 16.3737C10.3871 16.3713 10.381 16.3702 10.3749 16.3703C10.3687 16.3705 10.3626 16.3719 10.3571 16.3746C10.3515 16.3772 10.3466 16.381 10.3426 16.3856C10.3386 16.3903 10.3356 16.3958 10.3338 16.4017ZM10.4218 17.1807L10.4328 17.1827L10.4358 17.1717L10.4248 17.1697L10.4218 17.1807ZM10.5378 13.9887C10.5238 13.9887 10.5138 13.9987 10.5168 14.0167C10.5488 14.0407 10.5488 14.0407 10.5768 14.0037C10.565 13.996 10.5517 13.9909 10.5378 13.9887ZM10.3908 13.8157L10.3958 13.8107L10.3988 13.8147L10.3938 13.8187L10.3908 13.8157ZM10.4158 12.5197L10.4198 12.5177L10.4228 12.5217L10.4178 12.5237L10.4158 12.5197ZM11.9188 11.3867V11.3727L11.9138 11.3847V11.3967L11.9188 11.3867ZM12.5358 16.2697L12.5618 16.3017C12.5698 16.2557 12.5618 16.2527 12.5358 16.2697ZM12.6008 14.1267H12.6118V14.1387H12.6008V14.1267ZM12.6618 16.1617H12.6678V16.1717H12.6618V16.1617ZM12.0458 16.9987C12.0534 17.0069 12.0631 17.0129 12.0739 17.0159C12.0847 17.0189 12.0961 17.0188 12.1068 17.0157L12.1138 17.0047C12.0988 16.9767 12.0828 16.9737 12.0648 16.9767C12.0468 16.9797 12.0438 16.9827 12.0458 16.9987ZM12.7178 17.1537C12.7318 17.1097 12.7248 17.1007 12.6798 17.1027C12.6618 17.1427 12.6718 17.1527 12.7178 17.1537ZM11.8458 9.14167L11.8508 9.13567L11.8558 9.13967L11.8508 9.14567L11.8458 9.14167ZM12.3838 11.8127C12.3898 11.8367 12.4011 11.844 12.4178 11.8347C12.4288 11.8067 12.4278 11.8047 12.4078 11.7947L12.3838 11.8127ZM12.2858 16.9787H12.3058V16.9697H12.2898L12.2858 16.9787ZM12.1818 16.1847C12.1468 16.2237 12.0998 16.2497 12.1088 16.3127C12.1179 16.3352 12.1314 16.3557 12.1486 16.3729C12.1658 16.3901 12.1863 16.4036 12.2088 16.4127L12.2938 16.4057L12.3528 16.3147C12.3381 16.2641 12.3089 16.2189 12.2688 16.1847H12.1818ZM13.0138 14.4927L13.0148 14.4877L13.0198 14.4887L13.0188 14.4937L13.0138 14.4927ZM12.9398 15.7997V15.7947L12.9478 15.7957L12.9468 15.8007L12.9398 15.7997ZM10.1868 15.6057C10.1608 15.5977 10.1408 15.5887 10.1188 15.5837C10.0998 15.5804 10.0802 15.5827 10.0624 15.5904C10.0447 15.598 10.0295 15.6106 10.0188 15.6267C9.99527 15.6722 9.98761 15.7242 9.99703 15.7746C10.0064 15.825 10.0324 15.8707 10.0708 15.9047C10.1001 15.926 10.1295 15.9457 10.1588 15.9637C10.1718 15.9656 10.185 15.9644 10.1974 15.96C10.2098 15.9557 10.2209 15.9483 10.2298 15.9387L10.2588 15.7927L10.2508 15.6807L10.1868 15.6057ZM12.9378 15.6697C12.9708 15.6797 12.9708 15.6797 12.9898 15.6477L12.9718 15.6297C12.9471 15.625 12.9358 15.6383 12.9378 15.6697ZM12.9238 9.43867C12.9302 9.45361 12.9415 9.46586 12.956 9.47334C12.9704 9.48082 12.9869 9.48306 13.0028 9.47967C13.0328 9.44967 13.0328 9.44967 13.0238 9.40467C12.9618 9.37767 12.9498 9.38367 12.9238 9.43867ZM12.7318 14.3987L12.7358 14.3957L12.7388 14.3997L12.7348 14.4027L12.7318 14.3987ZM12.6208 12.6417C12.6117 12.6375 12.6018 12.6354 12.5918 12.6354C12.5818 12.6354 12.5719 12.6375 12.5628 12.6417C12.5227 12.6969 12.4957 12.7605 12.4838 12.8277C12.5158 12.9557 12.5728 12.9967 12.7228 13.0057C12.7632 12.9744 12.7934 12.932 12.8098 12.8837C12.8195 12.8643 12.8245 12.8429 12.8245 12.8212C12.8245 12.7995 12.8195 12.7781 12.8098 12.7587C12.8005 12.7427 12.7934 12.7256 12.7888 12.7077C12.7386 12.6732 12.6811 12.6506 12.6208 12.6417ZM12.7668 12.2357L12.7718 12.2327L12.7678 12.2287L12.7668 12.2357ZM12.8508 9.65267H12.8618V9.66567H12.8508V9.65267ZM12.8958 17.0337L12.8738 17.0437V17.0977C12.9258 17.0977 12.9278 17.0977 12.9438 17.0597C12.9406 17.0503 12.934 17.0424 12.9253 17.0376C12.9166 17.0328 12.9065 17.0314 12.8968 17.0337H12.8958ZM11.3208 12.1877C11.3418 12.1677 11.3438 12.1547 11.3268 12.1367L11.2968 12.1437L11.3208 12.1877ZM12.0128 9.13567C11.9784 9.1403 11.9448 9.14938 11.9128 9.16267C11.8986 9.1658 11.8858 9.17362 11.8766 9.18486C11.8673 9.1961 11.8621 9.21012 11.8618 9.22467C11.8587 9.27091 11.8621 9.31736 11.8718 9.36267C11.8874 9.38167 11.9065 9.3974 11.9282 9.40896C11.9499 9.42051 11.9736 9.42765 11.9981 9.42998C12.0225 9.4323 12.0472 9.42976 12.0707 9.4225C12.0941 9.41524 12.1159 9.4034 12.1348 9.38767L12.1598 9.36267V9.29567C12.1607 9.27557 12.1577 9.25549 12.1509 9.23657C12.1441 9.21764 12.1336 9.20025 12.12 9.18539C12.1064 9.17053 12.0901 9.15849 12.0719 9.14996C12.0536 9.14142 12.0329 9.13657 12.0128 9.13567ZM11.8478 14.1467V14.1287L11.8358 14.1427L11.8478 14.1467ZM11.8788 14.8977L11.8838 14.8937L11.8758 14.8927L11.8788 14.8977ZM11.2448 13.0597C11.1943 13.0696 11.1495 13.0986 11.1198 13.1407C11.1152 13.167 11.1173 13.1941 11.1258 13.2194C11.1344 13.2447 11.1492 13.2675 11.1688 13.2857H11.2158V13.2997C11.2218 13.2997 11.2278 13.2917 11.2298 13.2877C11.2318 13.2837 11.2518 13.2937 11.2628 13.2877C11.2919 13.2672 11.3129 13.2371 11.3219 13.2027C11.3308 13.1682 11.3273 13.1317 11.3118 13.0997L11.2448 13.0597ZM11.9698 14.0047C11.9335 14.0263 11.8949 14.0441 11.8548 14.0577C11.8399 14.0621 11.8262 14.07 11.8148 14.0807C11.8071 14.0895 11.801 14.0997 11.7968 14.1107L11.8508 14.1277L11.9118 14.1027L11.9988 14.0697C12.0087 14.0668 12.0175 14.0609 12.0239 14.0529C12.0304 14.0448 12.0342 14.035 12.0348 14.0247C12.0288 14.0247 12.0228 14.0097 12.0138 14.0047C12.0073 14.0004 11.9996 13.9981 11.9918 13.9981C11.984 13.9981 11.9763 14.0004 11.9698 14.0047ZM11.3908 16.6347L11.4088 16.6437L11.4158 16.6347L11.4058 16.6217L11.3908 16.6347ZM11.7548 17.1527C11.7888 17.1717 11.7888 17.1717 11.8068 17.1257C11.7908 17.1257 11.7788 17.1177 11.7678 17.1257C11.7568 17.1337 11.7498 17.1367 11.7548 17.1527ZM11.7048 16.9877L11.7088 16.9867L11.7108 16.9937H11.7058L11.7048 16.9877ZM11.5228 16.9377L11.5258 16.9277L11.5318 16.9297L11.5288 16.9397L11.5228 16.9377ZM11.7528 13.6517L11.7618 13.6437L11.7698 13.6527L11.7598 13.6607L11.7528 13.6517ZM12.1978 13.0567L12.1988 13.0507L12.2048 13.0517L12.2038 13.0577L12.1978 13.0567ZM12.1578 13.5867L12.1598 13.5797H12.1648L12.1628 13.5877L12.1578 13.5867ZM12.2058 11.8567C12.1938 11.8667 12.1938 11.879 12.2058 11.8937C12.2188 11.9087 12.2478 11.8937 12.2608 11.8627C12.2582 11.858 12.2544 11.8539 12.2499 11.851C12.2454 11.848 12.2402 11.8461 12.2348 11.8455C12.2295 11.8449 12.224 11.8456 12.219 11.8476C12.2139 11.8495 12.2094 11.8526 12.2058 11.8567ZM12.2168 11.0797C12.2334 11.0671 12.2456 11.0496 12.2518 11.0297L12.2168 10.9067C12.1838 10.8977 12.1578 10.8627 12.1168 10.8707C12.1088 10.8953 12.1001 10.9187 12.0908 10.9407C12.0812 10.9612 12.0776 10.984 12.0805 11.0065C12.0833 11.029 12.0924 11.0502 12.1068 11.0677C12.1117 11.0759 12.1182 11.0831 12.126 11.0887C12.1338 11.0944 12.1426 11.0983 12.152 11.1004C12.1614 11.1025 12.1711 11.1026 12.1805 11.1007C12.19 11.0989 12.1989 11.0951 12.2068 11.0897L12.2168 11.0797ZM12.2908 14.4987C12.3161 14.506 12.3298 14.4983 12.3318 14.4757C12.2978 14.4597 12.2978 14.4597 12.2908 14.4987ZM17.1788 14.5837L17.1798 14.5777L17.1858 14.5787V14.5847L17.1788 14.5837ZM17.3248 16.4607C17.3368 16.4737 17.3468 16.4897 17.3678 16.4877C17.3888 16.4857 17.3868 16.4717 17.3738 16.4557H17.3558L17.3248 16.4607ZM16.5358 16.8127C16.5502 16.8438 16.5728 16.8705 16.6011 16.8899C16.6295 16.9093 16.6625 16.9206 16.6968 16.9227C16.7167 16.9058 16.7325 16.8846 16.7429 16.8607C16.7533 16.8367 16.7581 16.8107 16.7568 16.7847C16.7388 16.7537 16.7298 16.7167 16.6888 16.7017C16.6544 16.6998 16.6205 16.7098 16.5926 16.73C16.5648 16.7502 16.5447 16.7794 16.5358 16.8127ZM17.4108 14.0057C17.4198 14.0012 17.4275 13.9946 17.4333 13.9864C17.4391 13.9782 17.4427 13.9686 17.4438 13.9587C17.4459 13.9457 17.4455 13.9324 17.4425 13.9195C17.4395 13.9067 17.4339 13.8946 17.4262 13.8839C17.4185 13.8732 17.4088 13.8642 17.3975 13.8573C17.3863 13.8504 17.3738 13.8457 17.3608 13.8437H17.3428L17.2948 13.8507C17.2794 13.8751 17.2719 13.9036 17.2733 13.9324C17.2747 13.9613 17.285 13.9889 17.3028 14.0117C17.3383 14.0232 17.3768 14.021 17.4108 14.0057ZM17.3058 15.1787C17.2965 15.1861 17.2896 15.1962 17.286 15.2076C17.2825 15.219 17.2824 15.2312 17.2858 15.2427C17.2971 15.2627 17.3118 15.268 17.3298 15.2587C17.3348 15.1997 17.3348 15.1997 17.3058 15.1787ZM17.1088 17.4527L17.1188 17.4657L17.1248 17.4567L17.1178 17.4477L17.1088 17.4527ZM16.6218 15.5247L16.6108 15.4977L16.5908 15.4817C16.5846 15.4796 16.578 15.4796 16.5718 15.4817C16.5662 15.4813 16.5606 15.4822 16.5555 15.4843C16.5503 15.4864 16.5456 15.4896 16.5419 15.4937C16.5381 15.4979 16.5354 15.5028 16.5338 15.5082C16.5322 15.5135 16.5319 15.5192 16.5328 15.5247C16.5708 15.5637 16.5798 15.5697 16.6218 15.5247ZM17.2358 13.6357L17.2058 13.6697C17.2538 13.6697 17.2548 13.6637 17.2358 13.6357ZM17.2828 17.7417C17.2828 17.7417 17.2938 17.7497 17.2978 17.7487C17.3018 17.7477 17.3048 17.7397 17.3108 17.7337L17.2918 17.7247L17.2828 17.7417ZM17.2058 16.2877L17.2158 16.3317C17.2243 16.338 17.2343 16.342 17.2449 16.3433C17.2554 16.3445 17.2661 16.3429 17.2758 16.3387C17.2878 16.3017 17.2848 16.2897 17.2608 16.2767C17.2368 16.2647 17.2185 16.2683 17.2058 16.2877ZM17.2878 16.4447L17.3238 16.4607C17.3158 16.4497 17.3148 16.4247 17.2878 16.4447ZM17.4358 16.4317L17.4368 16.4257L17.4428 16.4267L17.4418 16.4327L17.4358 16.4317ZM16.6238 12.8967C16.6266 12.8999 16.6301 12.9024 16.634 12.9042C16.6378 12.9059 16.642 12.9068 16.6463 12.9068C16.6506 12.9068 16.6548 12.9059 16.6587 12.9042C16.6625 12.9024 16.666 12.8999 16.6688 12.8967V12.8757L16.6478 12.8627C16.6288 12.8627 16.6168 12.8697 16.6238 12.8967ZM16.6508 15.8307L16.6898 15.9207C16.7245 15.9405 16.7619 15.955 16.8008 15.9637C16.8207 15.9716 16.8425 15.973 16.8632 15.9676C16.8839 15.9622 16.9024 15.9503 16.9158 15.9337L16.9868 15.8667C16.9902 15.8422 16.9959 15.8181 17.0038 15.7947C17.0038 15.7837 17.0208 15.7777 17.0318 15.7687C17.0544 15.7996 17.0676 15.8364 17.0698 15.8747L17.0378 15.8987C17.0211 15.9093 17.0048 15.9207 16.9888 15.9327C16.9785 15.9416 16.971 15.9534 16.9672 15.9665C16.9635 15.9797 16.9637 15.9936 16.9678 16.0067L16.9978 16.0607C16.9885 16.0707 16.9808 16.08 16.9748 16.0887C16.966 16.0994 16.9612 16.1128 16.9612 16.1267C16.9612 16.1405 16.966 16.154 16.9748 16.1647L16.9898 16.1757H17.0398C17.0608 16.2097 17.0248 16.2337 17.0338 16.2647C17.0361 16.2716 17.0408 16.2774 17.0471 16.281C17.0533 16.2847 17.0607 16.286 17.0678 16.2847H17.0738L17.0978 16.2337L17.1168 16.2267L17.2348 16.2177C17.2635 16.2113 17.2934 16.2148 17.3198 16.2277C17.3262 16.2318 17.3337 16.2339 17.3413 16.2339C17.3489 16.2339 17.3564 16.2318 17.3628 16.2277C17.3818 16.2077 17.3718 16.1797 17.3778 16.1527C17.4032 16.1137 17.4168 16.0682 17.4168 16.0217C17.4223 15.9993 17.4229 15.9761 17.4186 15.9534C17.4143 15.9308 17.4052 15.9094 17.3918 15.8907L17.3668 15.8597L17.3918 15.8017C17.3886 15.7909 17.3823 15.7812 17.3738 15.7738C17.3654 15.7663 17.3549 15.7615 17.3438 15.7597C17.333 15.7564 17.3229 15.7513 17.3138 15.7447L17.3318 15.6967C17.3383 15.6834 17.3405 15.6684 17.3379 15.6539C17.3354 15.6394 17.3284 15.626 17.3178 15.6157L17.2678 15.5677L17.2498 15.4917H17.2898C17.3268 15.4917 17.3358 15.4747 17.3238 15.4287L17.2638 15.4117C17.2338 15.4117 17.2138 15.4297 17.1878 15.4117C17.2009 15.3593 17.22 15.3086 17.2448 15.2607L17.2098 15.2427C17.1898 15.2607 17.1705 15.2767 17.1518 15.2907C17.1449 15.2975 17.1355 15.3013 17.1258 15.3013C17.1161 15.3013 17.1067 15.2975 17.0998 15.2907V15.2357L17.0548 15.2237L17.0298 15.1787C16.9938 15.1857 17.0188 15.2167 16.9948 15.2387L16.9658 15.2547C16.9658 15.2377 16.9578 15.2187 16.9328 15.2207C16.9035 15.2473 16.8748 15.275 16.8468 15.3037C16.8331 15.3142 16.8238 15.3294 16.8207 15.3464C16.8175 15.3634 16.8208 15.3809 16.8298 15.3957L16.8798 15.5417C16.9342 15.5834 16.9841 15.6307 17.0288 15.6827L17.0188 15.7277C17.0081 15.7237 17.0011 15.72 16.9978 15.7167C16.9709 15.6868 16.9487 15.6531 16.9318 15.6167C16.9318 15.6067 16.9168 15.5997 16.9098 15.5917L16.8608 15.5977L16.8258 15.5797L16.7138 15.6127C16.6871 15.637 16.6663 15.6671 16.6528 15.7007C16.6427 15.7208 16.6373 15.7429 16.637 15.7654C16.6366 15.7879 16.6414 15.8102 16.6508 15.8307ZM16.5818 12.1447C16.5828 12.1316 16.579 12.1185 16.5711 12.1081C16.5632 12.0976 16.5517 12.0903 16.5388 12.0877C16.5328 12.0987 16.5218 12.1077 16.5208 12.1187C16.5178 12.1317 16.5192 12.1454 16.5248 12.1575C16.5304 12.1696 16.5399 12.1796 16.5518 12.1857C16.5778 12.1697 16.5828 12.1617 16.5818 12.1447ZM16.5738 12.8247C16.5854 12.8294 16.598 12.8313 16.6105 12.8303C16.623 12.8292 16.6351 12.8253 16.6458 12.8187L16.6628 12.7747C16.6438 12.7357 16.6218 12.7097 16.5798 12.7237C16.5418 12.7787 16.5418 12.7787 16.5738 12.8247ZM16.8968 14.1187H16.9578L17.0298 14.1127C17.0419 14.1109 17.0534 14.1063 17.0634 14.0994C17.0735 14.0925 17.0818 14.0833 17.0878 14.0727C17.1087 14.0436 17.1214 14.0093 17.1246 13.9736C17.1278 13.9379 17.1213 13.902 17.1058 13.8697L17.0638 13.8067L16.9738 13.7857L16.8898 13.8057L16.7998 13.8967L16.8128 13.9657C16.8143 13.9959 16.8227 14.0253 16.8372 14.0518C16.8518 14.0783 16.8722 14.1012 16.8968 14.1187ZM12.9648 8.79367L12.9658 8.78767L12.9718 8.78867V8.79467L12.9648 8.79367ZM16.8948 13.1517C16.8948 13.1517 16.8868 13.1417 16.8808 13.1407C16.8793 13.1402 16.8777 13.14 16.8761 13.1402C16.8746 13.1404 16.873 13.1408 16.8716 13.1416C16.8703 13.1423 16.869 13.1433 16.868 13.1445C16.867 13.1458 16.8663 13.1472 16.8658 13.1487V13.1557C16.8658 13.1627 16.8738 13.1677 16.8838 13.1797C16.8889 13.1709 16.8926 13.1615 16.8948 13.1517ZM16.5388 15.2247L16.5178 15.2117C16.4728 15.2417 16.4718 15.2467 16.4938 15.2817C16.5208 15.2767 16.5378 15.2637 16.5388 15.2247ZM17.2178 13.3697C17.2348 13.3537 17.2448 13.3337 17.2268 13.3127C17.2088 13.2917 17.1958 13.2997 17.1788 13.3207C17.1858 13.3617 17.1858 13.3617 17.2178 13.3697ZM17.0048 12.8017H16.9908V12.8207L17.0048 12.8117V12.8017ZM17.1308 15.1697L17.1408 15.1457C17.1408 15.1457 17.1318 15.1357 17.1268 15.1357C17.1231 15.1363 17.1196 15.1379 17.1168 15.1404C17.114 15.1428 17.1119 15.1461 17.1108 15.1497V15.1577C17.1108 15.1577 17.1218 15.1597 17.1308 15.1697ZM17.1938 15.0057L17.2408 14.9577L17.2278 14.9357L17.1568 14.9627C17.1548 14.9977 17.1548 14.9977 17.1938 15.0057ZM17.6628 15.7277H17.6688V15.7337H17.6628V15.7277ZM18.6148 17.2407C18.6282 17.2245 18.6356 17.2042 18.6356 17.1832C18.6356 17.1622 18.6282 17.1418 18.6148 17.1257C18.5917 17.1137 18.5648 17.1111 18.5398 17.1187C18.529 17.1206 18.5191 17.1261 18.5117 17.1342C18.5043 17.1423 18.4997 17.1527 18.4988 17.1637V17.2207C18.5328 17.2747 18.5728 17.2597 18.6148 17.2407ZM18.8548 17.4847L18.8328 17.5247C18.8738 17.5247 18.8798 17.5247 18.8768 17.4977L18.8548 17.4847ZM16.7248 9.99467L16.7218 9.99567L16.7248 9.99867V9.99467ZM18.4108 15.9897C18.3868 15.9897 18.3648 15.9897 18.3568 16.0297C18.4058 16.0327 18.4058 16.0297 18.4108 15.9897ZM16.5738 17.2597C16.5635 17.2668 16.5562 17.2775 16.5534 17.2897C16.5507 17.302 16.5526 17.3148 16.5588 17.3257C16.5614 17.3358 16.5679 17.3446 16.5769 17.35C16.5859 17.3554 16.5966 17.3571 16.6068 17.3547L16.6218 17.3477C16.631 17.3414 16.6391 17.3336 16.6458 17.3247C16.6447 17.3106 16.6406 17.297 16.6338 17.2847C16.6178 17.2567 16.5938 17.2477 16.5738 17.2597ZM6.21181 12.2757L6.21481 12.2717L6.21881 12.2757L6.21481 12.2787L6.21181 12.2757ZM5.09381 11.9247L5.08381 11.9187L5.07581 11.9277L5.08981 11.9357L5.09381 11.9247ZM17.6318 16.1357C17.6068 16.1357 17.5858 16.1357 17.5758 16.1667C17.6048 16.1927 17.6158 16.1957 17.6318 16.1827C17.6478 16.1697 17.6428 16.1627 17.6318 16.1357ZM17.7218 14.4807C17.7103 14.4688 17.6949 14.4613 17.6785 14.4597C17.662 14.458 17.6454 14.4623 17.6318 14.4717C17.6419 14.4824 17.6545 14.4904 17.6684 14.4951C17.6824 14.4998 17.6973 14.5011 17.7118 14.4987L17.7218 14.4807ZM17.7118 14.7937C17.7118 14.7937 17.7008 14.7847 17.6968 14.7857C17.6944 14.7872 17.6923 14.7893 17.6908 14.7917C17.6892 14.7941 17.6882 14.7968 17.6878 14.7997L17.7078 14.8147L17.7118 14.7937ZM16.5398 17.4427H16.5478V17.4487H16.5398V17.4427ZM16.3408 15.5437V15.5497C16.3874 15.5648 16.4379 15.5623 16.4828 15.5427C16.4888 15.5427 16.4908 15.5307 16.4998 15.5167C16.4467 15.5132 16.3933 15.5183 16.3418 15.5317L16.3408 15.5437ZM17.8928 15.5227C17.8815 15.4933 17.8638 15.4817 17.8398 15.4877C17.8289 15.4901 17.8193 15.4966 17.8132 15.506C17.807 15.5153 17.8047 15.5267 17.8068 15.5377C17.8428 15.5697 17.8658 15.5697 17.8928 15.5227ZM18.0058 15.3817C18.0084 15.3854 18.0118 15.3884 18.0158 15.3905C18.0198 15.3926 18.0243 15.3937 18.0288 15.3937C18.0333 15.3937 18.0378 15.3926 18.0418 15.3905C18.0458 15.3884 18.0492 15.3854 18.0518 15.3817C18.0688 15.3647 18.0518 15.3477 18.0278 15.3477C18.0038 15.3477 18.0058 15.3507 18.0058 15.3817ZM18.2498 17.6257C18.2451 17.6134 18.2364 17.6031 18.2252 17.5962C18.214 17.5893 18.2009 17.5863 18.1878 17.5877C18.1618 17.5877 18.1358 17.5897 18.1098 17.5937C18.1008 17.5937 18.0918 17.5937 18.0948 17.6137C18.1255 17.6283 18.1568 17.6413 18.1888 17.6527C18.1946 17.6551 18.2008 17.6563 18.207 17.6562C18.2132 17.6561 18.2194 17.6548 18.2251 17.6523C18.2308 17.6497 18.2359 17.6461 18.2402 17.6415C18.2444 17.6369 18.2477 17.6315 18.2498 17.6257ZM17.6898 15.6637C17.6957 15.6703 17.7036 15.6747 17.7123 15.6763C17.721 15.678 17.7299 15.6767 17.7378 15.6727C17.7455 15.6688 17.7522 15.6633 17.7575 15.6565C17.7629 15.6498 17.7667 15.642 17.7688 15.6337C17.7719 15.626 17.7725 15.6175 17.7705 15.6094C17.7685 15.6014 17.7641 15.5941 17.7578 15.5887C17.7454 15.5839 17.7316 15.5838 17.7191 15.5884C17.7066 15.593 17.6962 15.602 17.6898 15.6137C17.6841 15.6208 17.681 15.6296 17.681 15.6387C17.681 15.6478 17.6841 15.6566 17.6898 15.6637ZM18.0348 14.7757C18.0138 14.7757 18.0018 14.7757 18.0008 14.8087C18.0178 14.8207 18.0318 14.8277 18.0458 14.8007L18.0348 14.7757ZM18.1068 15.3037L18.1078 15.2977H18.1128L18.1118 15.3047L18.1068 15.3037ZM6.91281 16.6157C6.93193 16.6031 6.94614 16.5842 6.95306 16.5624C6.95997 16.5406 6.95918 16.517 6.95081 16.4957C6.9389 16.4846 6.92391 16.4775 6.90783 16.4751C6.89176 16.4728 6.87535 16.4754 6.86081 16.4827C6.84688 16.5006 6.8345 16.5197 6.82381 16.5397C6.81857 16.5514 6.81803 16.5647 6.82231 16.5768C6.82659 16.5889 6.83536 16.5989 6.84681 16.6047C6.85636 16.6112 6.86721 16.6155 6.8786 16.6174C6.88999 16.6193 6.90166 16.6187 6.91281 16.6157ZM8.92281 13.2077L8.92481 13.2027L8.93481 13.2067L8.93181 13.2117L8.92281 13.2077ZM9.01581 17.3907L9.02581 17.4017L9.03681 17.3887L9.02981 17.3807L9.01581 17.3907ZM9.71681 12.3697C9.73014 12.361 9.73014 12.3453 9.71681 12.3227C9.70147 12.3258 9.68723 12.3329 9.67548 12.3433C9.66373 12.3536 9.65488 12.3669 9.64981 12.3817C9.66107 12.3855 9.67314 12.3865 9.68486 12.3844C9.69659 12.3823 9.70758 12.3772 9.71681 12.3697ZM9.49181 11.2607L9.44381 11.2957C9.42057 11.3127 9.40493 11.3381 9.40026 11.3666C9.39558 11.395 9.40224 11.4241 9.41881 11.4477V11.4527C9.42781 11.4657 9.44081 11.4757 9.44881 11.4887C9.46413 11.5106 9.48371 11.5293 9.50638 11.5436C9.52906 11.5578 9.55437 11.5674 9.58081 11.5717C9.60347 11.543 9.62614 11.5117 9.64881 11.4777C9.64181 11.4217 9.69081 11.3777 9.67781 11.3157C9.66781 11.3089 9.6564 11.3045 9.64445 11.3028C9.6325 11.301 9.62032 11.302 9.60881 11.3057L9.49181 11.2607ZM8.94081 12.4477C8.93536 12.446 8.92963 12.4454 8.92395 12.4459C8.91827 12.4465 8.91276 12.4482 8.90773 12.4509C8.90271 12.4536 8.89827 12.4572 8.89468 12.4617C8.89108 12.4661 8.88841 12.4712 8.88681 12.4767C8.88409 12.4833 8.8838 12.4906 8.886 12.4974C8.8882 12.5042 8.89274 12.5099 8.89881 12.5137C8.90255 12.5178 8.90711 12.521 8.91219 12.5233C8.91727 12.5255 8.92276 12.5267 8.92831 12.5267C8.93386 12.5267 8.93934 12.5255 8.94442 12.5233C8.9495 12.521 8.95406 12.5178 8.95781 12.5137C8.962 12.5022 8.96262 12.4898 8.95959 12.478C8.95655 12.4662 8.95 12.4556 8.94081 12.4477ZM8.49381 15.7997L8.48281 15.7847L8.46781 15.7977L8.48581 15.8077L8.49381 15.7997ZM8.51581 16.1247C8.49881 16.1247 8.48781 16.1377 8.49781 16.1607C8.50517 16.1647 8.51342 16.1668 8.52181 16.1668C8.53019 16.1668 8.53845 16.1647 8.54581 16.1607C8.54877 16.1609 8.55176 16.1604 8.55446 16.1592C8.55717 16.1579 8.5595 16.156 8.56122 16.1536C8.56294 16.1511 8.56399 16.1483 8.56427 16.1453C8.56455 16.1424 8.56404 16.1394 8.56281 16.1367C8.55663 16.1308 8.54908 16.1267 8.54086 16.1246C8.53264 16.1225 8.52401 16.1225 8.51581 16.1247ZM8.54581 16.7077L8.54881 16.7057L8.55281 16.7107L8.54781 16.7127L8.54581 16.7077ZM8.77681 13.7987L8.77981 13.7957L8.78781 13.8017L8.78481 13.8057L8.77681 13.7987ZM8.65881 14.3907V14.3847H8.66581L8.66481 14.3917L8.65881 14.3907ZM9.80481 14.2297L9.80581 14.2247L9.81281 14.2257L9.81181 14.2307L9.80481 14.2297ZM9.91281 15.4137V15.4097L9.90881 15.4117L9.91281 15.4137ZM9.97081 14.0347L9.95981 14.0327L9.95681 14.0437L9.96781 14.0457L9.97081 14.0347ZM9.94981 16.4987C9.9414 16.5061 9.9343 16.5149 9.92881 16.5247C9.93681 16.5337 9.94181 16.5447 9.94881 16.5457C9.99382 16.5573 10.0405 16.5611 10.0868 16.5567C10.0907 16.5568 10.0947 16.5562 10.0984 16.5548C10.1021 16.5534 10.1054 16.5513 10.1083 16.5486C10.1112 16.5459 10.1135 16.5427 10.1151 16.5391C10.1168 16.5355 10.1177 16.5316 10.1178 16.5277C10.0939 16.5038 10.0616 16.4902 10.0278 16.4897C10.0015 16.4838 9.97406 16.487 9.94981 16.4987ZM10.0908 16.2517L10.0698 16.2287C10.0514 16.2328 10.0341 16.2406 10.0188 16.2516C10.0035 16.2626 9.99057 16.2766 9.98081 16.2927L9.99781 16.3207C10.0318 16.3007 10.0758 16.3007 10.0908 16.2517ZM9.93081 13.4667H9.93581L9.93381 13.4627L9.93081 13.4667ZM9.67781 14.0157L9.61081 13.9347C9.59532 13.9268 9.57819 13.9227 9.56081 13.9227C9.54342 13.9227 9.52629 13.9268 9.51081 13.9347C9.46645 13.9536 9.42955 13.9867 9.40581 14.0287C9.41909 14.0711 9.44163 14.11 9.47181 14.1427C9.48171 14.1579 9.49599 14.1698 9.51276 14.1767C9.52954 14.1837 9.54803 14.1854 9.56581 14.1817C9.60164 14.1727 9.63289 14.1507 9.65356 14.1201C9.67423 14.0895 9.68286 14.0523 9.67781 14.0157ZM9.76181 15.5427L9.74481 15.5517L9.71881 15.5637C9.70747 15.541 9.69614 15.5207 9.68481 15.5027C9.67923 15.4937 9.67031 15.4872 9.66 15.4848C9.64968 15.4824 9.63883 15.4841 9.62981 15.4897C9.62452 15.4929 9.62007 15.4974 9.61681 15.5027C9.60581 15.5187 9.59981 15.5387 9.58881 15.5557C9.57826 15.5719 9.57265 15.5908 9.57265 15.6102C9.57265 15.6295 9.57826 15.6485 9.58881 15.6647C9.60043 15.682 9.61384 15.6981 9.62881 15.7127H9.67581C9.70826 15.7619 9.75452 15.8006 9.80881 15.8237C9.85481 15.8237 9.86081 15.7827 9.87881 15.7537V15.6837C9.8795 15.65 9.86806 15.6173 9.84657 15.5914C9.82509 15.5655 9.795 15.5482 9.76181 15.5427ZM9.96281 14.7317C9.97233 14.7173 9.97578 14.6998 9.97241 14.683C9.96903 14.6661 9.95911 14.6512 9.94481 14.6417L9.91981 14.6317C9.91083 14.6302 9.90162 14.6311 9.89316 14.6345C9.88471 14.6378 9.87732 14.6434 9.87181 14.6507C9.86771 14.6622 9.8663 14.6745 9.86769 14.6866C9.86907 14.6987 9.87322 14.7104 9.87981 14.7207C9.8826 14.7267 9.88655 14.7321 9.89144 14.7365C9.89633 14.741 9.90206 14.7444 9.90829 14.7467C9.91452 14.7489 9.92114 14.7499 9.92775 14.7495C9.93436 14.7492 9.94084 14.7475 9.94681 14.7447L9.96281 14.7317ZM9.82281 16.3087V16.3007H9.82781V16.3087H9.82281ZM16.3488 12.3507L16.3338 12.3407C16.3278 12.3377 16.3258 12.3517 16.3268 12.3567C16.3278 12.3617 16.3358 12.3637 16.3428 12.3697L16.3488 12.3507ZM8.51181 17.2507C8.4972 17.263 8.4835 17.2764 8.47081 17.2907C8.47063 17.3138 8.47714 17.3365 8.48956 17.356C8.50198 17.3755 8.51978 17.391 8.54081 17.4007L8.57981 17.3897C8.58951 17.3845 8.5983 17.3777 8.60581 17.3697C8.61541 17.3609 8.62323 17.3504 8.62881 17.3387C8.633 17.3223 8.6325 17.3051 8.62737 17.289C8.62225 17.2729 8.61269 17.2586 8.59981 17.2477C8.58701 17.238 8.57129 17.2331 8.55528 17.2336C8.53926 17.2341 8.52392 17.2402 8.51181 17.2507ZM9.82481 13.0837L9.80581 13.0697L9.79981 13.0787L9.80981 13.0927L9.82481 13.0837ZM6.21481 17.1697C6.21212 17.1825 6.21461 17.1959 6.22172 17.207C6.22883 17.218 6.23999 17.2258 6.25281 17.2287C6.26215 17.2268 6.27051 17.2216 6.27638 17.2141C6.28225 17.2066 6.28524 17.1972 6.28481 17.1877C6.28452 17.1789 6.28136 17.1705 6.27581 17.1637C6.26247 17.141 6.24214 17.143 6.21481 17.1697ZM6.73581 16.6507C6.73258 16.6498 6.72921 16.6496 6.7259 16.6501C6.7226 16.6506 6.71943 16.6517 6.71661 16.6535C6.71378 16.6553 6.71136 16.6577 6.7095 16.6605C6.70764 16.6632 6.70638 16.6664 6.70581 16.6697V16.6757C6.70581 16.6907 6.69881 16.7077 6.71781 16.7167C6.74881 16.6957 6.74881 16.6957 6.73581 16.6507ZM10.1618 16.5537L10.1908 16.5477L10.1838 16.5147C10.1471 16.524 10.1398 16.537 10.1618 16.5537ZM6.90581 16.7467V16.7407C6.90841 16.7392 6.91066 16.7372 6.91239 16.7348C6.91412 16.7324 6.91529 16.7296 6.91581 16.7267L6.90581 16.7157L6.89481 16.7257C6.89271 16.7082 6.88606 16.6917 6.87552 16.6776C6.86499 16.6636 6.85095 16.6526 6.83481 16.6457C6.82538 16.6428 6.81532 16.6428 6.80589 16.6457C6.79646 16.6485 6.78808 16.6541 6.78181 16.6617C6.76636 16.6836 6.75391 16.7075 6.74481 16.7327C6.74041 16.747 6.74014 16.7623 6.74403 16.7768C6.74792 16.7913 6.75581 16.8044 6.76681 16.8147L6.82981 16.8697C6.84099 16.8714 6.85241 16.8692 6.86222 16.8636C6.87203 16.858 6.87964 16.8492 6.88381 16.8387C6.8997 16.8107 6.90732 16.7788 6.90581 16.7467ZM5.64081 17.3987L5.64681 17.3937L5.65081 17.3977L5.64481 17.4027L5.64081 17.3987ZM16.3018 15.5477L16.2978 15.5507L16.3018 15.5567V15.5477ZM5.59581 16.5867C5.59555 16.5884 5.59573 16.5901 5.59633 16.5917C5.59693 16.5933 5.59793 16.5947 5.59923 16.5958C5.60054 16.5969 5.6021 16.5977 5.60378 16.598C5.60545 16.5983 5.60718 16.5982 5.60881 16.5977H5.61481L5.62281 16.5807C5.61481 16.5807 5.60881 16.5737 5.60381 16.5747C5.59974 16.5775 5.59689 16.5818 5.59581 16.5867ZM5.84581 17.4857L5.84881 17.4797L5.85381 17.4827L5.85081 17.4887L5.84581 17.4857ZM5.86781 17.2617L5.87181 17.2587L5.87481 17.2627L5.87081 17.2657L5.86781 17.2617ZM8.34681 17.0907L8.35781 17.1027L8.36681 17.0917L8.35381 17.0817L8.34681 17.0907ZM6.86181 17.1067L6.89181 17.1397C6.93421 17.1025 6.96828 17.0569 6.99181 17.0057C6.94381 17.0167 6.92281 17.0657 6.88281 17.0867C6.87487 17.0923 6.8678 17.099 6.86181 17.1067ZM7.81681 16.9247V16.9557L7.85081 16.9497C7.85081 16.9237 7.85081 16.9127 7.82981 16.9127L7.81681 16.9247ZM8.19481 17.7117L8.20481 17.7187L8.21281 17.7107L8.20681 17.6997L8.19481 17.7117ZM8.32081 14.7697C8.30181 14.7327 8.29681 14.7277 8.28081 14.7247C8.27215 14.7235 8.26335 14.7253 8.25577 14.7296C8.24818 14.7339 8.24223 14.7406 8.23881 14.7487C8.23629 14.7574 8.23729 14.7668 8.24159 14.7748C8.24588 14.7829 8.25313 14.7889 8.26181 14.7917C8.26709 14.7943 8.27286 14.7958 8.27876 14.7962C8.28466 14.7965 8.29056 14.7956 8.2961 14.7935C8.30163 14.7915 8.30668 14.7883 8.31094 14.7842C8.31519 14.7801 8.31855 14.7751 8.32081 14.7697ZM8.24281 17.3797C8.22411 17.3613 8.19898 17.3511 8.17281 17.3511C8.14663 17.3511 8.1215 17.3613 8.10281 17.3797L8.06181 17.4117C8.04081 17.4677 8.02081 17.5197 8.06181 17.5717L8.11381 17.6097C8.12881 17.6437 8.13881 17.6857 8.19981 17.6827L8.31281 17.5637C8.31982 17.556 8.32471 17.5466 8.32699 17.5364C8.32927 17.5262 8.32886 17.5156 8.32581 17.5057L8.30581 17.4247C8.28181 17.41 8.26081 17.395 8.24281 17.3797ZM7.68781 17.6867L7.69381 17.6847L7.69681 17.6917L7.69081 17.6937L7.68781 17.6867ZM7.36881 17.5367C7.36881 17.5437 7.37981 17.5437 7.38481 17.5487L7.39381 17.5597C7.40081 17.5597 7.40581 17.5717 7.41381 17.5747C7.42509 17.5798 7.43793 17.5802 7.44954 17.5759C7.46115 17.5716 7.47059 17.5629 7.47581 17.5517C7.47971 17.5436 7.48173 17.5347 7.48173 17.5257C7.48173 17.5167 7.47971 17.5078 7.47581 17.4997C7.46418 17.4917 7.45066 17.487 7.43661 17.4859C7.42257 17.4849 7.40849 17.4875 7.39581 17.4937C7.38788 17.4978 7.38119 17.5039 7.37644 17.5115C7.37169 17.5191 7.36906 17.5277 7.36881 17.5367ZM7.28581 17.4307H7.30481V17.4207L7.29681 17.4127L7.28581 17.4307ZM7.55781 17.1697H7.58581V17.1367C7.58581 17.1277 7.56681 17.1237 7.55681 17.1177C7.54481 17.1397 7.54481 17.1397 7.55781 17.1697ZM7.29781 16.9247C7.30248 16.9302 7.30901 16.9339 7.31618 16.935C7.32335 16.9361 7.33068 16.9346 7.33681 16.9307L7.34281 16.9247C7.34763 16.9202 7.35083 16.9142 7.35191 16.9077C7.353 16.9012 7.3519 16.8945 7.34881 16.8887C7.34639 16.8824 7.34192 16.8771 7.33611 16.8736C7.3303 16.8702 7.3235 16.8688 7.31681 16.8697C7.31184 16.8719 7.30738 16.8751 7.30371 16.8792C7.30004 16.8832 7.29722 16.8879 7.29544 16.8931C7.29367 16.8982 7.29296 16.9037 7.29336 16.9091C7.29377 16.9146 7.29528 16.9198 7.29781 16.9247ZM7.18981 16.6697C7.15981 16.7347 7.16181 16.7477 7.20681 16.7817C7.21909 16.7835 7.23164 16.7814 7.24262 16.7756C7.2536 16.7698 7.26242 16.7606 7.2678 16.7494C7.27317 16.7382 7.27481 16.7256 7.27247 16.7134C7.27013 16.7012 7.26394 16.6901 7.25481 16.6817C7.2458 16.6745 7.23515 16.6696 7.22381 16.6675C7.21247 16.6654 7.20079 16.6662 7.18981 16.6697ZM7.54981 17.4037H7.55781V17.4097H7.54981V17.4037ZM7.28181 17.6147L7.29181 17.6197L7.29481 17.6097L7.28481 17.6047L7.28181 17.6147ZM9.96181 11.5247C9.98485 11.5733 10.0191 11.6158 10.0618 11.6487C10.0898 11.6642 10.1151 11.6841 10.1368 11.7077C10.1655 11.7383 10.1941 11.7717 10.2228 11.8077C10.2678 11.8257 10.3008 11.7847 10.3458 11.7837C10.3617 11.8072 10.3843 11.8254 10.4108 11.8357C10.4372 11.8461 10.4662 11.8482 10.4938 11.8417C10.508 11.8328 10.5195 11.8202 10.5269 11.8052C10.5343 11.7901 10.5374 11.7733 10.5358 11.7567C10.5349 11.736 10.5297 11.7157 10.5206 11.6971C10.5115 11.6785 10.4986 11.662 10.4828 11.6487H10.3828C10.3428 11.6317 10.3588 11.5897 10.3358 11.5617C10.3128 11.5337 10.2838 11.5617 10.2548 11.5477L10.2488 11.5297C10.2506 11.5057 10.2452 11.4817 10.2333 11.4609C10.2213 11.44 10.2034 11.4232 10.1818 11.4127C10.1493 11.3959 10.1159 11.3808 10.0818 11.3677L10.0658 11.3607V11.3097C10.0258 11.2987 10.0258 11.2987 10.0068 11.3317L10.0388 11.3857L9.99181 11.4377L9.96181 11.5247ZM10.2768 10.8987L10.2798 10.8947L10.2888 10.8997L10.2858 10.9037L10.2768 10.8987ZM10.4468 9.06967C10.4719 9.07792 10.4992 9.07592 10.5228 9.06412C10.5464 9.05232 10.5644 9.03167 10.5728 9.00667V8.99267C10.5728 8.97067 10.5788 8.94767 10.5798 8.92567C10.5628 8.86867 10.5118 8.86267 10.4798 8.82567L10.3588 8.92567L10.3758 8.98467C10.3799 9.0035 10.3886 9.02106 10.4009 9.03585C10.4133 9.05065 10.429 9.06225 10.4468 9.06967ZM11.0858 9.11267L11.0538 9.09967H11.0198C10.9908 9.11967 10.9678 9.13667 10.9638 9.17067C10.9748 9.20667 10.9898 9.24167 11.0318 9.24367C11.0738 9.24567 11.0958 9.22067 11.1068 9.17967C11.1059 9.16864 11.1032 9.15782 11.0988 9.14767L11.0858 9.11267ZM10.5748 10.6447C10.588 10.6457 10.6012 10.6441 10.6137 10.64C10.6262 10.6358 10.6378 10.6293 10.6478 10.6207C10.6598 10.6077 10.6664 10.5908 10.6664 10.5732C10.6664 10.5556 10.6598 10.5386 10.6478 10.5257V10.5207C10.6411 10.5122 10.6328 10.5052 10.6234 10.5001C10.6139 10.4949 10.6035 10.4917 10.5928 10.4907L10.5338 10.5157C10.5232 10.5384 10.5216 10.5643 10.5292 10.5882C10.5368 10.6121 10.553 10.6322 10.5748 10.6447ZM9.00781 10.7957L9.01081 10.7917L9.01581 10.7947L9.01281 10.7987L9.00781 10.7957ZM9.12481 12.3737L9.10981 12.3657L9.10381 12.3757L9.11681 12.3867L9.12481 12.3737ZM9.60581 10.8557L9.56081 10.8817L9.52681 10.9617C9.53468 10.9939 9.55433 11.0221 9.5819 11.0406C9.60947 11.0591 9.64297 11.0666 9.67581 11.0617L9.73581 11.1407C9.77381 11.1517 9.80381 11.1817 9.84581 11.1707L9.86681 11.1477H9.90881L9.94081 11.1067L9.96081 11.0187C9.93881 11.0007 9.96081 10.9727 9.94881 10.9537C9.93681 10.9347 9.91881 10.9407 9.86781 10.9467C9.84887 10.9215 9.83402 10.8935 9.82381 10.8637L9.83581 10.7997L9.77981 10.7767C9.76264 10.7686 9.74316 10.7669 9.72485 10.7718C9.70653 10.7767 9.69057 10.788 9.67981 10.8037C9.65943 10.8264 9.63412 10.8442 9.60581 10.8557ZM8.94381 12.6447C8.94616 12.6558 8.95165 12.6661 8.95962 12.6742C8.96759 12.6824 8.97771 12.6881 8.98881 12.6907C9.00771 12.6903 9.02656 12.6927 9.04481 12.6977C9.0541 12.6704 9.0541 12.6409 9.04481 12.6137C9.03821 12.6042 9.02937 12.5965 9.01908 12.5913C9.00878 12.586 8.99735 12.5834 8.98581 12.5837C8.97387 12.5837 8.96243 12.5884 8.95399 12.5969C8.94555 12.6053 8.94081 12.6167 8.94081 12.6287L8.94381 12.6447ZM9.24281 11.4187C9.24115 11.4109 9.23722 11.4038 9.23152 11.3983C9.22582 11.3928 9.21861 11.3891 9.21081 11.3877C9.20005 11.3891 9.19005 11.3939 9.18229 11.4015C9.17454 11.4091 9.16945 11.419 9.16781 11.4297C9.16781 11.4567 9.18681 11.4717 9.21181 11.4727C9.22232 11.4685 9.23111 11.4609 9.23674 11.4511C9.24237 11.4413 9.24451 11.4299 9.24281 11.4187ZM9.01081 11.9567L9.00181 11.9497L8.99481 11.9567L9.00381 11.9637L9.01081 11.9567ZM9.68281 9.80467V9.79967C9.695 9.78548 9.70297 9.76816 9.70581 9.74967C9.70797 9.72572 9.70797 9.70162 9.70581 9.67767L9.67581 9.62467C9.6885 9.57677 9.68605 9.52612 9.66881 9.47967C9.61916 9.47127 9.56827 9.474 9.51981 9.48767C9.50043 9.53093 9.48729 9.57672 9.48081 9.62367C9.46532 9.66895 9.44661 9.71307 9.42481 9.75567C9.43183 9.78085 9.44576 9.80357 9.46502 9.82124C9.48429 9.83892 9.50811 9.85084 9.53381 9.85567C9.5604 9.86823 9.59083 9.86993 9.61865 9.8604C9.64648 9.85088 9.66949 9.83089 9.68281 9.80467ZM9.54381 10.3827C9.52381 10.4057 9.52381 10.4057 9.54381 10.4287C9.54991 10.4287 9.55576 10.4262 9.56007 10.4219C9.56438 10.4176 9.56681 10.4118 9.56681 10.4057C9.56681 10.3996 9.56438 10.3937 9.56007 10.3894C9.55576 10.3851 9.54991 10.3827 9.54381 10.3827ZM9.28381 14.0387L9.28781 14.0347L9.29381 14.0397L9.28981 14.0447L9.28381 14.0387ZM9.25381 12.6207L9.25781 12.6177L9.26181 12.6237L9.25781 12.6267L9.25381 12.6207ZM9.40581 10.6747C9.40581 10.6747 9.39581 10.6697 9.39181 10.6697L9.38081 10.6857L9.39781 10.6927C9.39781 10.6927 9.40581 10.6787 9.40581 10.6747ZM11.5758 10.0787L11.5818 10.0757L11.5848 10.0797L11.5788 10.0827L11.5758 10.0787ZM11.6058 8.94167C11.6477 8.95514 11.6905 8.96583 11.7338 8.97367L11.7408 8.95967C11.7317 8.95032 11.7208 8.94284 11.7088 8.93767C11.6738 8.92467 11.6438 8.89567 11.6038 8.89667L11.5918 8.90367C11.5875 8.90829 11.5851 8.91437 11.5851 8.92067C11.5851 8.92698 11.5875 8.93305 11.5918 8.93767L11.6058 8.94167ZM8.92981 10.7707L8.93081 10.7657L8.93781 10.7667V10.7717L8.92981 10.7707ZM12.7828 9.09267H12.8898L12.9128 9.04267C12.9215 9.02667 12.9301 9.01234 12.9388 8.99967C12.9268 8.89967 12.9238 8.89967 12.8848 8.85667L12.7738 8.84867L12.7208 8.89067C12.7186 8.91059 12.7149 8.93031 12.7098 8.94967C12.7009 8.97832 12.7036 9.0093 12.7172 9.03602C12.7309 9.06273 12.7544 9.08306 12.7828 9.09267ZM12.6548 8.64767L12.6078 8.65867C12.6002 8.67097 12.5954 8.68475 12.5937 8.69908C12.592 8.7134 12.5934 8.72793 12.5978 8.74167C12.6043 8.75248 12.6135 8.76135 12.6246 8.76733C12.6357 8.77332 12.6482 8.7762 12.6608 8.77567C12.673 8.7736 12.6844 8.76834 12.6939 8.76044C12.7033 8.75254 12.7106 8.74227 12.7148 8.73067C12.7194 8.72122 12.7214 8.71069 12.7205 8.70021C12.7196 8.68972 12.7159 8.67968 12.7097 8.67115C12.7036 8.66262 12.6952 8.65593 12.6855 8.65179C12.6759 8.64766 12.6652 8.64623 12.6548 8.64767ZM11.3308 8.81767L11.3218 8.81067L11.3148 8.81867L11.3238 8.82567L11.3308 8.81767ZM11.1138 9.36967L11.0908 9.44767L11.1018 9.51067C11.1678 9.56567 11.1838 9.56567 11.2698 9.51067L11.2818 9.46767C11.2892 9.45229 11.2979 9.43757 11.3078 9.42367C11.2844 9.39301 11.2576 9.36516 11.2278 9.34067C11.1915 9.33915 11.1553 9.34424 11.1208 9.35567L11.1138 9.36967ZM11.2928 10.0577L11.3118 10.1227L11.3528 10.1417C11.3732 10.1512 11.3966 10.1523 11.4178 10.1446C11.439 10.1369 11.4563 10.1211 11.4658 10.1007C11.4759 10.0896 11.4815 10.0752 11.4815 10.0602C11.4815 10.0452 11.4759 10.0307 11.4658 10.0197C11.4535 10.0004 11.435 9.98595 11.4134 9.97867C11.3917 9.97139 11.3682 9.97175 11.3468 9.97967C11.3298 10.0047 11.2958 10.0177 11.2928 10.0577ZM11.2948 9.80467H11.3498C11.361 9.80467 11.3721 9.80244 11.3824 9.79809C11.3927 9.79375 11.4021 9.78738 11.4099 9.77937C11.4177 9.77135 11.4239 9.76185 11.428 9.75143C11.4321 9.74101 11.4341 9.72987 11.4338 9.71867V9.68967C11.4338 9.66967 11.4668 9.66467 11.4508 9.63767H11.3998C11.389 9.62802 11.3761 9.62085 11.3622 9.61665C11.3483 9.61246 11.3337 9.61135 11.3193 9.6134C11.3049 9.61544 11.2911 9.6206 11.2789 9.62851C11.2668 9.63641 11.2564 9.64688 11.2487 9.65917C11.241 9.67147 11.236 9.68531 11.2342 9.69972C11.2323 9.71412 11.2336 9.72876 11.238 9.74261C11.2424 9.75646 11.2498 9.76918 11.2596 9.7799C11.2694 9.79062 11.2814 9.79907 11.2948 9.80467ZM11.5548 10.2287L11.5558 10.2237L11.5628 10.2247L11.5618 10.2297L11.5548 10.2287ZM11.5518 8.61267L11.5558 8.60267L11.5608 8.60467L11.5568 8.61467L11.5518 8.61267ZM11.4248 14.6357C11.4208 14.6441 11.4185 14.6533 11.4181 14.6626C11.4177 14.672 11.4192 14.6813 11.4225 14.6901C11.4257 14.6988 11.4307 14.7068 11.4371 14.7136C11.4435 14.7204 11.4513 14.7259 11.4598 14.7297L11.4818 14.7357C11.4952 14.7395 11.5092 14.7405 11.523 14.7386C11.5367 14.7367 11.55 14.732 11.5618 14.7247C11.5684 14.7058 11.5698 14.6855 11.5657 14.666C11.5617 14.6464 11.5524 14.6283 11.5388 14.6137C11.523 14.6071 11.506 14.6037 11.4888 14.6037C11.4716 14.6037 11.4546 14.6071 11.4388 14.6137L11.4248 14.6357ZM11.4968 9.15367H11.4858L11.4798 9.16367L11.4938 9.17167L11.4968 9.15367ZM11.4058 14.0927L11.3928 14.1447C11.3992 14.1661 11.4126 14.1847 11.4308 14.1977C11.4417 14.2055 11.455 14.209 11.4683 14.2075C11.4817 14.2061 11.4939 14.1997 11.5028 14.1897C11.5132 14.181 11.5203 14.169 11.523 14.1558C11.5257 14.1425 11.5239 14.1287 11.5178 14.1167C11.5052 14.0977 11.4865 14.0836 11.4648 14.0767C11.4546 14.0724 11.4433 14.0717 11.4326 14.0746C11.4219 14.0775 11.4125 14.0839 11.4058 14.0927ZM6.31081 16.9997C6.31778 16.9846 6.32088 16.968 6.31984 16.9514C6.31879 16.9348 6.31362 16.9188 6.30481 16.9047C6.29962 16.8932 6.29092 16.8836 6.27997 16.8773C6.26902 16.871 6.25636 16.8683 6.24381 16.8697L6.19981 16.8957C6.18461 16.9054 6.17373 16.9205 6.16945 16.9381C6.16516 16.9556 6.1678 16.9741 6.17681 16.9897C6.20481 17.0367 6.24381 17.0467 6.27681 17.0237L6.31081 16.9997ZM8.85481 11.5577L8.93981 11.5507C8.94564 11.5442 8.94887 11.5359 8.94887 11.5272C8.94887 11.5185 8.94564 11.5101 8.93981 11.5037L8.93481 11.4877L8.97981 11.4557L8.91981 11.3897C8.87881 11.3897 8.83881 11.3727 8.80081 11.4057L8.78281 11.4627L8.80481 11.5367L8.85481 11.5577ZM6.74981 15.9697C6.77444 15.9795 6.79687 15.9941 6.81581 16.0127C6.82404 16.0212 6.83405 16.0277 6.84511 16.0319C6.85618 16.036 6.86803 16.0376 6.87981 16.0367C6.90781 16.0247 6.93681 16.0097 6.94081 15.9717C6.94481 15.9337 6.90481 15.9227 6.88881 15.8987C6.89125 15.8849 6.89005 15.8707 6.88531 15.8576C6.88058 15.8444 6.87247 15.8327 6.86181 15.8237L6.80581 15.8077L6.76781 15.8307H6.72481L6.66781 15.8777C6.66909 15.8895 6.67248 15.901 6.67781 15.9117C6.69389 15.9392 6.71951 15.9598 6.74981 15.9697ZM6.64781 17.0617L6.65181 17.0587L6.65681 17.0647L6.65181 17.0677L6.64781 17.0617ZM6.64781 16.8237L6.62381 16.7897C6.60447 16.8003 6.59981 16.8137 6.60981 16.8297H6.62081L6.64781 16.8237ZM7.43181 14.4917L7.43281 14.4867L7.43781 14.4877L7.43681 14.4927L7.43181 14.4917ZM6.59181 17.3597V17.3537L6.57481 17.3447C6.57481 17.3517 6.56381 17.3577 6.56881 17.3617C6.57036 17.3641 6.57241 17.3661 6.57483 17.3677C6.57724 17.3693 6.57996 17.3703 6.58281 17.3707C6.58412 17.3705 6.5854 17.3702 6.58657 17.3695C6.58773 17.3689 6.58876 17.3681 6.5896 17.367C6.59044 17.366 6.59106 17.3648 6.59144 17.3636C6.59182 17.3623 6.59194 17.361 6.59181 17.3597ZM6.92181 15.6447C6.90481 15.6157 6.90081 15.6117 6.88481 15.6127C6.87719 15.6129 6.86996 15.6161 6.86458 15.6214C6.85919 15.6268 6.85606 15.6341 6.85581 15.6417C6.85567 15.6456 6.85632 15.6495 6.8577 15.6532C6.85909 15.6569 6.86119 15.6603 6.86388 15.6632C6.86657 15.6661 6.86981 15.6684 6.8734 15.67C6.87699 15.6716 6.88087 15.6725 6.88481 15.6727C6.89329 15.6731 6.90165 15.6706 6.90842 15.6654C6.91519 15.6603 6.91993 15.653 6.92181 15.6447ZM7.53081 15.6607L7.58981 15.6677V15.6277C7.55181 15.6197 7.55181 15.6197 7.53581 15.6377L7.53081 15.6607ZM7.06981 15.9537C7.056 16.0174 7.02682 16.0768 6.98481 16.1267L6.94681 16.2027L6.91981 16.2307C6.91134 16.2635 6.91134 16.2979 6.91981 16.3307C6.92234 16.3443 6.9295 16.3566 6.94007 16.3655C6.95064 16.3744 6.96397 16.3794 6.97781 16.3797C6.99009 16.3787 7.00169 16.3737 7.01076 16.3653C7.01982 16.357 7.02583 16.3458 7.02781 16.3337V16.3247C7.03065 16.2802 7.04824 16.238 7.07781 16.2047C7.08647 16.162 7.09581 16.124 7.10581 16.0907C7.11378 16.0563 7.13361 16.0259 7.16181 16.0047C7.21781 15.9657 7.21581 15.9627 7.26181 15.9657C7.2477 15.9757 7.23698 15.9898 7.23109 16.006C7.22519 16.0223 7.2244 16.0399 7.22881 16.0567C7.25781 16.0877 7.25781 16.0887 7.27781 16.0907C7.3203 16.1018 7.36529 16.0986 7.40581 16.0817H7.43081L7.49781 16.1297L7.52781 16.1757C7.5684 16.1935 7.61378 16.1974 7.65681 16.1867C7.68103 16.1858 7.70413 16.1763 7.72181 16.1597C7.73687 16.1435 7.7558 16.1315 7.77681 16.1247C7.82464 16.1075 7.86876 16.0814 7.90681 16.0477C7.95981 16.0047 7.96381 15.9667 7.93081 15.8957C7.91515 15.8847 7.89727 15.8773 7.87843 15.874C7.85959 15.8707 7.84025 15.8716 7.82181 15.8767C7.79781 15.8897 7.77881 15.9217 7.73381 15.9077L7.69381 15.8697C7.68121 15.8561 7.66411 15.8476 7.6457 15.8458C7.62729 15.8439 7.60884 15.8489 7.59381 15.8597C7.60084 15.8335 7.60519 15.8067 7.60681 15.7797C7.60796 15.7599 7.60374 15.7401 7.59459 15.7225C7.58543 15.7049 7.57169 15.6901 7.55481 15.6797C7.54681 15.6947 7.53681 15.7047 7.53581 15.7167V15.7707L7.52881 15.7937L7.47681 15.8107L7.44181 15.7987L7.41481 15.7877C7.40681 15.7683 7.39914 15.752 7.39181 15.7387C7.38904 15.7311 7.38478 15.7242 7.37927 15.7183C7.37376 15.7124 7.36712 15.7076 7.35975 15.7044C7.35237 15.7011 7.34441 15.6994 7.33635 15.6992C7.32828 15.6991 7.32028 15.7006 7.31281 15.7037L7.29681 15.7127L7.26181 15.7407L7.19381 15.7307L7.13081 15.7787C7.12988 15.821 7.11552 15.862 7.08981 15.8957C7.07723 15.9124 7.07023 15.9327 7.06981 15.9537ZM7.02381 14.8997L7.10281 14.8507C7.11637 14.8213 7.11928 14.7881 7.11102 14.7569C7.10276 14.7256 7.08386 14.6982 7.05756 14.6794C7.03127 14.6605 6.99923 14.6515 6.96697 14.6537C6.93471 14.656 6.90424 14.6694 6.88081 14.6917C6.8785 14.7039 6.8785 14.7164 6.88081 14.7287C6.88947 14.762 6.89947 14.7953 6.91081 14.8287C6.92288 14.8484 6.93937 14.8651 6.95898 14.8774C6.97858 14.8897 7.00077 14.8974 7.02381 14.8997ZM5.93881 15.6977C5.9582 15.6917 5.97477 15.6788 5.98543 15.6615C5.99609 15.6443 6.00013 15.6237 5.99681 15.6037C5.99512 15.575 5.98727 15.547 5.97381 15.5217C5.92938 15.495 5.87722 15.484 5.82581 15.4907C5.79181 15.5247 5.74581 15.5457 5.73981 15.6097L5.77681 15.6567C5.79468 15.6815 5.82072 15.6992 5.85035 15.7066C5.87997 15.7141 5.91129 15.711 5.93881 15.6977ZM7.54181 15.5917L7.54381 15.5877L7.55181 15.5917L7.54981 15.5957L7.54181 15.5917ZM5.48481 16.4327C5.52788 16.4549 5.57464 16.4691 5.62281 16.4747L5.72281 16.4257C5.74444 16.3873 5.76091 16.3463 5.77181 16.3037V16.2777C5.76989 16.2374 5.76555 16.1974 5.75881 16.1577L5.67381 16.0887L5.61781 16.0697C5.60478 16.0637 5.59063 16.0607 5.57631 16.0607C5.56199 16.0607 5.54783 16.0637 5.53481 16.0697C5.50336 16.0873 5.47699 16.1128 5.45825 16.1437C5.43951 16.1745 5.42902 16.2096 5.42781 16.2457V16.2727C5.43847 16.3147 5.45014 16.3563 5.46281 16.3977C5.46891 16.4101 5.47628 16.4218 5.48481 16.4327ZM3.48581 18.5397C3.56784 18.5883 3.66146 18.6138 3.75681 18.6137H20.6868C20.7803 18.6132 20.872 18.5884 20.9529 18.5415C21.0338 18.4947 21.1011 18.4275 21.148 18.3466C21.1949 18.2657 21.2198 18.174 21.2203 18.0805C21.2208 17.987 21.1969 17.895 21.1508 17.8137L12.8508 3.17967C12.8045 3.09808 12.7376 3.0301 12.6567 2.98254C12.5759 2.93498 12.4839 2.90952 12.3901 2.90871C12.2963 2.9079 12.2039 2.93177 12.1223 2.97792C12.0406 3.02408 11.9725 3.09089 11.9248 3.17167L6.63481 12.1427H6.62881V12.1527L3.29581 17.8077C3.26012 17.8682 3.23672 17.9351 3.22696 18.0047C3.21719 18.0743 3.22125 18.1451 3.2389 18.2131C3.25655 18.2811 3.28745 18.3449 3.32981 18.401C3.37218 18.457 3.42519 18.5042 3.48581 18.5397ZM4.91281 16.8827L7.52081 12.4577L7.92681 11.7687L7.95181 11.7287H7.98681C7.99936 11.7178 8.00822 11.7033 8.01216 11.6872C8.0161 11.6711 8.01493 11.6541 8.00881 11.6387L10.0358 8.19467V8.20867C10.0438 8.21867 10.0578 8.20867 10.0678 8.22067C10.0948 8.24608 10.1308 8.25974 10.1678 8.25867C10.1849 8.27919 10.204 8.29795 10.2248 8.31467C10.2347 8.32353 10.2475 8.32842 10.2608 8.32842C10.2741 8.32842 10.2869 8.32353 10.2968 8.31467C10.3074 8.30294 10.3144 8.28831 10.3167 8.27264C10.319 8.25698 10.3166 8.24098 10.3098 8.22667C10.3063 8.21462 10.2984 8.20434 10.2876 8.19785C10.2769 8.19137 10.2641 8.18916 10.2518 8.19167C10.2327 8.19596 10.214 8.20165 10.1958 8.20867L10.2058 8.15167C10.1992 8.12994 10.1861 8.11077 10.1682 8.09681C10.1503 8.08284 10.1285 8.07476 10.1058 8.07367L11.9118 5.01067C11.9595 4.92989 12.0276 4.86308 12.1093 4.81692C12.1909 4.77077 12.2833 4.7469 12.3771 4.74771C12.4709 4.74852 12.5629 4.77398 12.6437 4.82154C12.7246 4.8691 12.7915 4.93708 12.8378 5.01867L16.2298 11.0067L16.1298 11.0177C16.1044 11.0629 16.0862 11.1118 16.0758 11.1627C16.1177 11.2177 16.1763 11.2577 16.2428 11.2767L16.2768 11.2477C16.2878 11.2407 16.3048 11.2357 16.3188 11.2287L16.3468 11.2117L16.6288 11.7117V11.7067L17.5408 13.3147C17.5304 13.3118 17.5195 13.3118 17.5091 13.3146C17.4987 13.3174 17.4893 13.323 17.4818 13.3307C17.4668 13.3517 17.4718 13.3717 17.4968 13.4017C17.511 13.4038 17.5255 13.4029 17.5393 13.3989C17.5531 13.3949 17.5659 13.388 17.5768 13.3787L17.7688 13.7187C17.7648 13.7181 17.7606 13.7183 17.7567 13.7193C17.7527 13.7203 17.749 13.7222 17.7458 13.7247C17.7558 13.7333 17.7628 13.7383 17.7668 13.7397H17.7798L19.5668 16.8917C19.6365 17.0146 19.6545 17.1602 19.617 17.2965C19.5795 17.4328 19.4896 17.5486 19.3668 17.6187C19.2885 17.6652 19.1989 17.6894 19.1078 17.6887H16.5408L16.5468 17.6807C16.5268 17.6477 16.5268 17.6447 16.5088 17.6447C16.4908 17.6447 16.4868 17.6517 16.4748 17.6557C16.4748 17.6777 16.4968 17.6817 16.5118 17.6877H7.55181C7.58393 17.6794 7.61348 17.6632 7.63781 17.6407C7.58981 17.6087 7.55181 17.5747 7.50081 17.5907L7.49081 17.6007C7.4823 17.6103 7.47761 17.6228 7.47761 17.6357C7.47761 17.6486 7.4823 17.661 7.49081 17.6707C7.49829 17.6787 7.50784 17.6846 7.51842 17.6876C7.52901 17.6906 7.54121 17.6906 7.55181 17.6877H5.37381C5.30347 17.6877 5.23381 17.6738 5.16884 17.6469C5.10387 17.6199 5.04484 17.5804 4.99515 17.5306C4.94546 17.4808 4.90607 17.4217 4.87924 17.3567C4.85242 17.2917 4.83868 17.222 4.83881 17.1517C4.83883 17.0567 4.86439 16.9634 4.91281 16.8817M5.92781 15.2637L5.93181 15.2607L5.93581 15.2657L5.93181 15.2687L5.92781 15.2637ZM5.17781 17.2507L5.17381 17.2537L5.17781 17.2597V17.2507ZM12.9748 9.06367V9.05467L12.9698 9.05767L12.9748 9.06367ZM6.04181 16.5947L6.03381 16.5887L6.03081 16.5977L6.04081 16.5997L6.04181 16.5947ZM6.56281 17.6507C6.54897 17.6452 6.53376 17.6443 6.51937 17.6481C6.50499 17.6519 6.49218 17.6601 6.48281 17.6717C6.47124 17.687 6.46434 17.7053 6.46292 17.7245C6.4615 17.7436 6.46563 17.7628 6.47481 17.7797L6.54181 17.7697C6.55781 17.7548 6.56852 17.7352 6.57231 17.7137C6.57611 17.6922 6.57277 17.6701 6.56281 17.6507ZM6.19081 16.2007L6.23581 16.2187C6.24085 16.2206 6.24623 16.2214 6.25161 16.2212C6.257 16.2209 6.26228 16.2196 6.26713 16.2172C6.27199 16.2149 6.27632 16.2116 6.27988 16.2076C6.28343 16.2035 6.28613 16.1988 6.28781 16.1937C6.292 16.1821 6.29403 16.1699 6.29381 16.1577L6.26781 16.1257L6.29781 16.0867C6.2984 16.0748 6.29596 16.063 6.29071 16.0523C6.28546 16.0416 6.27758 16.0325 6.26781 16.0257C6.26273 16.0219 6.25694 16.0191 6.25078 16.0176C6.24462 16.0161 6.23822 16.0158 6.23196 16.0169C6.2257 16.0179 6.21971 16.0202 6.21436 16.0236C6.209 16.027 6.20439 16.0314 6.20081 16.0367C6.19662 16.0427 6.19382 16.0496 6.19261 16.0569C6.1914 16.0641 6.19181 16.0716 6.19381 16.0787C6.19381 16.0927 6.20681 16.1067 6.21281 16.1197C6.19781 16.1447 6.16181 16.1597 6.19081 16.2007ZM6.06181 15.6627L6.05681 15.6657L6.05981 15.6707L6.06181 15.6627ZM6.67281 15.2527L6.67581 15.2457L6.68081 15.2477L6.67781 15.2537L6.67281 15.2527ZM8.23181 11.7237C8.21868 11.6944 8.19753 11.6694 8.17081 11.6517C8.14581 11.6357 8.12581 11.6517 8.11581 11.6857C8.14159 11.7194 8.17905 11.7422 8.22081 11.7497L8.23181 11.7237ZM8.48281 11.9787C8.51555 11.9456 8.5357 11.9021 8.53981 11.8557C8.53381 11.8167 8.50581 11.7987 8.48681 11.7747L8.41481 11.7687C8.38448 11.7872 8.35963 11.8134 8.34281 11.8447L8.38181 11.9837C8.41513 11.993 8.45057 11.9912 8.48281 11.9787ZM8.15581 11.9317C8.15345 11.9334 8.15152 11.9357 8.15013 11.9383C8.14875 11.9409 8.14796 11.9437 8.14781 11.9467C8.14755 11.9484 8.14773 11.9501 8.14833 11.9517C8.14893 11.9533 8.14993 11.9547 8.15123 11.9558C8.15254 11.9569 8.1541 11.9577 8.15578 11.958C8.15745 11.9583 8.15918 11.9582 8.16081 11.9577H8.16781L8.17481 11.9397C8.16747 11.933 8.16114 11.9303 8.15581 11.9317ZM8.53281 11.3147C8.52081 11.2397 8.50981 11.2227 8.43281 11.1657L8.39481 11.2067L8.37981 11.2287C8.37396 11.2383 8.37023 11.2491 8.36885 11.2603C8.36747 11.2715 8.36848 11.2829 8.37181 11.2937C8.37838 11.3144 8.39194 11.3322 8.41018 11.3441C8.42841 11.3559 8.45019 11.3611 8.47181 11.3587C8.4787 11.3598 8.48576 11.3596 8.49257 11.358C8.49937 11.3564 8.50579 11.3535 8.51146 11.3494C8.51713 11.3453 8.52194 11.3401 8.5256 11.3342C8.52926 11.3282 8.53171 11.3216 8.53281 11.3147ZM8.07981 13.8957H8.08481V13.9007H8.07981V13.8957ZM8.19481 12.5027C8.17281 12.5153 8.16747 12.5303 8.17881 12.5477C8.20581 12.5437 8.20581 12.5437 8.19481 12.5027ZM8.79181 11.8147L8.82381 11.8387L8.89481 11.8187C8.92525 11.791 8.94387 11.7527 8.94681 11.7117C8.93681 11.6942 8.92509 11.6778 8.91181 11.6627C8.90429 11.6542 8.89515 11.6472 8.88493 11.6422C8.87471 11.6373 8.86361 11.6344 8.85227 11.6337C8.84092 11.6331 8.82956 11.6347 8.81884 11.6385C8.80812 11.6422 8.79825 11.6481 8.78981 11.6557L8.77481 11.6737C8.75959 11.7035 8.74816 11.735 8.74081 11.7677C8.74282 11.781 8.74617 11.794 8.75081 11.8067C8.76472 11.8079 8.77846 11.8106 8.79181 11.8147ZM8.70181 11.8767L8.69881 11.8807L8.70381 11.8817L8.70181 11.8767ZM8.51381 11.0957V11.0907L8.52181 11.0917L8.52081 11.0967L8.51381 11.0957ZM8.56781 11.7107C8.57368 11.7234 8.58434 11.7332 8.59745 11.7381C8.61056 11.743 8.62507 11.7425 8.63781 11.7367L8.64681 11.7317C8.64681 11.6727 8.63281 11.6647 8.58081 11.6707L8.56781 11.7107ZM8.48781 11.5687L8.51181 11.5737L8.52581 11.5407L8.60581 11.5067C8.61809 11.4896 8.6247 11.4692 8.6247 11.4482C8.6247 11.4272 8.61809 11.4067 8.60581 11.3897L8.56181 11.3627C8.54864 11.3617 8.53545 11.3641 8.52341 11.3695C8.51137 11.3749 8.50086 11.3832 8.49281 11.3937C8.48603 11.4517 8.48435 11.5103 8.48781 11.5687ZM7.95581 16.5627L7.97081 16.5117L7.90581 16.4187C7.8955 16.4064 7.8883 16.3918 7.88482 16.3761C7.88133 16.3604 7.88167 16.3442 7.88581 16.3287C7.88622 16.3163 7.88893 16.3041 7.89381 16.2927C7.82881 16.2477 7.77081 16.2017 7.69381 16.2327C7.66081 16.2807 7.69381 16.3417 7.65781 16.3867L7.60981 16.4197L7.61681 16.4457C7.63681 16.4557 7.64781 16.4457 7.65981 16.4337C7.66755 16.4247 7.67824 16.4187 7.68997 16.4169C7.70169 16.4151 7.71369 16.4175 7.72381 16.4237C7.75166 16.4646 7.77167 16.5104 7.78281 16.5587C7.78577 16.5694 7.79051 16.5795 7.79681 16.5887C7.81108 16.6096 7.82126 16.633 7.82681 16.6577C7.83395 16.6815 7.84403 16.7043 7.85681 16.7257C7.86681 16.7417 7.87681 16.756 7.88681 16.7687C7.87866 16.837 7.88975 16.9063 7.91881 16.9687L7.96181 17.0047C7.95714 17.0153 7.95247 17.0237 7.94781 17.0297C7.93252 17.0431 7.92171 17.0609 7.91681 17.0807C7.91132 17.0916 7.90813 17.1036 7.90743 17.1159C7.90674 17.1281 7.90855 17.1404 7.91276 17.1519C7.91698 17.1634 7.9235 17.1739 7.93194 17.1828C7.94037 17.1917 7.95053 17.1988 7.96181 17.2037C7.97314 17.2089 7.98535 17.2119 7.99781 17.2127C8.01776 17.2147 8.03786 17.2147 8.05781 17.2127L8.07881 17.1687L8.09281 17.1197C8.08481 17.0883 8.07614 17.0587 8.06681 17.0307C8.05614 17.0033 8.04447 16.976 8.03181 16.9487L8.04881 16.8857L8.03381 16.8077L7.97081 16.7337L7.98781 16.6627L7.95581 16.5627ZM8.14981 14.4287C8.17393 14.4337 8.19613 14.4455 8.21381 14.4627L8.22581 14.4677L8.28381 14.4767L8.33581 14.4617L8.43581 14.3707C8.44843 14.3607 8.45776 14.3472 8.46257 14.3318C8.46739 14.3165 8.46747 14.3001 8.46281 14.2847C8.45812 14.265 8.45544 14.2449 8.45481 14.2247C8.45097 14.2072 8.45312 14.1889 8.46092 14.1727C8.46871 14.1566 8.48171 14.1435 8.49781 14.1357C8.51387 14.1284 8.52927 14.1197 8.54381 14.1097C8.55249 14.1026 8.55992 14.0942 8.56581 14.0847L8.53881 14.0497L8.56281 13.9957C8.54831 13.9825 8.53024 13.9738 8.51086 13.9708C8.49148 13.9678 8.47164 13.9705 8.45381 13.9787L8.39281 13.9687C8.3762 13.9776 8.35879 13.985 8.34081 13.9907L8.28581 13.9987V14.0407C8.28367 14.0509 8.27996 14.0606 8.27481 14.0697C8.25881 14.0697 8.24181 14.0757 8.22381 14.0767C8.19814 14.0767 8.17305 14.0843 8.1517 14.0985C8.13034 14.1127 8.11368 14.133 8.10381 14.1567L8.07381 14.2037V14.2357C8.07381 14.2627 8.04881 14.2857 8.05981 14.3147C8.07081 14.3437 8.08481 14.3627 8.09481 14.3877C8.09969 14.3987 8.10731 14.4082 8.11694 14.4154C8.12657 14.4226 8.13789 14.4271 8.14981 14.4287ZM7.78181 14.5737C7.79235 14.5649 7.80098 14.5541 7.80718 14.5419C7.81337 14.5297 7.81699 14.5163 7.81781 14.5027C7.79581 14.3967 7.74981 14.3857 7.66981 14.3877C7.65081 14.4217 7.62081 14.4527 7.62581 14.4937L7.69181 14.5857L7.78181 14.5737ZM7.51981 12.6237L7.49881 12.6617C7.52581 12.6737 7.53781 12.6697 7.54381 12.6467L7.51981 12.6237ZM7.37481 13.5377C7.42242 13.5502 7.47162 13.5556 7.52081 13.5537L7.59481 13.4877C7.61973 13.4217 7.62289 13.3495 7.60381 13.2817C7.58881 13.2557 7.57081 13.2237 7.55081 13.1937C7.53081 13.1637 7.51281 13.1577 7.47081 13.1717C7.46758 13.1812 7.46644 13.1913 7.46748 13.2013C7.46852 13.2113 7.4717 13.221 7.47681 13.2297H7.43081L7.35581 13.2717C7.34373 13.2773 7.33388 13.2868 7.32781 13.2987C7.30727 13.3441 7.2954 13.3929 7.29281 13.4427C7.29205 13.4541 7.29411 13.4656 7.29882 13.476C7.30353 13.4865 7.31073 13.4956 7.31981 13.5027L7.37481 13.5377ZM7.73481 13.0077L7.73981 13.0037L7.74181 13.0087L7.73681 13.0117L7.73481 13.0077ZM7.69281 15.3237C7.69758 15.342 7.70744 15.3585 7.72124 15.3715C7.73505 15.3844 7.75223 15.3931 7.77081 15.3967C7.78955 15.3876 7.80532 15.3734 7.8163 15.3557C7.82728 15.338 7.833 15.3175 7.83281 15.2967C7.82459 15.2737 7.80822 15.2544 7.78681 15.2427C7.74781 15.2557 7.70581 15.2577 7.69281 15.3237ZM8.03681 13.1717L8.02681 13.1647L8.02481 13.1757L8.03481 13.1767L8.03681 13.1717ZM7.53881 15.4917L7.54281 15.4837L7.54681 15.4847L7.54281 15.4947L7.53881 15.4917ZM7.74981 13.3807L7.76081 13.3677L7.75281 13.3597L7.73981 13.3697L7.74981 13.3807ZM7.97281 13.4257L7.96681 13.4177L7.95581 13.4277L7.96481 13.4337L7.97281 13.4257ZM7.93981 13.8267L7.93281 13.8247L7.93581 13.8297L7.93981 13.8267ZM6.39781 16.6097C6.42181 16.6197 6.43881 16.6327 6.46281 16.6237C6.44281 16.5997 6.44281 16.5997 6.39781 16.6097ZM14.4338 11.8617C14.4018 11.8677 14.3918 11.8737 14.3908 11.8917C14.3898 11.9097 14.4008 11.9217 14.4388 11.9287C14.4568 11.902 14.4551 11.8797 14.4338 11.8617ZM14.5438 17.4697C14.5098 17.4027 14.5498 17.3407 14.5438 17.2807C14.5128 17.2237 14.4498 17.2277 14.4078 17.1907L14.2508 17.2677C14.2453 17.305 14.2345 17.3414 14.2188 17.3757C14.1698 17.3757 14.1478 17.4337 14.1018 17.4437L14.0738 17.5027L14.1108 17.6027L14.1798 17.6667C14.2014 17.6644 14.2222 17.6576 14.2408 17.6465C14.2595 17.6355 14.2755 17.6205 14.2878 17.6027C14.2968 17.5687 14.2708 17.5277 14.3188 17.5077L14.3598 17.5357L14.3378 17.5877L14.3958 17.7207C14.4488 17.7207 14.4958 17.7587 14.5498 17.7347L14.6278 17.6437C14.6418 17.5817 14.5908 17.5437 14.5808 17.5027L14.5438 17.4697ZM14.6618 16.3087C14.6437 16.3318 14.6322 16.3595 14.6288 16.3887L14.6828 16.4597C14.7258 16.4837 14.7608 16.4597 14.7998 16.4597C14.8126 16.4456 14.8211 16.4281 14.8243 16.4093C14.8275 16.3905 14.8252 16.3712 14.8178 16.3537C14.8137 16.3342 14.804 16.3164 14.7897 16.3025C14.7755 16.2886 14.7574 16.2792 14.7378 16.2757L14.6618 16.3087ZM14.5888 15.9607C14.5668 15.9747 14.5668 15.9857 14.5788 15.9987C14.5908 16.0117 14.6078 15.9987 14.6128 15.9787L14.5888 15.9607ZM14.6058 16.5807V16.5997C14.6091 16.6119 14.6169 16.6224 14.6277 16.6291C14.6385 16.6358 14.6514 16.6381 14.6638 16.6357C14.6733 16.6314 14.6821 16.6257 14.6898 16.6187C14.7014 16.605 14.7118 16.5902 14.7208 16.5747C14.6928 16.5387 14.6928 16.5387 14.6598 16.5247C14.6468 16.5286 14.635 16.5359 14.6255 16.5457C14.6161 16.5555 14.6093 16.5675 14.6058 16.5807ZM14.0298 11.1477L14.0348 11.1447L14.0378 11.1497L14.0328 11.1527L14.0298 11.1477ZM14.1058 11.6377V11.6547H14.1208V11.6377H14.1058ZM14.1618 14.4577C14.2088 14.4637 14.2088 14.4637 14.2268 14.4227L14.2348 14.4137L14.2658 14.4297L14.2928 14.3807C14.3118 14.3807 14.3288 14.4017 14.3528 14.3857L14.3728 14.3387C14.388 14.3309 14.4009 14.3194 14.4103 14.3052C14.4198 14.291 14.4255 14.2747 14.4268 14.2577C14.4418 14.2327 14.4688 14.2227 14.4698 14.1897L14.4438 14.1407L14.4368 14.0807L14.3998 14.0457L14.4288 13.9107L14.3898 13.8977C14.381 13.9154 14.3656 13.929 14.347 13.9357C14.3284 13.9424 14.3079 13.9417 14.2898 13.9337L14.1998 13.8827L14.1718 13.7827C14.1566 13.769 14.1387 13.7585 14.1192 13.752C14.0998 13.7454 14.0792 13.7429 14.0588 13.7447L13.9898 13.7877C13.9701 13.8204 13.962 13.8588 13.9668 13.8967L13.9268 13.9297C13.9268 13.9667 13.9618 13.9847 13.9768 14.0177L13.9078 14.1237L13.9668 14.1597L13.9958 14.2327C13.9883 14.2538 13.9864 14.2765 13.9902 14.2986C13.9941 14.3206 14.0036 14.3413 14.0178 14.3587L14.0898 14.3467L14.1618 14.4577ZM14.1218 12.6287L14.1288 12.6207L14.1338 12.6237L14.1268 12.6337L14.1218 12.6287ZM14.3178 10.0587L14.3528 10.0247C14.3058 10.0247 14.3058 10.0247 14.3178 10.0587ZM14.3078 10.4747H14.3118L14.3128 10.4807L14.3098 10.4817L14.3078 10.4747ZM14.9618 15.7967L14.9708 15.8107C14.9908 15.8107 14.9981 15.8017 14.9928 15.7837C14.9878 15.7667 14.9718 15.7697 14.9618 15.7837C14.9518 15.7977 14.9618 15.7927 14.9618 15.7967ZM15.0478 11.9897C15.0382 11.9883 15.0284 11.9883 15.0188 11.9897L15.0118 12.0047C15.0185 12.0113 15.0248 12.0147 15.0308 12.0147C15.0398 12.0147 15.0398 12.0017 15.0478 11.9897ZM15.2738 12.5697L15.2378 12.6007C15.1448 12.5527 15.1288 12.5537 15.0378 12.6167C15.0301 12.6306 15.0268 12.6465 15.0282 12.6624C15.0296 12.6782 15.0358 12.6933 15.0458 12.7057L15.0848 12.7677L15.1718 12.7837C15.1796 12.7859 15.1877 12.7866 15.1957 12.7857C15.2037 12.7847 15.2115 12.7821 15.2185 12.7781C15.2255 12.7741 15.2316 12.7687 15.2364 12.7623C15.2413 12.7559 15.2448 12.7485 15.2468 12.7407V12.7357C15.2555 12.7083 15.2635 12.6803 15.2708 12.6517C15.2888 12.6397 15.3228 12.6517 15.3228 12.6077C15.3148 12.5947 15.3058 12.5697 15.2738 12.5697ZM15.0838 12.5247C15.0608 12.5097 15.0438 12.5177 15.0188 12.5337C15.0428 12.5517 15.0608 12.5597 15.0858 12.5477L15.0838 12.5247ZM14.7058 15.9247V15.8837C14.6818 15.8647 14.6618 15.8597 14.6418 15.8777L14.6298 15.8977L14.6598 15.9417L14.7058 15.9247ZM14.9408 12.6367L14.9448 12.6307L14.9488 12.6337L14.9448 12.6397L14.9408 12.6367ZM14.8788 17.0817H14.8828L14.8848 17.0877H14.8808L14.8788 17.0817ZM15.1938 12.0317L15.1848 12.0377L15.1908 12.0477L15.1998 12.0417L15.1938 12.0317ZM14.8428 12.6077L14.8438 12.6027L14.8388 12.6037L14.8428 12.6077ZM14.8528 11.1637H14.8638L14.8698 11.1527H14.8538L14.8528 11.1637ZM14.8498 11.5697L14.8138 11.6147C14.8138 11.6697 14.8508 11.6767 14.8898 11.6807L14.9388 11.6447C14.9425 11.6346 14.9434 11.6237 14.9415 11.6132C14.9396 11.6026 14.9348 11.5928 14.9278 11.5847C14.9179 11.5746 14.9051 11.5677 14.8911 11.565C14.8772 11.5624 14.8628 11.564 14.8498 11.5697ZM14.8658 11.2217L14.8678 11.2167L14.8738 11.2197L14.8718 11.2247L14.8658 11.2217ZM13.3618 12.1077C13.3618 12.1137 13.3728 12.1177 13.3808 12.1257L13.3868 12.1037C13.3819 12.0985 13.3757 12.0947 13.3688 12.0927L13.3618 12.1077ZM13.3558 11.9527L13.3688 11.9597V11.9437L13.3618 11.9377L13.3558 11.9527ZM13.4298 11.1347L13.4348 11.1307L13.4388 11.1347L13.4328 11.1397L13.4298 11.1347ZM13.4958 14.6247H13.5438L13.5378 14.5857C13.5058 14.5907 13.5058 14.5907 13.4958 14.6247ZM13.5178 13.1137L13.5218 13.1147L13.5208 13.1107L13.5178 13.1137ZM13.0888 13.2007L13.0938 13.1967L13.0858 13.1957L13.0888 13.2007ZM13.4868 13.7867C13.4534 13.7775 13.4178 13.7811 13.3868 13.7967C13.3731 13.801 13.3617 13.8106 13.3549 13.8233C13.3482 13.836 13.3467 13.8509 13.3508 13.8647V13.8707L13.3988 13.9127L13.4758 13.9217C13.49 13.9123 13.5016 13.8995 13.5094 13.8845C13.5173 13.8695 13.5212 13.8526 13.5208 13.8357L13.4868 13.7867ZM13.2118 15.7837H13.2458V15.7467C13.2228 15.7377 13.2108 15.7467 13.2068 15.7627C13.2065 15.77 13.2082 15.7773 13.2118 15.7837ZM13.6108 13.5247H13.6318L13.6378 13.5147C13.6378 13.5147 13.6278 13.5067 13.6228 13.5077L13.6108 13.5247ZM13.3298 15.7837C13.3335 15.7956 13.3399 15.8066 13.3486 15.8156C13.3573 15.8247 13.368 15.8315 13.3798 15.8357C13.3952 15.8355 13.41 15.8297 13.4214 15.8194C13.4328 15.8091 13.4401 15.795 13.4418 15.7797C13.4445 15.7629 13.4417 15.7458 13.434 15.7307C13.4263 15.7156 13.414 15.7033 13.3988 15.6957C13.3478 15.7027 13.3388 15.7147 13.3298 15.7837ZM13.4618 14.2927C13.4517 14.2926 13.4419 14.2959 13.4339 14.3021C13.4259 14.3082 13.4203 14.3169 13.4178 14.3267C13.4618 14.3247 13.4618 14.3247 13.4618 14.2927ZM13.6798 11.3047C13.688 11.3012 13.6949 11.2951 13.6992 11.2873C13.7036 11.2795 13.7052 11.2705 13.7038 11.2617C13.7017 11.2539 13.697 11.2472 13.6904 11.2426C13.6838 11.238 13.6758 11.2359 13.6678 11.2367C13.6579 11.2371 13.6483 11.2404 13.6403 11.2463C13.6323 11.2522 13.6262 11.2603 13.6228 11.2697C13.6428 11.3027 13.6558 11.3107 13.6798 11.3047ZM13.7698 10.8167H13.7748L13.7768 10.8227L13.7718 10.8237L13.7698 10.8167ZM13.6458 10.8287L13.6518 10.8247L13.6548 10.8287L13.6488 10.8327L13.6458 10.8287ZM13.8958 14.5227C13.9168 14.5287 13.9298 14.5227 13.9338 14.4937C13.9038 14.4677 13.8958 14.4657 13.8828 14.4787C13.8804 14.4823 13.8788 14.4864 13.8782 14.4908C13.8775 14.4951 13.8778 14.4995 13.8791 14.5037C13.8803 14.5079 13.8825 14.5118 13.8853 14.515C13.8882 14.5183 13.8918 14.5209 13.8958 14.5227ZM13.8228 11.3337L13.8238 11.3287H13.8298L13.8288 11.3357L13.8228 11.3337ZM13.7908 12.3237L13.7948 12.3207L13.7918 12.3157L13.7908 12.3237ZM13.7448 15.4097L13.7638 15.4177L13.7708 15.4087L13.7598 15.3957L13.7448 15.4097ZM13.4698 11.2117L13.4718 11.2047L13.4768 11.2057L13.4748 11.2127L13.4698 11.2117ZM13.6758 15.4437L13.6798 15.4407L13.6838 15.4457L13.6798 15.4487L13.6758 15.4437ZM13.7618 12.4247C13.7428 12.4247 13.7328 12.4247 13.7358 12.4467C13.7618 12.4527 13.7618 12.4527 13.7668 12.4287L13.7618 12.4247ZM13.9768 11.7387C13.9844 11.6838 13.975 11.628 13.9498 11.5787C13.9308 11.5378 13.9006 11.5032 13.8628 11.4787C13.8308 11.4567 13.7958 11.4417 13.7628 11.4227C13.7018 11.4227 13.6898 11.4357 13.6728 11.4897C13.6524 11.5447 13.6486 11.6045 13.6618 11.6617L13.6468 11.7857C13.6468 11.7987 13.6408 11.8117 13.6368 11.8247C13.6239 11.8623 13.5965 11.8932 13.5608 11.9107C13.5428 11.9967 13.5718 12.0337 13.6608 12.0327C13.67 12.0219 13.6781 12.0102 13.6848 11.9977L13.7188 11.9167C13.7232 11.9034 13.7307 11.8913 13.7406 11.8814C13.7505 11.8715 13.7625 11.8641 13.7758 11.8597C13.8135 11.8704 13.8537 11.8681 13.89 11.8532C13.9262 11.8384 13.9565 11.8118 13.9758 11.7777L13.9768 11.7387ZM13.4598 12.1557C13.5208 12.2197 13.5598 12.2237 13.6438 12.1757V12.0917C13.629 12.075 13.609 12.0639 13.5871 12.0599C13.5652 12.0559 13.5425 12.0593 13.5228 12.0697C13.4868 12.0867 13.4558 12.1047 13.4598 12.1557ZM15.5188 11.7507L15.5208 11.7447L15.5268 11.7467L15.5248 11.7527L15.5188 11.7507ZM14.0328 8.86967C14.0758 8.87667 14.0848 8.86967 14.0838 8.81867C14.0488 8.80867 14.0478 8.80967 14.0328 8.86967ZM14.0868 9.26767H14.0918V9.27267H14.0868V9.26767ZM13.9288 8.62967V8.62467L13.9338 8.62567V8.63067L13.9288 8.62967ZM13.6218 9.39767L13.6268 9.39467L13.6308 9.40167L13.6258 9.40467L13.6218 9.39767ZM15.1508 9.61567L15.1348 9.60067L15.1128 9.64067H15.1278C15.1311 9.64131 15.1346 9.64108 15.1378 9.64001C15.1411 9.63894 15.144 9.63707 15.1463 9.63456C15.1486 9.63206 15.1502 9.62901 15.151 9.62571C15.1518 9.6224 15.1517 9.61895 15.1508 9.61567ZM15.3108 10.6057L15.3288 10.5347C15.2998 10.5137 15.2818 10.5347 15.2638 10.5477C15.2547 10.5524 15.2478 10.5604 15.2444 10.5701C15.2411 10.5798 15.2416 10.5903 15.2458 10.5997V10.6057C15.2546 10.614 15.2662 10.6187 15.2783 10.6187C15.2904 10.6187 15.3021 10.614 15.3108 10.6057ZM14.3748 10.5357L14.4058 10.6127L14.4928 10.7057H14.5688L14.6108 10.7217C14.617 10.7792 14.6084 10.8374 14.5858 10.8907L14.6008 10.9257C14.6179 10.9156 14.636 10.9072 14.6548 10.9007C14.6695 10.8954 14.6853 10.8937 14.7008 10.8957C14.7048 10.9046 14.7075 10.914 14.7088 10.9237L14.6958 10.9467C14.6892 10.9528 14.6809 10.9568 14.6719 10.9581C14.663 10.9593 14.6539 10.9578 14.6458 10.9537C14.6305 10.945 14.6155 10.9357 14.6008 10.9257L14.5118 10.9357L14.4588 10.9907C14.4668 11.0457 14.4438 11.0987 14.4718 11.1527L14.5398 11.2087L14.6288 11.2197C14.6423 11.2224 14.6563 11.2197 14.6679 11.2122C14.6795 11.2048 14.6877 11.1931 14.6908 11.1797C14.7082 11.1404 14.735 11.1061 14.7688 11.0797C14.8143 11.1007 14.8661 11.104 14.9138 11.0887L14.9938 11.2247L15.0568 11.2337L15.0738 11.2767L15.1128 11.2357L15.1648 11.2567C15.1767 11.2628 15.1904 11.2645 15.2035 11.2613C15.2165 11.2582 15.228 11.2505 15.2358 11.2397L15.2958 11.1667L15.3048 11.1477V11.0957L15.3308 11.0527L15.2798 10.9767C15.2438 10.9267 15.1918 10.9417 15.1498 10.9177L15.0798 10.8067C15.0588 10.7897 15.0288 10.8067 14.9938 10.7957L14.9398 10.7467L14.9558 10.6907C14.9052 10.6798 14.8607 10.6497 14.8318 10.6067C14.7978 10.5967 14.7878 10.6307 14.7628 10.6347C14.7208 10.6347 14.6958 10.6067 14.6628 10.5867L14.6508 10.5157H14.6058L14.5728 10.4857C14.5218 10.4857 14.4728 10.4437 14.4178 10.4707L14.3748 10.5357ZM14.2998 8.87467L14.2808 8.89367V8.90067C14.33 8.94642 14.3887 8.98059 14.4528 9.00067C14.4048 8.95511 14.3537 8.913 14.2998 8.87467ZM15.3058 9.89067C15.2958 9.89934 15.2895 9.90667 15.2868 9.91267C15.2849 9.91583 15.2838 9.91946 15.2838 9.92317C15.2838 9.92688 15.2849 9.93052 15.2868 9.93367C15.3118 9.92467 15.3178 9.91767 15.3058 9.89067ZM14.9208 9.72467C14.9118 9.72467 14.9048 9.71667 14.9008 9.71767C14.8968 9.71867 14.8948 9.72767 14.8918 9.73267C14.8888 9.73767 14.9028 9.74167 14.9078 9.74067C14.9118 9.73867 14.9161 9.73334 14.9208 9.72467ZM13.2128 11.6097L13.1948 11.5797C13.1418 11.5917 13.1398 11.5937 13.1488 11.6357C13.1609 11.6385 13.1735 11.6375 13.1849 11.6328C13.1964 11.6282 13.2061 11.6201 13.2128 11.6097ZM13.1958 12.3947L13.1998 12.3847L13.2048 12.3867L13.2008 12.3967L13.1958 12.3947ZM15.4268 17.0807L15.4528 17.0337H15.4168L15.4268 17.0807ZM13.2948 14.7097C13.3185 14.7235 13.3465 14.728 13.3733 14.7223C13.4001 14.7165 13.4239 14.701 13.4398 14.6787C13.4444 14.6622 13.4436 14.6446 13.4375 14.6286C13.4314 14.6125 13.4203 14.5989 13.4058 14.5897C13.3518 14.5897 13.3508 14.5897 13.3138 14.6377C13.3078 14.5677 13.2618 14.5477 13.2008 14.5377C13.1713 14.5427 13.1432 14.5543 13.1188 14.5717C13.1091 14.6067 13.1091 14.6437 13.1188 14.6787C13.1238 14.6988 13.1364 14.7161 13.1539 14.7271C13.1714 14.7381 13.1925 14.7419 13.2128 14.7377L13.2948 14.7097ZM13.2808 10.7637L13.2848 10.7607L13.2878 10.7647L13.2838 10.7677L13.2808 10.7637ZM13.3188 10.4487C13.326 10.4254 13.3284 10.4009 13.3258 10.3766C13.3232 10.3524 13.3157 10.3289 13.3038 10.3077H13.2788C13.2769 10.3541 13.2858 10.4003 13.3048 10.4427L13.3188 10.4487ZM13.4138 9.40967L13.4048 9.40467L13.3978 9.41467L13.4078 9.41967L13.4138 9.40967ZM13.4618 10.0607L13.5228 10.0777L13.5388 10.1507C13.5694 10.1756 13.6066 10.1909 13.6458 10.1947C13.6458 10.2037 13.6538 10.2077 13.6538 10.2117C13.671 10.2633 13.6924 10.3135 13.7178 10.3617C13.7178 10.3747 13.7398 10.3837 13.7518 10.3947L13.8168 10.3707L13.8428 10.4067L13.8908 10.4187C13.923 10.431 13.9586 10.431 13.9908 10.4187C14.004 10.416 14.0176 10.416 14.0308 10.4187L14.0858 10.4467C14.1178 10.4297 14.0988 10.3967 14.1158 10.3777C14.1328 10.3587 14.1888 10.3467 14.2088 10.3097L14.3088 10.3197C14.3028 10.2897 14.2788 10.2887 14.2638 10.2777C14.2548 10.2719 14.2472 10.2641 14.2416 10.2549C14.2361 10.2457 14.2327 10.2354 14.2318 10.2247L14.2888 10.0607L14.2348 9.92467H14.1928L14.1628 9.87967V9.81867L14.1238 9.76967C14.1168 9.72467 14.1418 9.67867 14.1048 9.64267C14.0598 9.63067 14.0428 9.67167 14.0138 9.68467L13.9938 9.73667C13.9853 9.74179 13.9759 9.74506 13.9661 9.74626C13.9563 9.74747 13.9463 9.74657 13.9368 9.74364C13.9274 9.74071 13.9187 9.73582 13.9113 9.72927C13.9038 9.72273 13.8979 9.71468 13.8938 9.70567V9.69967C13.882 9.67743 13.8648 9.65852 13.8438 9.64467C13.8329 9.63671 13.8229 9.62766 13.8138 9.61767C13.7698 9.57667 13.7468 9.57467 13.6888 9.61767L13.6738 9.69167C13.6632 9.69614 13.6512 9.69636 13.6404 9.69226C13.6296 9.68817 13.6208 9.68008 13.6158 9.66967L13.5858 9.63267C13.554 9.59503 13.5178 9.56145 13.4778 9.53267C13.4428 9.54867 13.4338 9.56367 13.4468 9.58767C13.4546 9.6014 13.464 9.61415 13.4748 9.62567L13.5338 9.70167C13.5347 9.71512 13.5328 9.72861 13.5284 9.74133C13.5239 9.75404 13.5169 9.76573 13.5078 9.77567C13.4935 9.78773 13.4825 9.80324 13.4758 9.82074C13.4692 9.83824 13.4671 9.85715 13.4698 9.87567V9.89667C13.4704 9.90564 13.4675 9.91448 13.4617 9.92137C13.4559 9.92826 13.4477 9.93266 13.4388 9.93367C13.4008 9.93367 13.3758 9.88567 13.3328 9.90367L13.3268 9.92567C13.3548 9.9411 13.3813 9.95919 13.4058 9.97967C13.4258 10.0057 13.4445 10.0328 13.4618 10.0607ZM13.6038 9.15367L13.5948 9.14667L13.5888 9.16167H13.5998L13.6038 9.15367ZM13.1358 13.9287L13.1388 13.9197L13.1498 13.9237L13.1468 13.9327L13.1358 13.9287ZM15.6838 12.6217L15.6888 12.6187L15.6918 12.6227L15.6868 12.6267L15.6838 12.6217ZM16.0618 15.8547L16.0838 15.8717C16.1078 15.8657 16.1208 15.8567 16.1148 15.8317C16.1088 15.8067 16.0928 15.8127 16.0808 15.8227C16.0725 15.8321 16.0661 15.8429 16.0618 15.8547ZM15.9618 15.5697C15.9808 15.5867 15.9938 15.5697 16.0008 15.5697C15.9868 15.5617 15.9728 15.5537 15.9618 15.5697ZM15.9058 13.0497C15.9218 13.0587 15.9328 13.0737 15.9468 13.0497C15.9608 13.0257 15.9398 13.0247 15.9158 13.0247L15.9058 13.0497ZM16.0168 12.8177L15.9738 12.7107C15.8948 12.6707 15.8368 12.7027 15.7848 12.8107L15.8218 12.8667H15.7938C15.7721 12.8615 15.75 12.8582 15.7278 12.8567C15.6898 12.856 15.6708 12.8753 15.6708 12.9147V13.0147C15.7048 13.0447 15.7208 13.0917 15.7708 13.0937L15.8618 13.0157L15.8838 12.9247C15.9186 12.9182 15.951 12.9027 15.9778 12.8797C15.9938 12.8597 16.0158 12.8497 16.0168 12.8177ZM15.6788 13.7557C15.6448 13.7637 15.6328 13.7927 15.6168 13.8327C15.6668 13.8247 15.6828 13.8167 15.6938 13.7917C15.6967 13.7858 15.6974 13.779 15.6955 13.7727C15.6936 13.7664 15.6895 13.761 15.6838 13.7577L15.6788 13.7557ZM15.8688 15.5707L15.8738 15.5677L15.8778 15.5727L15.8738 15.5757L15.8688 15.5707ZM15.7178 14.1067C15.7154 14.1192 15.7154 14.1321 15.7178 14.1447C15.7868 14.1247 15.7978 14.0987 15.7618 14.0447C15.7288 14.0767 15.7228 14.0837 15.7178 14.1067ZM15.7818 15.8117L15.7848 15.8087L15.7808 15.8077L15.7818 15.8117ZM15.8148 17.2007L15.8288 17.2107C15.8348 17.2107 15.8388 17.2007 15.8478 17.1907C15.8358 17.1907 15.8288 17.1837 15.8248 17.1907C15.8204 17.1927 15.8168 17.1962 15.8148 17.2007ZM15.8548 14.1207H15.8348L15.8428 14.1597H15.8768C15.8768 14.1367 15.8768 14.1237 15.8548 14.1207ZM15.7078 11.7387L15.7088 11.7327L15.7138 11.7337V11.7397L15.7078 11.7387ZM15.6268 11.6037V11.5957C15.6334 11.5852 15.6374 11.5733 15.6387 11.561C15.6399 11.5487 15.6382 11.5362 15.6338 11.5247L15.5678 11.4827C15.5168 11.4967 15.5038 11.5377 15.4798 11.5827L15.5418 11.6237C15.5486 11.6282 15.5563 11.6312 15.5644 11.6327C15.5724 11.6341 15.5807 11.6339 15.5886 11.632C15.5966 11.6301 15.6041 11.6267 15.6106 11.6218C15.6172 11.6169 15.6227 11.6107 15.6268 11.6037ZM15.5798 12.5767C15.6307 12.5868 15.6835 12.5809 15.7308 12.5597L15.8708 12.6327C15.9308 12.6007 15.9968 12.6327 16.0618 12.6267C16.0829 12.6086 16.1014 12.5878 16.1168 12.5647C16.135 12.524 16.1664 12.4905 16.2058 12.4697C16.2005 12.4498 16.1996 12.4291 16.2033 12.4088C16.2069 12.3886 16.2149 12.3694 16.2268 12.3527L16.2858 12.3357V12.2997C16.2668 12.2767 16.2468 12.2837 16.2268 12.2857C16.217 12.2873 16.207 12.2852 16.1987 12.2798C16.1904 12.2745 16.1844 12.2662 16.1818 12.2567C16.1907 12.2115 16.2059 12.1677 16.2268 12.1267L16.2068 12.1117L16.1748 12.1307L16.1058 12.0907V12.0497C16.1058 12.0337 16.0958 12.026 16.0758 12.0267C16.0568 12.0277 16.0248 12.0857 15.9758 12.0617L15.9298 12.0027L15.8878 12.0357L15.8358 12.0077C15.7922 12.0291 15.7529 12.0582 15.7198 12.0937L15.6468 12.0757C15.6322 12.0873 15.6216 12.1031 15.6164 12.1211C15.6112 12.139 15.6117 12.1581 15.6178 12.1757C15.6285 12.2081 15.6285 12.2432 15.6178 12.2757C15.5878 12.3097 15.5638 12.3357 15.5408 12.3637C15.5315 12.3761 15.5194 12.3862 15.5055 12.3931C15.4916 12.4001 15.4763 12.4037 15.4608 12.4037H15.4238L15.3588 12.4727V12.5027L15.3678 12.5677C15.3811 12.5822 15.3972 12.5939 15.4151 12.6022C15.4329 12.6106 15.4523 12.6153 15.4719 12.6161C15.4916 12.6169 15.5113 12.6139 15.5298 12.6071C15.5483 12.6004 15.5653 12.59 15.5798 12.5767ZM15.7398 11.1697C15.6928 11.1697 15.6848 11.1757 15.6878 11.2127C15.7268 11.2167 15.7288 11.2157 15.7398 11.1697ZM13.0748 11.6937C13.0792 11.6933 13.0837 11.6939 13.0878 11.6955C13.092 11.697 13.0957 11.6995 13.0988 11.7027C13.106 11.6904 13.1098 11.6764 13.1098 11.6622C13.1098 11.6479 13.106 11.634 13.0988 11.6217C13.0869 11.6197 13.0747 11.622 13.0645 11.6282C13.0542 11.6345 13.0465 11.6442 13.0428 11.6557L13.0748 11.6937ZM16.2118 11.7607L16.2168 11.7577L16.2198 11.7647L16.2158 11.7667L16.2118 11.7607ZM16.0868 15.5477C16.0793 15.5465 16.0716 15.5482 16.0653 15.5524C16.0589 15.5567 16.0545 15.5632 16.0528 15.5707C16.0778 15.5947 16.1048 15.5817 16.1298 15.5797C16.1671 15.5815 16.2042 15.5728 16.2368 15.5547C16.2301 15.5453 16.2248 15.5393 16.2208 15.5367C16.1738 15.5107 16.1328 15.5527 16.0868 15.5477ZM15.3208 17.2007C15.3208 17.2007 15.3318 17.2097 15.3358 17.2087C15.3398 17.2077 15.3438 17.1997 15.3488 17.1927C15.3538 17.1857 15.3338 17.1847 15.3298 17.1857C15.3258 17.1867 15.3238 17.1957 15.3208 17.2007ZM16.1468 13.0457L16.1408 13.0547L16.1498 13.0617L16.1578 13.0547L16.1468 13.0457ZM16.2338 15.0317L16.2148 15.0247C16.2125 15.0264 16.2105 15.0287 16.2091 15.0313C16.2078 15.0339 16.207 15.0367 16.2068 15.0397C16.2084 15.0421 16.2104 15.0441 16.2128 15.0457C16.2152 15.0473 16.218 15.0483 16.2208 15.0487C16.2258 15.0487 16.2278 15.0397 16.2338 15.0317ZM16.2348 13.0237L16.2358 13.0187L16.2398 13.0197V13.0247L16.2348 13.0237ZM9.39081 14.7127C9.38481 14.7127 9.37581 14.7127 9.37581 14.7247ZM9.86681 16.6247C9.84381 16.6047 9.84381 16.6047 9.80981 16.6247ZM17.7428 14.3547C17.7528 14.3297 17.7648 14.3327 17.7798 14.3407ZM17.6768 17.4577C17.6618 17.4707 17.6618 17.4707 17.6428 17.4577ZM16.6078 11.8297V11.8387ZM14.3548 12.5147C14.3548 12.5437 14.3548 12.5437 14.3248 12.5407ZM14.4348 10.0327C14.4248 10.0533 14.4118 10.0587 14.3958 10.0487ZM14.2188 10.3907L14.2068 10.4047V10.4247M14.4798 11.5697C14.4538 11.5857 14.4538 11.5857 14.4718 11.6087ZM14.0628 11.2697C14.0288 11.2637 14.0288 11.2637 14.0338 11.2327ZM14.0198 11.7877C13.9991 11.781 13.9955 11.769 14.0088 11.7517ZM16.0258 15.5697C16.0178 15.5567 16.0128 15.5697 16.0008 15.5697ZM15.6838 15.2447C15.6678 15.2677 15.6678 15.2677 15.6458 15.2517ZM5.00581 12.8857C5.01881 12.8687 5.02681 12.8807 5.03881 12.8857ZM5.56181 17.3697C5.57981 17.3887 5.57981 17.3887 5.56181 17.4067ZM8.61281 14.0747C8.62262 14.0805 8.63412 14.0827 8.64539 14.0811C8.65667 14.0794 8.66704 14.074 8.67481 14.0657M8.19281 13.6767C8.19281 13.7027 8.19281 13.7027 8.16781 13.6997ZM11.4828 14.8067C11.4728 14.8237 11.4618 14.8147 11.4498 14.8067ZM10.3748 13.4787L10.3848 13.4377ZM10.2728 14.8887C10.2438 14.8767 10.2438 14.8767 10.2318 14.9017ZM10.9688 16.2897C10.9518 16.2987 10.9398 16.3037 10.9288 16.2897ZM13.9038 16.1667L13.8698 16.1727ZM15.0688 10.5887C15.0918 10.5677 15.0918 10.5677 15.1058 10.5887ZM12.6768 16.8297C12.6701 16.8497 12.6598 16.8557 12.6458 16.8477ZM14.6958 10.9467L14.7088 10.9237C14.7075 10.914 14.7048 10.9046 14.7008 10.8957C14.6853 10.8937 14.6695 10.8954 14.6548 10.9007C14.636 10.9072 14.6179 10.9156 14.6008 10.9257C14.6155 10.9357 14.6305 10.945 14.6458 10.9537C14.6539 10.9578 14.663 10.9593 14.6719 10.9581C14.6809 10.9568 14.6892 10.9528 14.6958 10.9467ZM17.9918 22.4877H18.3288V22.7527H17.9918V22.4877ZM12.4378 7.26967L12.4498 7.28467L12.4578 7.26567L12.4498 7.25867C12.4449 7.26116 12.4407 7.26497 12.4378 7.26967ZM12.9538 7.21667L12.9578 7.21367L12.9608 7.21767L12.9568 7.22067L12.9538 7.21667ZM12.5558 8.05467C12.5631 8.04927 12.568 8.04125 12.5695 8.03229C12.571 8.02333 12.569 8.01415 12.5638 8.00667C12.5338 8.00667 12.5318 8.00667 12.5248 8.01967L12.4768 8.09767V8.10967H12.4888L12.5558 8.05467ZM12.1578 8.37267L12.1678 8.37767L12.1698 8.36767L12.1608 8.36267L12.1578 8.37267ZM12.1538 6.86967C12.138 6.87554 12.1239 6.88531 12.1129 6.89808C12.1019 6.91084 12.0943 6.92618 12.0908 6.94267C12.0908 6.99967 12.1008 7.05467 12.1708 7.06767C12.2198 7.06067 12.2438 7.02267 12.2708 6.98367V6.94267C12.2715 6.93471 12.2706 6.92669 12.2681 6.91909C12.2657 6.91148 12.2617 6.90444 12.2565 6.89839C12.2513 6.89233 12.2449 6.88738 12.2377 6.88383C12.2306 6.88027 12.2228 6.87818 12.2148 6.87767C12.1947 6.87344 12.1743 6.87077 12.1538 6.86967ZM11.8998 7.13767C11.8898 7.17167 11.8908 7.17267 11.9348 7.16767L11.8998 7.13767ZM12.4168 8.31067L12.3618 8.24367L12.2838 8.26067L12.2678 8.29267C12.2828 8.36367 12.2828 8.36367 12.3278 8.39267C12.3968 8.38567 12.4058 8.37767 12.4168 8.31067ZM11.8198 7.64267C11.8198 7.65667 11.8198 7.66967 11.8378 7.67567C11.8632 7.66376 11.8855 7.64608 11.9029 7.62403C11.9202 7.60198 11.9322 7.57617 11.9378 7.54867L11.9158 7.52967C11.8828 7.55745 11.8536 7.58939 11.8288 7.62467L11.8198 7.64267ZM12.2228 7.28267L12.1798 7.34467C12.1811 7.37759 12.1948 7.40881 12.2182 7.43202C12.2415 7.45522 12.2729 7.46868 12.3058 7.46967H12.3328C12.3621 7.44152 12.3797 7.40327 12.3818 7.36267C12.375 7.34047 12.3634 7.32002 12.3478 7.30275C12.3323 7.28548 12.3132 7.27181 12.2918 7.26267C12.2798 7.25718 12.2663 7.25618 12.2536 7.25985C12.2409 7.26352 12.23 7.27162 12.2228 7.28267ZM4.62581 5.17167L4.63081 5.16867L4.63581 5.17467L4.62981 5.17767L4.62581 5.17167ZM14.9228 5.28367L14.9288 5.27567L14.9328 5.27967L14.9268 5.28667L14.9228 5.28367ZM14.6158 5.31267H14.6208V5.31867H14.6158V5.31267ZM10.3808 8.43167C10.3695 8.439 10.3695 8.44834 10.3808 8.45967C10.3928 8.47067 10.4008 8.45067 10.3978 8.43767L10.3808 8.43167ZM10.3008 7.84867L10.3048 7.84567L10.3088 7.85167L10.3038 7.85467L10.3008 7.84867ZM11.2058 8.13167L11.1908 8.11567C11.181 8.11986 11.1718 8.1256 11.1638 8.13267C11.14 8.16234 11.122 8.19628 11.1108 8.23267C11.1898 8.18367 11.1928 8.18067 11.2058 8.13167ZM11.0708 8.26867L11.0808 8.25567L11.0868 8.25967L11.0768 8.27367L11.0708 8.26867ZM10.6318 7.53767C10.6614 7.56595 10.6849 7.59998 10.7008 7.63767C10.7196 7.65578 10.7447 7.66583 10.7708 7.66567C10.7954 7.66438 10.8196 7.67221 10.8388 7.68767C10.8605 7.70348 10.8862 7.71273 10.913 7.71432C10.9398 7.71592 10.9664 7.70979 10.9898 7.69667L11.0618 7.66867L11.0998 7.60267L11.0738 7.56967L11.0618 7.53667C11.0198 7.49567 10.9698 7.50767 10.9378 7.50067C10.8811 7.4742 10.8315 7.43481 10.7928 7.38567C10.7399 7.38085 10.6865 7.38663 10.6358 7.40267L10.6008 7.48467L10.6118 7.51267C10.6171 7.52202 10.6238 7.53047 10.6318 7.53767ZM10.5298 8.11567C10.5313 8.11108 10.5319 8.10622 10.5316 8.10139C10.5312 8.09656 10.5298 8.09186 10.5276 8.08756C10.5254 8.08327 10.5223 8.07947 10.5185 8.0764C10.5148 8.07332 10.5105 8.07103 10.5058 8.06967H10.4998L10.4698 8.09167C10.4958 8.13767 10.4958 8.13767 10.5298 8.11567ZM12.9428 7.87667C12.9425 7.87532 12.9419 7.87406 12.941 7.87297C12.9401 7.87187 12.9391 7.87096 12.9378 7.87031C12.9366 7.86965 12.9353 7.86925 12.9339 7.86914C12.9325 7.86903 12.9311 7.86921 12.9298 7.86967L12.9128 7.88367C12.9278 7.88967 12.9338 7.89467 12.9388 7.89367C12.9407 7.89132 12.9421 7.88858 12.9428 7.88563C12.9435 7.88269 12.9435 7.87962 12.9428 7.87667ZM11.6558 7.34267C11.6488 7.34267 11.6428 7.35267 11.6378 7.35767C11.6498 7.38167 11.6648 7.38167 11.6858 7.36767C11.6738 7.33967 11.6728 7.33767 11.6558 7.34267ZM11.7698 6.12267C11.7799 6.14143 11.7879 6.16121 11.7938 6.18167C11.8096 6.24328 11.8447 6.29826 11.8938 6.33867C11.9219 6.32868 11.9527 6.32868 11.9808 6.33867C11.9978 6.34294 12.0153 6.34496 12.0328 6.34467H12.0898C12.1449 6.31928 12.1925 6.27999 12.2278 6.23067C12.234 6.22127 12.2431 6.21422 12.2538 6.21067C12.312 6.18209 12.3594 6.13543 12.3888 6.07767L12.4638 6.03567L12.4918 6.06267C12.5258 6.06967 12.5408 6.05067 12.5458 6.01567L12.4998 5.95567C12.5178 5.92767 12.5218 5.92367 12.5338 5.92367C12.547 5.92098 12.5606 5.92098 12.5738 5.92367C12.5868 5.92593 12.6001 5.92559 12.613 5.92267C12.6259 5.91975 12.638 5.91431 12.6488 5.90667C12.6737 5.87725 12.6927 5.84329 12.7048 5.80667L12.6908 5.75667L12.6358 5.69567L12.5828 5.66967C12.5588 5.62067 12.5978 5.59367 12.6058 5.56067C12.6063 5.52376 12.5967 5.48742 12.5778 5.45567L12.6008 5.31267C12.5923 5.29799 12.5803 5.28569 12.5658 5.27695C12.5512 5.2682 12.5347 5.26329 12.5178 5.26267L12.4568 5.30967C12.441 5.28357 12.424 5.25821 12.4058 5.23367C12.3727 5.20192 12.3453 5.16471 12.3248 5.12367C12.3206 5.11426 12.3144 5.10589 12.3067 5.09915C12.2989 5.09241 12.2897 5.08746 12.2798 5.08467C12.2427 5.07512 12.2033 5.08013 12.1698 5.09867L12.1498 5.15467L12.1358 5.17167L12.0818 5.16267L12.0018 5.20667L12.0108 5.29067L11.9678 5.33767C11.9589 5.39001 11.9619 5.4437 11.9768 5.49467L11.9578 5.53767L11.9658 5.69867L11.9458 5.74067L11.8458 5.76367L11.7888 5.83467C11.775 5.85167 11.7662 5.87212 11.7632 5.8938C11.7602 5.91548 11.7632 5.93757 11.7718 5.95767C11.7867 5.9959 11.7895 6.0378 11.7798 6.07767L11.7698 6.12267ZM12.4578 5.82267L12.4528 5.78667H12.4578V5.82267ZM11.8968 6.73267L11.9098 6.71367C11.919 6.6625 11.9078 6.60978 11.8788 6.56667C11.8623 6.5543 11.8435 6.54532 11.8234 6.54023C11.8034 6.53514 11.7826 6.53405 11.7622 6.53703C11.7417 6.54 11.7221 6.54697 11.7043 6.55755C11.6866 6.56813 11.6711 6.5821 11.6588 6.59867C11.6521 6.60677 11.6467 6.61589 11.6428 6.62567V6.70267L11.6688 6.76267C11.6856 6.77601 11.7049 6.78584 11.7256 6.79156C11.7463 6.79729 11.7679 6.79879 11.7892 6.79599C11.8104 6.7932 11.8309 6.78615 11.8494 6.77527C11.8679 6.76439 11.884 6.7499 11.8968 6.73267ZM11.1668 6.66967C11.1724 6.65741 11.1755 6.64415 11.1758 6.63067C11.1652 6.62534 11.1536 6.62195 11.1418 6.62067C11.1353 6.62146 11.1293 6.62432 11.1246 6.62883C11.1199 6.63334 11.1168 6.63925 11.1158 6.64567C11.1144 6.65217 11.1153 6.65893 11.1182 6.6649C11.1211 6.67087 11.1259 6.67572 11.1318 6.67867C11.1346 6.68061 11.1378 6.68191 11.1412 6.68251C11.1446 6.6831 11.148 6.68297 11.1514 6.68212C11.1547 6.68127 11.1578 6.67971 11.1604 6.67757C11.1631 6.67542 11.1653 6.67273 11.1668 6.66967ZM12.8418 8.37767L12.8478 8.37567L12.8498 8.37967L12.8438 8.38267L12.8418 8.37767ZM12.7768 8.11067L12.7818 8.10667L12.7858 8.11167L12.7808 8.11567L12.7768 8.11067ZM11.5768 7.69167C11.575 7.68932 11.5728 7.68738 11.5702 7.686C11.5676 7.68462 11.5647 7.68382 11.5618 7.68367C11.5596 7.68532 11.5577 7.68742 11.5563 7.68983C11.555 7.69224 11.5541 7.69491 11.5538 7.69767L11.5698 7.70967L11.5768 7.69167ZM11.2568 7.48867L11.2628 7.48167L11.2668 7.48467L11.2608 7.49167L11.2568 7.48867ZM13.0368 5.92567C13.0472 5.92126 13.0555 5.91289 13.0598 5.90241C13.0641 5.89192 13.0641 5.88015 13.0598 5.86967C12.9958 5.81567 12.9858 5.81367 12.9278 5.85167C12.9188 5.87963 12.9188 5.90971 12.9278 5.93767L12.9708 5.96067C12.9921 5.94734 13.0141 5.93567 13.0368 5.92567ZM14.0538 8.16067C14.0401 8.14685 14.0227 8.13732 14.0037 8.13323C13.9847 8.12915 13.9649 8.13069 13.9468 8.13767L13.9278 8.18067C13.9488 8.21367 13.9658 8.24067 14.0038 8.24267C14.0348 8.22467 14.0618 8.20467 14.0538 8.16067ZM13.8768 7.76667L13.8658 7.76467L13.8628 7.77567L13.8738 7.77767L13.8768 7.76667ZM13.4168 7.06467L13.4208 7.06167L13.4248 7.06667L13.4208 7.06967L13.4168 7.06467ZM13.5248 7.07767L13.5328 7.14967H13.5588C13.565 7.14737 13.5705 7.1436 13.5748 7.13867C13.5908 7.11367 13.5818 7.09267 13.5598 7.07267H13.5278C13.5359 7.0394 13.5545 7.0096 13.5808 6.98767C13.5808 6.95567 13.5808 6.93567 13.5408 6.93167C13.5338 6.94267 13.5228 6.95167 13.5198 6.96367C13.5111 6.99662 13.5041 7.03 13.4988 7.06367C13.4962 7.07655 13.4962 7.0898 13.4988 7.10267L13.5188 7.08567L13.5248 7.07767ZM10.0438 8.33867L10.0398 8.34767ZM13.2718 6.89367C13.2508 6.86667 13.2508 6.86667 13.2718 6.84967ZM13.5058 7.10067C13.4808 7.12167 13.4808 7.12167 13.4888 7.14567ZM14.3178 8.34767C14.3418 8.34167 14.3418 8.34167 14.3388 8.31767ZM12.7748 6.10567C12.7737 6.11866 12.7769 6.13164 12.7838 6.14267ZM12.4528 5.81967L12.4578 5.82267L12.4528 5.77967L12.4478 5.78367L12.4528 5.81967Z" fill="#757575"/>
</svg>
