<svg width="24" height="25" viewBox="0 0 24 25" fill="none" xmlns="http://www.w3.org/2000/svg">
<path d="M9.00024 4.5248C8.30576 3.52463 7.15112 2.87012 5.84412 2.87012C3.7212 2.87012 2.00024 4.59686 2.00024 6.72691C2.00024 8.02366 2.63807 9.17093 3.61612 9.87012" stroke="#757575" stroke-width="1.5"/>
<path d="M17.4778 9.87878C17.4852 9.87874 17.4927 9.87872 17.5002 9.87872C19.9855 9.87872 22.0002 11.8965 22.0002 14.3855C22.0002 16.3478 20.748 17.7509 19.0002 18.3696M17.4778 9.87878C17.4926 9.71383 17.5002 9.54679 17.5002 9.37797C17.5002 6.3358 15.0378 3.86963 12.0002 3.86963C9.12348 3.86963 6.76257 6.0816 6.52066 8.89995M17.4778 9.87878C17.3755 11.0149 16.9288 12.0516 16.243 12.8832M6.52066 8.89995C3.98422 9.14168 2.00024 11.2812 2.00024 13.8848C2.00024 15.9382 3.23434 17.5799 5.00024 18.3696M6.52066 8.89995C6.6785 8.8849 6.83847 8.87721 7.00024 8.87721C8.12606 8.87721 9.16498 9.24986 10.0007 9.87872" stroke="#757575" stroke-width="1.5" stroke-linecap="round" stroke-linejoin="round"/>
<path d="M11.9978 15.8696L12.0022 15.8774M14.9966 18.8663L15.0011 18.874M8.99888 18.8663L9.00337 18.874M17.9955 21.8629L18 21.8707M6 21.8629L6.00449 21.8707M11.9978 22.8618L12.0022 22.8696" stroke="#757575" stroke-width="2" stroke-linecap="round" stroke-linejoin="round"/>
</svg>
