<svg width="80" height="80" viewBox="0 0 80 80" fill="none" xmlns="http://www.w3.org/2000/svg">
<path d="M40 80C29.395 79.9915 19.2276 76.9545 11.7287 71.5552C4.22982 66.1558 0.0117638 58.8352 0 51.1994C0.242539 45.5861 2.53257 40.1175 6.64 35.3431L36.2356 1.39688C36.663 0.964905 37.2277 0.612748 37.8825 0.369762C38.5373 0.126776 39.2633 0 40 0C40.7367 0 41.4627 0.126776 42.1175 0.369762C42.7723 0.612748 43.337 0.964905 43.7644 1.39688L73.2311 35.1767C77.4112 39.9941 79.7465 45.5221 80 51.1994C79.9882 58.8352 75.7702 66.1558 68.2713 71.5552C60.7724 76.9545 50.605 79.9915 40 80ZM40 9.11223L14.3022 38.5784C10.9955 42.372 9.1289 46.7239 8.88889 51.1994C8.88889 57.1404 12.1667 62.838 18.0011 67.0389C23.8356 71.2398 31.7488 73.5999 40 73.5999C48.2512 73.5999 56.1644 71.2398 61.9989 67.0389C67.8333 62.838 71.1111 57.1404 71.1111 51.1994C70.858 46.6607 68.9446 42.2506 65.5645 38.4152L40 9.11223Z" fill="#140F9C"/>
</svg>
