<svg width="70" height="63" viewBox="0 0 70 63" fill="none" xmlns="http://www.w3.org/2000/svg">
<path d="M35 1.5V6.5M51.6667 34.8333C51.6667 30.4131 49.9107 26.1738 46.7851 23.0482C43.6595 19.9226 39.4203 18.1667 35 18.1667C30.5797 18.1667 26.3405 19.9226 23.2149 23.0482C20.0893 26.1738 18.3334 30.4131 18.3334 34.8333M14.96 14.8L11.4267 11.2633M68.3334 34.8333H63.3334M6.66669 34.8333H1.66669M58.5667 11.2633L55.0334 14.7967M16.6667 44.8333V54.8333C16.6667 57.9767 16.6667 59.5467 17.6434 60.5233C18.62 61.5 20.19 61.5 23.3334 61.5C26.4767 61.5 28.0467 61.5 29.0234 60.5233C30 59.5467 30 57.9767 30 54.8333V44.8333M40 44.8333L46.6667 61.5L53.3334 44.8333" stroke="#FFE100" stroke-width="1.5" stroke-linecap="round" stroke-linejoin="round"/>
</svg>
