<svg width="58" height="78" viewBox="0 0 58 78" fill="none" xmlns="http://www.w3.org/2000/svg">
<path d="M57.6585 35.6813C57.5255 35.0868 57.2497 34.5338 56.8549 34.0699C56.4602 33.6059 55.9583 33.2452 55.3929 33.0188L39.3991 26.6219L42.7085 4.55627C42.83 3.76392 42.6943 2.95349 42.3215 2.24385C41.9487 1.53422 41.3583 0.962727 40.6368 0.61321C39.9154 0.263693 39.101 0.154543 38.313 0.30177C37.5251 0.448998 36.805 0.844854 36.2585 1.43127L1.25848 38.9313C0.84244 39.3768 0.541291 39.9171 0.38111 40.5052C0.220929 41.0934 0.206546 41.7117 0.339207 42.3067C0.471869 42.9017 0.747574 43.4554 1.14245 43.9198C1.53732 44.3842 2.03945 44.7453 2.60535 44.9719L18.5991 51.3688L15.2897 73.4438C15.1682 74.2361 15.3039 75.0466 15.6767 75.7562C16.0495 76.4658 16.6399 77.0373 17.3614 77.3868C18.0828 77.7364 18.8972 77.8455 19.6852 77.6983C20.4731 77.551 21.1932 77.1552 21.7397 76.5688L56.7397 39.0688C57.1576 38.6219 57.4597 38.0796 57.6199 37.4891C57.78 36.8987 57.7933 36.278 57.6585 35.6813ZM24.4991 62.6094L26.4585 49.5563C26.5837 48.7208 26.4231 47.8676 26.0029 47.1348C25.5826 46.402 24.9272 45.8326 24.1429 45.5188L10.4804 40.0531L33.4991 15.3906L31.5397 28.4438C31.4145 29.2792 31.5751 30.1325 31.9953 30.8653C32.4156 31.5981 33.071 32.1675 33.8554 32.4813L47.5178 37.9469L24.4991 62.6094Z" fill="#B89852"/>
</svg>
