<svg width="25" height="25" viewBox="0 0 25 25" fill="none" xmlns="http://www.w3.org/2000/svg">
<path d="M2.59448 6.81108C6.09448 10.2428 11.17 8.77204 12.3269 6.81108C12.4971 6.52264 12.5945 6.18777 12.5945 5.83059C12.5945 4.74758 11.6991 3.86963 10.5945 3.86963C9.48991 3.86963 8.59448 4.74758 8.59448 5.83059" stroke="#757575" stroke-width="1.5" stroke-linecap="round"/>
<path d="M17.594 9.79777C17.594 8.1806 18.7133 6.86963 20.094 6.86963C21.4747 6.86963 22.594 8.1806 22.594 9.79777C22.594 10.5148 22.3739 11.1717 22.0086 11.6807C19.9403 15.0611 9.87039 13.786 4.59399 12.7259" stroke="#757575" stroke-width="1.5" stroke-linecap="round"/>
<path d="M13.6799 20.7564C13.8858 21.4047 14.4414 21.8691 15.0945 21.8691C15.9229 21.8691 16.5945 21.1219 16.5945 20.2001C16.5945 19.8867 16.5169 19.5935 16.3818 19.3429C15.0944 16.8616 8.59444 15.193 2.59448 19.6437" stroke="#757575" stroke-width="1.5" stroke-linecap="round"/>
<path d="M19.594 16.3701H21.594" stroke="#757575" stroke-width="1.5" stroke-linecap="round" stroke-linejoin="round"/>
</svg>
